<?xml version="1.0" encoding="utf-8"?>
<svg xmlns="http://www.w3.org/2000/svg" width="500" viewBox="-5 30 305 150" id="svg9606" version="1.0">
  <g id="layer1" transform="matrix(1, 0, 0, 1, -12.383324, -293.520172)">
    <g id="g3381" transform="matrix(1, 0, 0, 1, -332.4599, 63.823711)" style="font-size:10px;font-style:normal;font-variant:normal;font-weight:normal;font-stretch:normal;text-align:center;line-height:100%;writing-mode:lr-tb;text-anchor:middle;font-family:Fortune Letters;-inkscape-font-specification:Fortune Letters">
      <rect ry="2.0803924" y="335.45676" x="394.8884" height="63.291439" width="45.208172" id="rect3359" style="font-size:10px;font-style:normal;font-variant:normal;font-weight:normal;font-stretch:normal;text-align:center;line-height:100%;writing-mode:lr-tb;text-anchor:middle;fill:#ffffff;fill-opacity:1;fill-rule:nonzero;stroke:#000000;stroke-width:1;stroke-linecap:round;stroke-linejoin:round;stroke-miterlimit:4;stroke-dasharray:none;stroke-opacity:1;font-family:Fortune Letters;-inkscape-font-specification:Fortune Letters" rx="2.0803924"/>
      <path transform="matrix(0.9333333,0,0,0.9333333,366.7312,-81.008194)" d="M 36.875002,453.88004 A 2.6785715,2.6785715 0 1 1 31.517859,453.88004 A 2.6785715,2.6785715 0 1 1 36.875002,453.88004 z" id="path3363" style="font-size:10.71428585px;font-style:normal;font-variant:normal;font-weight:normal;font-stretch:normal;text-align:center;line-height:100%;writing-mode:lr-tb;text-anchor:middle;fill:#ffffff;fill-opacity:0.33116886;stroke:#000000;stroke-width:1.07142854;stroke-linecap:round;stroke-linejoin:round;stroke-miterlimit:4;stroke-dasharray:none;stroke-opacity:1;font-family:Fortune Letters;-inkscape-font-specification:Fortune Letters"/>
      <path style="font-size:10.71428585px;font-style:normal;font-variant:normal;font-weight:normal;font-stretch:normal;text-align:center;line-height:100%;writing-mode:lr-tb;text-anchor:middle;fill:#ffffff;fill-opacity:0.33116886;stroke:#000000;stroke-width:1.07142854;stroke-linecap:round;stroke-linejoin:round;stroke-miterlimit:4;stroke-dasharray:none;stroke-opacity:1;font-family:Fortune Letters;-inkscape-font-specification:Fortune Letters" id="path3369" d="M 36.875002,453.88004 A 2.6785715,2.6785715 0 1 1 31.517859,453.88004 A 2.6785715,2.6785715 0 1 1 36.875002,453.88004 z" transform="matrix(-0.9333333,0,0,-0.9333333,468.25377,815.21315)"/>
      <path transform="translate(363.42998,-98.429354)" d="M 67.142858,465.53183 A 13.080358,13.080358 0 1 1 40.982142,465.53183 A 13.080358,13.080358 0 1 1 67.142858,465.53183 z" id="path3379" style="font-size:10px;font-style:normal;font-variant:normal;font-weight:normal;font-stretch:normal;text-align:center;line-height:100%;writing-mode:lr-tb;text-anchor:middle;opacity:1;fill:#ffffff;fill-opacity:1;stroke:#000000;stroke-width:1;stroke-linecap:round;stroke-linejoin:round;stroke-miterlimit:4;stroke-dasharray:none;stroke-opacity:1;font-family:Fortune Letters;-inkscape-font-specification:Fortune Letters"/>
    </g>
    <g id="g2636" transform="matrix(1, 0, 0, 1, -84.281715, 107.501228)">
      <rect style="fill:#ffffff;fill-opacity:1;fill-rule:nonzero;stroke:#000000;stroke-width:1;stroke-miterlimit:4;stroke-dasharray:8, 1;stroke-dashoffset:7.26;stroke-opacity:1" id="rect2638" width="45.208172" height="63.291439" x="96.665039" y="291.5481" ry="2.0803924" rx="2.0803924"/>
    </g>
    <g id="group-1" transform="matrix(1, 0, 0, 1, -282.505096, -5.325592)" style="font-size:10px;font-style:normal;font-variant:normal;font-weight:normal;font-stretch:normal;text-align:center;line-height:100%;writing-mode:lr-tb;text-anchor:middle;font-family:Fortune Letters;-inkscape-font-specification:Fortune Letters">
      <rect ry="2.0803924" y="335.45676" x="394.8884" height="63.291439" width="45.208172" id="rect-1" style="font-size:10px;font-style:normal;font-variant:normal;font-weight:normal;font-stretch:normal;text-align:center;line-height:100%;writing-mode:lr-tb;text-anchor:middle;fill:#ffffff;fill-opacity:1;fill-rule:nonzero;stroke:#000000;stroke-width:1;stroke-linecap:round;stroke-linejoin:round;stroke-miterlimit:4;stroke-dasharray:none;stroke-opacity:1;font-family:Fortune Letters;-inkscape-font-specification:Fortune Letters" rx="2.0803924"/>
      <path transform="matrix(0.9333333,0,0,0.9333333,366.7312,-81.008194)" d="M 36.875002,453.88004 A 2.6785715,2.6785715 0 1 1 31.517859,453.88004 A 2.6785715,2.6785715 0 1 1 36.875002,453.88004 z" id="path-1" style="font-size:10.71428585px;font-style:normal;font-variant:normal;font-weight:normal;font-stretch:normal;text-align:center;line-height:100%;writing-mode:lr-tb;text-anchor:middle;fill:#ffffff;fill-opacity:0.33116886;stroke:#000000;stroke-width:1.07142854;stroke-linecap:round;stroke-linejoin:round;stroke-miterlimit:4;stroke-dasharray:none;stroke-opacity:1;font-family:Fortune Letters;-inkscape-font-specification:Fortune Letters"/>
      <path style="font-size:10.71428585px;font-style:normal;font-variant:normal;font-weight:normal;font-stretch:normal;text-align:center;line-height:100%;writing-mode:lr-tb;text-anchor:middle;fill:#ffffff;fill-opacity:0.33116886;stroke:#000000;stroke-width:1.07142854;stroke-linecap:round;stroke-linejoin:round;stroke-miterlimit:4;stroke-dasharray:none;stroke-opacity:1;font-family:Fortune Letters;-inkscape-font-specification:Fortune Letters" id="path-2" d="M 36.875002,453.88004 A 2.6785715,2.6785715 0 1 1 31.517859,453.88004 A 2.6785715,2.6785715 0 1 1 36.875002,453.88004 z" transform="matrix(-0.9333333,0,0,-0.9333333,468.25377,815.21315)"/>
      <path transform="translate(363.42998,-98.429354)" d="M 67.142858,465.53183 A 13.080358,13.080358 0 1 1 40.982142,465.53183 A 13.080358,13.080358 0 1 1 67.142858,465.53183 z" id="path-3" style="font-size:10px;font-style:normal;font-variant:normal;font-weight:normal;font-stretch:normal;text-align:center;line-height:100%;writing-mode:lr-tb;text-anchor:middle;opacity:1;fill:#ffffff;fill-opacity:1;stroke:#000000;stroke-width:1;stroke-linecap:round;stroke-linejoin:round;stroke-miterlimit:4;stroke-dasharray:none;stroke-opacity:1;font-family:Fortune Letters;-inkscape-font-specification:Fortune Letters"/>
    </g>
    <g id="group-3" transform="matrix(1, 0, 0, 1, -232.784973, -5.228027)" style="font-size:10px;font-style:normal;font-variant:normal;font-weight:normal;font-stretch:normal;text-align:center;line-height:100%;writing-mode:lr-tb;text-anchor:middle;font-family:Fortune Letters;-inkscape-font-specification:Fortune Letters">
      <rect ry="2.0803924" y="335.45676" x="394.8884" height="63.291439" width="45.208172" id="rect-3" style="font-size:10px;font-style:normal;font-variant:normal;font-weight:normal;font-stretch:normal;text-align:center;line-height:100%;writing-mode:lr-tb;text-anchor:middle;fill:#ffffff;fill-opacity:1;fill-rule:nonzero;stroke:#000000;stroke-width:1;stroke-linecap:round;stroke-linejoin:round;stroke-miterlimit:4;stroke-dasharray:none;stroke-opacity:1;font-family:Fortune Letters;-inkscape-font-specification:Fortune Letters" rx="2.0803924"/>
      <path transform="matrix(0.9333333,0,0,0.9333333,366.7312,-81.008194)" d="M 36.875002,453.88004 A 2.6785715,2.6785715 0 1 1 31.517859,453.88004 A 2.6785715,2.6785715 0 1 1 36.875002,453.88004 z" id="path-7" style="font-size:10.71428585px;font-style:normal;font-variant:normal;font-weight:normal;font-stretch:normal;text-align:center;line-height:100%;writing-mode:lr-tb;text-anchor:middle;fill:#ffffff;fill-opacity:0.33116886;stroke:#000000;stroke-width:1.07142854;stroke-linecap:round;stroke-linejoin:round;stroke-miterlimit:4;stroke-dasharray:none;stroke-opacity:1;font-family:Fortune Letters;-inkscape-font-specification:Fortune Letters"/>
      <path style="font-size:10.71428585px;font-style:normal;font-variant:normal;font-weight:normal;font-stretch:normal;text-align:center;line-height:100%;writing-mode:lr-tb;text-anchor:middle;fill:#ffffff;fill-opacity:0.33116886;stroke:#000000;stroke-width:1.07142854;stroke-linecap:round;stroke-linejoin:round;stroke-miterlimit:4;stroke-dasharray:none;stroke-opacity:1;font-family:Fortune Letters;-inkscape-font-specification:Fortune Letters" id="path-8" d="M 36.875002,453.88004 A 2.6785715,2.6785715 0 1 1 31.517859,453.88004 A 2.6785715,2.6785715 0 1 1 36.875002,453.88004 z" transform="matrix(-0.9333333,0,0,-0.9333333,468.25377,815.21315)"/>
      <path transform="translate(363.42998,-98.429354)" d="M 67.142858,465.53183 A 13.080358,13.080358 0 1 1 40.982142,465.53183 A 13.080358,13.080358 0 1 1 67.142858,465.53183 z" id="path-9" style="font-size:10px;font-style:normal;font-variant:normal;font-weight:normal;font-stretch:normal;text-align:center;line-height:100%;writing-mode:lr-tb;text-anchor:middle;opacity:1;fill:#ffffff;fill-opacity:1;stroke:#000000;stroke-width:1;stroke-linecap:round;stroke-linejoin:round;stroke-miterlimit:4;stroke-dasharray:none;stroke-opacity:1;font-family:Fortune Letters;-inkscape-font-specification:Fortune Letters"/>
    </g>
    <g id="group-4" transform="matrix(1, 0, 0, 1, -182.505066, -5.325592)" style="font-size:10px;font-style:normal;font-variant:normal;font-weight:normal;font-stretch:normal;text-align:center;line-height:100%;writing-mode:lr-tb;text-anchor:middle;font-family:Fortune Letters;-inkscape-font-specification:Fortune Letters">
      <rect ry="2.0803924" y="335.45676" x="394.8884" height="63.291439" width="45.208172" id="rect-4" style="font-size:10px;font-style:normal;font-variant:normal;font-weight:normal;font-stretch:normal;text-align:center;line-height:100%;writing-mode:lr-tb;text-anchor:middle;fill:#ffffff;fill-opacity:1;fill-rule:nonzero;stroke:#000000;stroke-width:1;stroke-linecap:round;stroke-linejoin:round;stroke-miterlimit:4;stroke-dasharray:none;stroke-opacity:1;font-family:Fortune Letters;-inkscape-font-specification:Fortune Letters" rx="2.0803924"/>
      <path transform="matrix(0.9333333,0,0,0.9333333,366.7312,-81.008194)" d="M 36.875002,453.88004 A 2.6785715,2.6785715 0 1 1 31.517859,453.88004 A 2.6785715,2.6785715 0 1 1 36.875002,453.88004 z" id="path-10" style="font-size:10.71428585px;font-style:normal;font-variant:normal;font-weight:normal;font-stretch:normal;text-align:center;line-height:100%;writing-mode:lr-tb;text-anchor:middle;fill:#ffffff;fill-opacity:0.33116886;stroke:#000000;stroke-width:1.07142854;stroke-linecap:round;stroke-linejoin:round;stroke-miterlimit:4;stroke-dasharray:none;stroke-opacity:1;font-family:Fortune Letters;-inkscape-font-specification:Fortune Letters"/>
      <path style="font-size:10.71428585px;font-style:normal;font-variant:normal;font-weight:normal;font-stretch:normal;text-align:center;line-height:100%;writing-mode:lr-tb;text-anchor:middle;fill:#ffffff;fill-opacity:0.33116886;stroke:#000000;stroke-width:1.07142854;stroke-linecap:round;stroke-linejoin:round;stroke-miterlimit:4;stroke-dasharray:none;stroke-opacity:1;font-family:Fortune Letters;-inkscape-font-specification:Fortune Letters" id="path-11" d="M 36.875002,453.88004 A 2.6785715,2.6785715 0 1 1 31.517859,453.88004 A 2.6785715,2.6785715 0 1 1 36.875002,453.88004 z" transform="matrix(-0.9333333,0,0,-0.9333333,468.25377,815.21315)"/>
      <path transform="translate(363.42998,-98.429354)" d="M 67.142858,465.53183 A 13.080358,13.080358 0 1 1 40.982142,465.53183 A 13.080358,13.080358 0 1 1 67.142858,465.53183 z" id="path-12" style="font-size:10px;font-style:normal;font-variant:normal;font-weight:normal;font-stretch:normal;text-align:center;line-height:100%;writing-mode:lr-tb;text-anchor:middle;opacity:1;fill:#ffffff;fill-opacity:1;stroke:#000000;stroke-width:1;stroke-linecap:round;stroke-linejoin:round;stroke-miterlimit:4;stroke-dasharray:none;stroke-opacity:1;font-family:Fortune Letters;-inkscape-font-specification:Fortune Letters"/>
    </g>
    <g id="group-5" transform="matrix(1, 0, 0, 1, -382.505066, -5.325592)" style="font-size:10px;font-style:normal;font-variant:normal;font-weight:normal;font-stretch:normal;text-align:center;line-height:100%;writing-mode:lr-tb;text-anchor:middle;font-family:Fortune Letters;-inkscape-font-specification:Fortune Letters">
      <rect ry="2.0803924" y="335.45676" x="394.8884" height="63.291439" width="45.208172" id="rect-5" style="font-size:10px;font-style:normal;font-variant:normal;font-weight:normal;font-stretch:normal;text-align:center;line-height:100%;writing-mode:lr-tb;text-anchor:middle;fill:#ffffff;fill-opacity:1;fill-rule:nonzero;stroke:#000000;stroke-width:1;stroke-linecap:round;stroke-linejoin:round;stroke-miterlimit:4;stroke-dasharray:none;stroke-opacity:1;font-family:Fortune Letters;-inkscape-font-specification:Fortune Letters" rx="2.0803924"/>
      <path transform="matrix(0.9333333,0,0,0.9333333,366.7312,-81.008194)" d="M 36.875002,453.88004 A 2.6785715,2.6785715 0 1 1 31.517859,453.88004 A 2.6785715,2.6785715 0 1 1 36.875002,453.88004 z" id="path-13" style="font-size:10.71428585px;font-style:normal;font-variant:normal;font-weight:normal;font-stretch:normal;text-align:center;line-height:100%;writing-mode:lr-tb;text-anchor:middle;fill:#ffffff;fill-opacity:0.33116886;stroke:#000000;stroke-width:1.07142854;stroke-linecap:round;stroke-linejoin:round;stroke-miterlimit:4;stroke-dasharray:none;stroke-opacity:1;font-family:Fortune Letters;-inkscape-font-specification:Fortune Letters"/>
      <path style="font-size:10.71428585px;font-style:normal;font-variant:normal;font-weight:normal;font-stretch:normal;text-align:center;line-height:100%;writing-mode:lr-tb;text-anchor:middle;fill:#ffffff;fill-opacity:0.33116886;stroke:#000000;stroke-width:1.07142854;stroke-linecap:round;stroke-linejoin:round;stroke-miterlimit:4;stroke-dasharray:none;stroke-opacity:1;font-family:Fortune Letters;-inkscape-font-specification:Fortune Letters" id="path-14" d="M 36.875002,453.88004 A 2.6785715,2.6785715 0 1 1 31.517859,453.88004 A 2.6785715,2.6785715 0 1 1 36.875002,453.88004 z" transform="matrix(-0.9333333,0,0,-0.9333333,468.25377,815.21315)"/>
      <path transform="translate(363.42998,-98.429354)" d="M 67.142858,465.53183 A 13.080358,13.080358 0 1 1 40.982142,465.53183 A 13.080358,13.080358 0 1 1 67.142858,465.53183 z" id="path-15" style="font-size:10px;font-style:normal;font-variant:normal;font-weight:normal;font-stretch:normal;text-align:center;line-height:100%;writing-mode:lr-tb;text-anchor:middle;opacity:1;fill:#ffffff;fill-opacity:1;stroke:#000000;stroke-width:1;stroke-linecap:round;stroke-linejoin:round;stroke-miterlimit:4;stroke-dasharray:none;stroke-opacity:1;font-family:Fortune Letters;-inkscape-font-specification:Fortune Letters"/>
    </g>
    <g id="group-6" transform="matrix(1, 0, 0, 1, -132.916718, -5.228027)" style="font-size:10px;font-style:normal;font-variant:normal;font-weight:normal;font-stretch:normal;text-align:center;line-height:100%;writing-mode:lr-tb;text-anchor:middle;font-family:Fortune Letters;-inkscape-font-specification:Fortune Letters">
      <rect ry="2.0803924" y="335.45676" x="394.8884" height="63.291439" width="45.208172" id="rect-6" style="font-size:10px;font-style:normal;font-variant:normal;font-weight:normal;font-stretch:normal;text-align:center;line-height:100%;writing-mode:lr-tb;text-anchor:middle;fill:#ffffff;fill-opacity:1;fill-rule:nonzero;stroke:#000000;stroke-width:1;stroke-linecap:round;stroke-linejoin:round;stroke-miterlimit:4;stroke-dasharray:none;stroke-opacity:1;font-family:Fortune Letters;-inkscape-font-specification:Fortune Letters" rx="2.0803924"/>
      <path transform="matrix(0.9333333,0,0,0.9333333,366.7312,-81.008194)" d="M 36.875002,453.88004 A 2.6785715,2.6785715 0 1 1 31.517859,453.88004 A 2.6785715,2.6785715 0 1 1 36.875002,453.88004 z" id="path-16" style="font-size:10.71428585px;font-style:normal;font-variant:normal;font-weight:normal;font-stretch:normal;text-align:center;line-height:100%;writing-mode:lr-tb;text-anchor:middle;fill:#ffffff;fill-opacity:0.33116886;stroke:#000000;stroke-width:1.07142854;stroke-linecap:round;stroke-linejoin:round;stroke-miterlimit:4;stroke-dasharray:none;stroke-opacity:1;font-family:Fortune Letters;-inkscape-font-specification:Fortune Letters"/>
      <path style="font-size:10.71428585px;font-style:normal;font-variant:normal;font-weight:normal;font-stretch:normal;text-align:center;line-height:100%;writing-mode:lr-tb;text-anchor:middle;fill:#ffffff;fill-opacity:0.33116886;stroke:#000000;stroke-width:1.07142854;stroke-linecap:round;stroke-linejoin:round;stroke-miterlimit:4;stroke-dasharray:none;stroke-opacity:1;font-family:Fortune Letters;-inkscape-font-specification:Fortune Letters" id="path-17" d="M 36.875002,453.88004 A 2.6785715,2.6785715 0 1 1 31.517859,453.88004 A 2.6785715,2.6785715 0 1 1 36.875002,453.88004 z" transform="matrix(-0.9333333,0,0,-0.9333333,468.25377,815.21315)"/>
      <path transform="translate(363.42998,-98.429354)" d="M 67.142858,465.53183 A 13.080358,13.080358 0 1 1 40.982142,465.53183 A 13.080358,13.080358 0 1 1 67.142858,465.53183 z" id="path-18" style="font-size:10px;font-style:normal;font-variant:normal;font-weight:normal;font-stretch:normal;text-align:center;line-height:100%;writing-mode:lr-tb;text-anchor:middle;opacity:1;fill:#ffffff;fill-opacity:1;stroke:#000000;stroke-width:1;stroke-linecap:round;stroke-linejoin:round;stroke-miterlimit:4;stroke-dasharray:none;stroke-opacity:1;font-family:Fortune Letters;-inkscape-font-specification:Fortune Letters"/>
    </g>
    <g id="group-7" transform="matrix(1, 0, 0, 1, 115.718285, 108.091972)">
      <rect style="fill:#ffffff;fill-opacity:1;fill-rule:nonzero;stroke:#000000;stroke-width:1;stroke-miterlimit:4;stroke-dasharray:8, 1;stroke-dashoffset:7.26;stroke-opacity:1" id="rect-7" width="45.208172" height="63.291439" x="96.665039" y="291.5481" ry="2.0803924" rx="2.0803924"/>
    </g>
    <g id="group-8" transform="matrix(1, 0, 0, 1, 165.100235, 107.785889)">
      <rect style="fill:#ffffff;fill-opacity:1;fill-rule:nonzero;stroke:#000000;stroke-width:1;stroke-miterlimit:4;stroke-dasharray:8, 1;stroke-dashoffset:7.26;stroke-opacity:1" id="rect-8" width="45.208172" height="63.291439" x="96.665039" y="291.5481" ry="2.0803924" rx="2.0803924"/>
    </g>
    <g id="group-9" transform="matrix(1, 0, 0, 1, 65.968185, 107.722229)">
      <rect style="fill:#ffffff;fill-opacity:1;fill-rule:nonzero;stroke:#000000;stroke-width:1;stroke-miterlimit:4;stroke-dasharray:8, 1;stroke-dashoffset:7.26;stroke-opacity:1" id="rect-9" width="45.208172" height="63.291439" x="96.665039" y="291.5481" ry="2.0803924" rx="2.0803924"/>
    </g>
    <g id="group-10" transform="matrix(1, 0, 0, 1, 15.718284, 107.686714)">
      <rect style="fill:#ffffff;fill-opacity:1;fill-rule:nonzero;stroke:#000000;stroke-width:1;stroke-miterlimit:4;stroke-dasharray:8, 1;stroke-dashoffset:7.26;stroke-opacity:1" id="rect-10" width="45.208172" height="63.291439" x="96.665039" y="291.5481" ry="2.0803924" rx="2.0803924"/>
    </g>
  </g>
  <g id="g3387" transform="matrix(1, 0, 0, 1, -285.174561, -298.748199)">
    <rect ry="2.0803924" y="335.45676" x="334.8884" height="63.291439" width="45.208172" id="rect3251" style="fill:#ffffff;fill-opacity:1;fill-rule:nonzero;stroke:#000000;stroke-width:1;stroke-linecap:round;stroke-linejoin:round;stroke-miterlimit:4;stroke-dasharray:none;stroke-opacity:1" rx="2.0803924"/>
    <rect transform="scale(-1,-1)" style="fill:#ffffff;fill-opacity:0;fill-rule:nonzero;stroke:#000000;stroke-width:1;stroke-linecap:round;stroke-linejoin:round;stroke-miterlimit:4;stroke-dasharray:none;stroke-opacity:1" id="rect3253" width="30.138792" height="46.715092" x="-372.56192" y="-390.45999"/>
    <path style="fill:#ffffff;fill-opacity:0.33116886;stroke:#000000;stroke-width:1.07142854;stroke-linecap:round;stroke-linejoin:round;stroke-miterlimit:4;stroke-dasharray:none;stroke-opacity:1" id="path3257" d="M 36.875002,453.88004 A 2.6785715,2.6785715 0 1 1 31.517859,453.88004 A 2.6785715,2.6785715 0 1 1 36.875002,453.88004 z" transform="matrix(0.9333333,0,0,0.9333333,306.7312,-71.008165)"/>
    <path transform="matrix(0.9333333,0,0,0.9333333,306.7312,-77.008194)" d="M 36.875002,453.88004 A 2.6785715,2.6785715 0 1 1 31.517859,453.88004 A 2.6785715,2.6785715 0 1 1 36.875002,453.88004 z" id="path3259" style="fill:#ffffff;fill-opacity:0.33116886;stroke:#000000;stroke-width:1.07142854;stroke-linecap:round;stroke-linejoin:round;stroke-miterlimit:4;stroke-dasharray:none;stroke-opacity:1"/>
    <path d="M 342.42312,372.41495 L 348.16214,367.95067 L 348.16214,381.16495 L 351.82285,376.25424 C 351.82285,376.25424 349.9148,384.41772 352.18,385.09352 C 354.4452,385.76932 356.19785,379.46852 356.19785,379.46852 L 359.85857,384.0221 C 361.44552,381.72619 363.36101,380.30638 365.66214,379.91495 C 366.09587,382.12368 365.86565,384.66438 368.07285,385.98638 L 372.56192,383.57567 M 372.56192,351.16495 L 367.62642,355.71852 C 368.0517,352.91651 368.37238,350.24003 367.62642,348.84352 C 366.02334,350.36817 364.36138,351.36287 362.98357,354.91495 C 362.77697,349.85428 358.23782,346.84024 356.46571,354.73638 C 354.66348,353.19072 353.24177,351.18844 352.62642,348.21852 C 352.22691,350.45924 352.07852,352.82552 352.62642,355.53995 C 350.75442,355.81275 349.01292,356.86851 347.37897,358.56957 C 348.23638,356.1136 349.24223,353.90504 350.80819,352.63 C 349.61004,351.25099 347.53132,352.80721 345.66214,353.66495 L 348.87642,349.55781 L 342.42312,349.55781" style="fill:none;fill-rule:evenodd;stroke:#000000;stroke-width:1px;stroke-linecap:round;stroke-linejoin:round;stroke-opacity:1" id="path16049"/>
    <path transform="matrix(-0.9333333,0,0,-0.9333333,408.25377,805.21312)" d="M 36.875002,453.88004 A 2.6785715,2.6785715 0 1 1 31.517859,453.88004 A 2.6785715,2.6785715 0 1 1 36.875002,453.88004 z" id="path3269" style="fill:#ffffff;fill-opacity:0.33116886;stroke:#000000;stroke-width:1.07142854;stroke-linecap:round;stroke-linejoin:round;stroke-miterlimit:4;stroke-dasharray:none;stroke-opacity:1"/>
    <path style="fill:#ffffff;fill-opacity:0.33116886;stroke:#000000;stroke-width:1.07142854;stroke-linecap:round;stroke-linejoin:round;stroke-miterlimit:4;stroke-dasharray:none;stroke-opacity:1" id="path3271" d="M 36.875002,453.88004 A 2.6785715,2.6785715 0 1 1 31.517859,453.88004 A 2.6785715,2.6785715 0 1 1 36.875002,453.88004 z" transform="matrix(-0.9333333,0,0,-0.9333333,408.25377,811.21315)"/>
    <path style="font-size:8px;font-style:normal;font-variant:normal;font-weight:normal;font-stretch:normal;text-align:center;line-height:100%;writing-mode:lr-tb;text-anchor:middle;fill:#000000;fill-opacity:1;stroke:none;stroke-width:1px;stroke-linecap:butt;stroke-linejoin:miter;stroke-opacity:1;font-family:Fortune Widgets;-inkscape-font-specification:Fortune Widgets" d="M 337.16019,338.31009 C 337.18688,338.22481 337.23091,338.15283 337.29227,338.09415 C 337.35363,338.03548 337.41763,337.99548 337.48428,337.97415 C 337.55093,337.95283 337.6136,337.95414 337.67227,337.97806 C 337.73095,338.00199 337.76826,338.05399 337.78421,338.13406 C 337.91214,338.04341 338.05211,337.97676 338.20413,337.93411 C 338.35615,337.89147 338.5135,337.86612 338.67618,337.85806 C 338.83885,337.85001 339.00153,337.85933 339.16422,337.88602 C 339.32689,337.91271 339.47757,337.95536 339.61624,338.01395 C 339.79218,338.08866 339.92418,338.20601 340.01224,338.366 C 340.10029,338.52599 340.17898,338.68599 340.24832,338.84598 C 340.30154,338.98465 340.31485,339.11934 340.28824,339.25003 C 340.26162,339.38073 340.20962,339.50475 340.13223,339.6221 C 340.05484,339.73945 339.95881,339.84745 339.84415,339.94608 C 339.72948,340.04471 339.61347,340.13138 339.49612,340.20609 C 339.72545,340.32344 339.91612,340.47944 340.06815,340.6741 C 340.22016,340.86877 340.30154,341.08605 340.31229,341.32596 C 340.31749,341.5714 340.27745,341.7821 340.19217,341.95804 C 340.10688,342.13398 339.98693,342.3153 339.83231,342.50198 C 339.7576,342.59264 339.66022,342.67532 339.54019,342.75003 C 339.42015,342.82474 339.30415,342.87544 339.19217,342.90213 C 339.09614,342.92345 339.01614,342.93944 338.95218,342.9501 C 338.88821,342.96076 338.82425,342.96609 338.76028,342.96609 C 338.70153,342.96609 338.64017,342.96076 338.5762,342.9501 C 338.51224,342.93944 338.43224,342.92345 338.33621,342.90213 C 338.18159,342.8647 338.05093,342.798 337.94424,342.70206 C 337.83755,342.60611 337.73091,342.50744 337.6243,342.40604 C 337.48563,342.27274 337.39627,342.12475 337.35623,341.96207 C 337.31619,341.79939 337.28283,341.63008 337.25613,341.45413 C 337.25093,341.37406 337.27099,341.2967 337.31631,341.22208 C 337.36164,341.14745 337.41763,341.09012 337.48428,341.05008 C 337.55093,341.01004 337.62157,340.99535 337.6962,341.00601 C 337.77082,341.01667 337.83483,341.06473 337.88821,341.15018 C 337.89896,341.23009 337.90831,341.30073 337.91629,341.36209 C 337.92426,341.42345 337.93493,341.48213 337.94827,341.53812 C 337.96162,341.59411 337.98029,341.64875 338.0043,341.70206 C 338.02831,341.75536 338.06424,341.814 338.11209,341.87796 C 338.17622,341.96862 338.25361,342.04731 338.34427,342.11404 C 338.43492,342.18078 338.53356,342.23278 338.64017,342.27005 C 338.76826,342.31269 338.89761,342.32335 339.02823,342.30203 C 339.15884,342.28071 339.27753,342.22472 339.38431,342.13406 C 339.50686,342.02209 339.58413,341.90343 339.61612,341.77811 C 339.6481,341.65278 339.6481,341.5301 339.61612,341.41006 C 339.58413,341.29003 339.5255,341.17537 339.44022,341.06607 C 339.35493,340.95678 339.25495,340.86612 339.14029,340.7941 C 339.02562,340.72208 338.90294,340.67142 338.77225,340.64212 C 338.64155,340.61283 338.51484,340.61413 338.39212,340.64603 C 338.30146,340.69941 338.21349,340.72342 338.1282,340.71805 C 338.11746,340.71805 338.10944,340.71671 338.10416,340.71402 C 338.09887,340.71134 338.09354,340.70999 338.08817,340.70999 C 338.01346,340.67809 337.96146,340.63948 337.93216,340.59415 C 337.90286,340.54882 337.8909,340.49816 337.89627,340.44217 C 337.90164,340.38618 337.92166,340.33149 337.95633,340.27811 C 337.991,340.22472 338.03226,340.17402 338.08011,340.12601 C 338.09085,340.12064 338.10155,340.11531 338.11221,340.11002 C 338.12287,340.10473 338.13357,340.0994 338.14432,340.09402 L 338.21609,340.022 C 338.28543,339.97399 338.35611,339.94734 338.42813,339.94205 C 338.50015,339.93676 338.5762,339.94478 338.65628,339.96609 C 338.7095,339.94478 338.79613,339.90877 338.91617,339.85806 C 339.0362,339.80737 339.15355,339.74601 339.26822,339.67398 C 339.38288,339.60196 339.47887,339.52197 339.55618,339.43399 C 339.63349,339.34602 339.6562,339.25939 339.6243,339.1741 C 339.59223,339.10477 339.56688,339.04345 339.54825,338.99014 C 339.52961,338.93684 339.50695,338.88883 339.48026,338.8461 C 339.45356,338.80338 339.42154,338.76334 339.38419,338.72598 C 339.34683,338.68863 339.29617,338.65132 339.23221,338.61404 C 339.1575,338.57141 339.05614,338.53808 338.92813,338.51407 C 338.80012,338.49007 338.6708,338.48205 338.54019,338.49002 C 338.40957,338.498 338.28958,338.52599 338.18021,338.57401 C 338.07083,338.62202 337.99751,338.69404 337.96024,338.79007 C 337.92296,338.85941 337.87226,338.92337 337.80814,338.98196 C 337.81351,339.0461 337.81753,339.11014 337.82022,339.1741 C 337.82291,339.23807 337.82693,339.29943 337.83231,339.35818 C 337.82156,339.4381 337.78954,339.51273 337.73624,339.58206 C 337.68293,339.6514 337.62161,339.70206 337.55228,339.73404 C 337.48294,339.76602 337.41495,339.77136 337.3483,339.75003 C 337.28165,339.72871 337.22692,339.66735 337.18411,339.56595 C 337.17353,339.36332 337.15758,339.15401 337.13626,338.93802 C 337.11494,338.72204 337.12291,338.51273 337.16019,338.31009 L 337.16019,338.31009 z" id="text3343"/>
    <path transform="scale(-1,-1)" style="font-size:8px;font-style:normal;font-variant:normal;font-weight:normal;font-stretch:normal;text-align:center;line-height:100%;writing-mode:lr-tb;text-anchor:middle;fill:#000000;fill-opacity:1;stroke:none;stroke-width:1px;stroke-linecap:butt;stroke-linejoin:miter;stroke-opacity:1;font-family:Fortune Widgets;-inkscape-font-specification:Fortune Widgets" d="M -377.82477,-395.89487 C -377.79808,-395.98015 -377.75405,-396.05213 -377.69269,-396.11081 C -377.63133,-396.16948 -377.56732,-396.20948 -377.50067,-396.2308 C -377.43402,-396.25212 -377.37136,-396.25082 -377.31268,-396.2269 C -377.25401,-396.20297 -377.2167,-396.15097 -377.20074,-396.07089 C -377.07282,-396.16155 -376.93284,-396.2282 -376.78082,-396.27084 C -376.62881,-396.31348 -376.47146,-396.33883 -376.30878,-396.34689 C -376.1461,-396.35495 -375.98342,-396.34563 -375.82074,-396.31894 C -375.65806,-396.29224 -375.50739,-396.2496 -375.36871,-396.19101 C -375.19277,-396.1163 -375.06077,-395.99895 -374.97272,-395.83896 C -374.88467,-395.67896 -374.80597,-395.51897 -374.73663,-395.35898 C -374.68341,-395.2203 -374.67011,-395.08562 -374.69672,-394.95493 C -374.72333,-394.82423 -374.77533,-394.7002 -374.85272,-394.58286 C -374.93012,-394.4655 -375.02615,-394.35751 -375.14081,-394.25888 C -375.25548,-394.16025 -375.37148,-394.07358 -375.48883,-393.99887 C -375.2595,-393.88152 -375.06883,-393.72551 -374.91681,-393.53085 C -374.76479,-393.33619 -374.68341,-393.11891 -374.67267,-392.879 C -374.66746,-392.63355 -374.7075,-392.42286 -374.79279,-392.24692 C -374.87808,-392.07097 -374.99803,-391.88966 -375.15265,-391.70297 C -375.22736,-391.61231 -375.32473,-391.52963 -375.44476,-391.45493 C -375.5648,-391.38022 -375.68081,-391.32952 -375.79279,-391.30283 C -375.88882,-391.2815 -375.96881,-391.26551 -376.03278,-391.25485 C -376.09674,-391.24419 -376.16071,-391.23886 -376.22467,-391.23886 C -376.28343,-391.23886 -376.34479,-391.24419 -376.40875,-391.25485 C -376.47272,-391.26551 -376.55272,-391.2815 -376.64874,-391.30283 C -376.80337,-391.34026 -376.93402,-391.40695 -377.04071,-391.5029 C -377.1474,-391.59885 -377.25405,-391.69752 -377.36066,-391.79892 C -377.49933,-391.93222 -377.58868,-392.08021 -377.62872,-392.24289 C -377.66876,-392.40557 -377.70213,-392.57488 -377.72882,-392.75082 C -377.73403,-392.8309 -377.71397,-392.90825 -377.66864,-392.98288 C -377.62331,-393.0575 -377.56732,-393.11484 -377.50067,-393.15488 C -377.43402,-393.19491 -377.36338,-393.2096 -377.28876,-393.19894 C -377.21413,-393.18828 -377.15013,-393.14023 -377.09674,-393.05478 C -377.086,-392.97486 -377.07664,-392.90422 -377.06866,-392.84286 C -377.06069,-392.7815 -377.05003,-392.72283 -377.03668,-392.66684 C -377.02334,-392.61085 -377.00466,-392.5562 -376.98065,-392.5029 C -376.95665,-392.44959 -376.92072,-392.39096 -376.87286,-392.327 C -376.80874,-392.23634 -376.73135,-392.15764 -376.64069,-392.09091 C -376.55003,-392.02418 -376.4514,-391.97218 -376.34479,-391.93491 C -376.2167,-391.89226 -376.08734,-391.8816 -375.95673,-391.90292 C -375.82611,-391.92424 -375.70742,-391.98023 -375.60065,-392.07089 C -375.47809,-392.18287 -375.40082,-392.30152 -375.36884,-392.42685 C -375.33686,-392.55217 -375.33686,-392.67485 -375.36884,-392.79489 C -375.40082,-392.91493 -375.45946,-393.02959 -375.54474,-393.13889 C -375.63003,-393.24818 -375.73,-393.33883 -375.84467,-393.41086 C -375.95933,-393.48288 -376.08201,-393.53354 -376.21271,-393.56284 C -376.34341,-393.59213 -376.47011,-393.59083 -376.59283,-393.55893 C -376.68349,-393.50554 -376.77147,-393.48153 -376.85675,-393.48691 C -376.86749,-393.48691 -376.87551,-393.48825 -376.8808,-393.49094 C -376.88609,-393.49362 -376.89142,-393.49496 -376.89679,-393.49496 C -376.9715,-393.52686 -377.0235,-393.56548 -377.0528,-393.61081 C -377.08209,-393.65614 -377.09406,-393.7068 -377.08868,-393.76279 C -377.08331,-393.81877 -377.06329,-393.87346 -377.02863,-393.92685 C -376.99396,-393.98023 -376.9527,-394.03093 -376.90485,-394.07895 C -376.89411,-394.08432 -376.8834,-394.08965 -376.87274,-394.09494 C -376.86208,-394.10023 -376.85138,-394.10556 -376.84064,-394.11093 L -376.76886,-394.18295 C -376.69953,-394.23096 -376.62885,-394.25762 -376.55682,-394.26291 C -376.4848,-394.2682 -376.40875,-394.26018 -376.32867,-394.23886 C -376.27545,-394.26018 -376.18882,-394.29619 -376.06879,-394.34689 C -375.94875,-394.39759 -375.8314,-394.45895 -375.71674,-394.53098 C -375.60207,-394.60299 -375.50609,-394.68299 -375.42877,-394.77097 C -375.35146,-394.85893 -375.32876,-394.94556 -375.36066,-395.03085 C -375.39272,-395.10019 -375.41807,-395.16151 -375.43671,-395.21481 C -375.45535,-395.26811 -375.47801,-395.31613 -375.5047,-395.35886 C -375.5314,-395.40158 -375.56342,-395.44162 -375.60077,-395.47897 C -375.63813,-395.51632 -375.68878,-395.55364 -375.75275,-395.59091 C -375.82746,-395.63355 -375.92881,-395.66688 -376.05682,-395.69089 C -376.18484,-395.71489 -376.31415,-395.72291 -376.44476,-395.71494 C -376.57538,-395.70696 -376.69538,-395.67896 -376.80475,-395.63095 C -376.91412,-395.58293 -376.98745,-395.51091 -377.02472,-395.41489 C -377.06199,-395.34555 -377.11269,-395.28158 -377.17682,-395.22299 C -377.17145,-395.15886 -377.16742,-395.09481 -377.16473,-395.03085 C -377.16205,-394.96688 -377.15802,-394.90552 -377.15265,-394.84677 C -377.16339,-394.76685 -377.19542,-394.69223 -377.24872,-394.62289 C -377.30202,-394.55356 -377.36334,-394.5029 -377.43268,-394.47092 C -377.50201,-394.43893 -377.57001,-394.4336 -377.63666,-394.45493 C -377.70331,-394.47624 -377.75804,-394.5376 -377.80084,-394.63901 C -377.81142,-394.84164 -377.82737,-395.05095 -377.84869,-395.26694 C -377.87002,-395.48292 -377.86204,-395.69223 -377.82477,-395.89487 L -377.82477,-395.89487 z" id="text3347"/>
  </g>
</svg>