<?xml version="1.0" encoding="utf-8"?>
<svg xmlns="http://www.w3.org/2000/svg" width="500" viewBox="-5 30 305 150" id="svg9606" version="1.0">
  <g id="layer1" transform="matrix(1, 0, 0, 1, -12.383323, -293.422607)">
    <g id="g3381" transform="matrix(1, 0, 0, 1, -332.410095, -5.325592)" style="font-size:10px;font-style:normal;font-variant:normal;font-weight:normal;font-stretch:normal;text-align:center;line-height:100%;writing-mode:lr-tb;text-anchor:middle;font-family:Fortune Letters;-inkscape-font-specification:Fortune Letters">
      <rect ry="2.0803924" y="335.45676" x="394.8884" height="63.291439" width="45.208172" id="rect3359" style="font-size:10px;font-style:normal;font-variant:normal;font-weight:normal;font-stretch:normal;text-align:center;line-height:100%;writing-mode:lr-tb;text-anchor:middle;fill:#ffffff;fill-opacity:1;fill-rule:nonzero;stroke:#000000;stroke-width:1;stroke-linecap:round;stroke-linejoin:round;stroke-miterlimit:4;stroke-dasharray:none;stroke-opacity:1;font-family:Fortune Letters;-inkscape-font-specification:Fortune Letters" rx="2.0803924"/>
      <path transform="matrix(0.9333333,0,0,0.9333333,366.7312,-81.008194)" d="M 36.875002,453.88004 A 2.6785715,2.6785715 0 1 1 31.517859,453.88004 A 2.6785715,2.6785715 0 1 1 36.875002,453.88004 z" id="path3363" style="font-size:10.71428585px;font-style:normal;font-variant:normal;font-weight:normal;font-stretch:normal;text-align:center;line-height:100%;writing-mode:lr-tb;text-anchor:middle;fill:#ffffff;fill-opacity:0.33116886;stroke:#000000;stroke-width:1.07142854;stroke-linecap:round;stroke-linejoin:round;stroke-miterlimit:4;stroke-dasharray:none;stroke-opacity:1;font-family:Fortune Letters;-inkscape-font-specification:Fortune Letters"/>
      <path style="font-size:10.71428585px;font-style:normal;font-variant:normal;font-weight:normal;font-stretch:normal;text-align:center;line-height:100%;writing-mode:lr-tb;text-anchor:middle;fill:#ffffff;fill-opacity:0.33116886;stroke:#000000;stroke-width:1.07142854;stroke-linecap:round;stroke-linejoin:round;stroke-miterlimit:4;stroke-dasharray:none;stroke-opacity:1;font-family:Fortune Letters;-inkscape-font-specification:Fortune Letters" id="path3369" d="M 36.875002,453.88004 A 2.6785715,2.6785715 0 1 1 31.517859,453.88004 A 2.6785715,2.6785715 0 1 1 36.875002,453.88004 z" transform="matrix(-0.9333333,0,0,-0.9333333,468.25377,815.21315)"/>
      <path transform="translate(363.42998,-98.429354)" d="M 67.142858,465.53183 A 13.080358,13.080358 0 1 1 40.982142,465.53183 A 13.080358,13.080358 0 1 1 67.142858,465.53183 z" id="path3379" style="font-size:10px;font-style:normal;font-variant:normal;font-weight:normal;font-stretch:normal;text-align:center;line-height:100%;writing-mode:lr-tb;text-anchor:middle;opacity:1;fill:#ffffff;fill-opacity:1;stroke:#000000;stroke-width:1;stroke-linecap:round;stroke-linejoin:round;stroke-miterlimit:4;stroke-dasharray:none;stroke-opacity:1;font-family:Fortune Letters;-inkscape-font-specification:Fortune Letters"/>
    </g>
    <g id="g2636" transform="matrix(1, 0, 0, 1, -84.281715, 107.501228)">
      <rect style="fill:#ffffff;fill-opacity:1;fill-rule:nonzero;stroke:#000000;stroke-width:1;stroke-miterlimit:4;stroke-dasharray:8, 1;stroke-dashoffset:7.26;stroke-opacity:1" id="rect2638" width="45.208172" height="63.291439" x="96.665039" y="291.5481" ry="2.0803924" rx="2.0803924"/>
    </g>
    <g id="group-1" transform="matrix(1, 0, 0, 1, -282.505096, -5.325592)" style="font-size:10px;font-style:normal;font-variant:normal;font-weight:normal;font-stretch:normal;text-align:center;line-height:100%;writing-mode:lr-tb;text-anchor:middle;font-family:Fortune Letters;-inkscape-font-specification:Fortune Letters">
      <rect ry="2.0803924" y="335.45676" x="394.8884" height="63.291439" width="45.208172" id="rect-1" style="font-size:10px;font-style:normal;font-variant:normal;font-weight:normal;font-stretch:normal;text-align:center;line-height:100%;writing-mode:lr-tb;text-anchor:middle;fill:#ffffff;fill-opacity:1;fill-rule:nonzero;stroke:#000000;stroke-width:1;stroke-linecap:round;stroke-linejoin:round;stroke-miterlimit:4;stroke-dasharray:none;stroke-opacity:1;font-family:Fortune Letters;-inkscape-font-specification:Fortune Letters" rx="2.0803924"/>
      <path transform="matrix(0.9333333,0,0,0.9333333,366.7312,-81.008194)" d="M 36.875002,453.88004 A 2.6785715,2.6785715 0 1 1 31.517859,453.88004 A 2.6785715,2.6785715 0 1 1 36.875002,453.88004 z" id="path-1" style="font-size:10.71428585px;font-style:normal;font-variant:normal;font-weight:normal;font-stretch:normal;text-align:center;line-height:100%;writing-mode:lr-tb;text-anchor:middle;fill:#ffffff;fill-opacity:0.33116886;stroke:#000000;stroke-width:1.07142854;stroke-linecap:round;stroke-linejoin:round;stroke-miterlimit:4;stroke-dasharray:none;stroke-opacity:1;font-family:Fortune Letters;-inkscape-font-specification:Fortune Letters"/>
      <path style="font-size:10.71428585px;font-style:normal;font-variant:normal;font-weight:normal;font-stretch:normal;text-align:center;line-height:100%;writing-mode:lr-tb;text-anchor:middle;fill:#ffffff;fill-opacity:0.33116886;stroke:#000000;stroke-width:1.07142854;stroke-linecap:round;stroke-linejoin:round;stroke-miterlimit:4;stroke-dasharray:none;stroke-opacity:1;font-family:Fortune Letters;-inkscape-font-specification:Fortune Letters" id="path-2" d="M 36.875002,453.88004 A 2.6785715,2.6785715 0 1 1 31.517859,453.88004 A 2.6785715,2.6785715 0 1 1 36.875002,453.88004 z" transform="matrix(-0.9333333,0,0,-0.9333333,468.25377,815.21315)"/>
      <path transform="translate(363.42998,-98.429354)" d="M 67.142858,465.53183 A 13.080358,13.080358 0 1 1 40.982142,465.53183 A 13.080358,13.080358 0 1 1 67.142858,465.53183 z" id="path-3" style="font-size:10px;font-style:normal;font-variant:normal;font-weight:normal;font-stretch:normal;text-align:center;line-height:100%;writing-mode:lr-tb;text-anchor:middle;opacity:1;fill:#ffffff;fill-opacity:1;stroke:#000000;stroke-width:1;stroke-linecap:round;stroke-linejoin:round;stroke-miterlimit:4;stroke-dasharray:none;stroke-opacity:1;font-family:Fortune Letters;-inkscape-font-specification:Fortune Letters"/>
    </g>
    <g id="group-3" transform="matrix(1, 0, 0, 1, -232.560806, -5.325592)" style="font-size:10px;font-style:normal;font-variant:normal;font-weight:normal;font-stretch:normal;text-align:center;line-height:100%;writing-mode:lr-tb;text-anchor:middle;font-family:Fortune Letters;-inkscape-font-specification:Fortune Letters">
      <rect ry="2.0803924" y="335.45676" x="394.8884" height="63.291439" width="45.208172" id="rect-3" style="font-size:10px;font-style:normal;font-variant:normal;font-weight:normal;font-stretch:normal;text-align:center;line-height:100%;writing-mode:lr-tb;text-anchor:middle;fill:#ffffff;fill-opacity:1;fill-rule:nonzero;stroke:#000000;stroke-width:1;stroke-linecap:round;stroke-linejoin:round;stroke-miterlimit:4;stroke-dasharray:none;stroke-opacity:1;font-family:Fortune Letters;-inkscape-font-specification:Fortune Letters" rx="2.0803924"/>
      <path transform="matrix(0.9333333,0,0,0.9333333,366.7312,-81.008194)" d="M 36.875002,453.88004 A 2.6785715,2.6785715 0 1 1 31.517859,453.88004 A 2.6785715,2.6785715 0 1 1 36.875002,453.88004 z" id="path-7" style="font-size:10.71428585px;font-style:normal;font-variant:normal;font-weight:normal;font-stretch:normal;text-align:center;line-height:100%;writing-mode:lr-tb;text-anchor:middle;fill:#ffffff;fill-opacity:0.33116886;stroke:#000000;stroke-width:1.07142854;stroke-linecap:round;stroke-linejoin:round;stroke-miterlimit:4;stroke-dasharray:none;stroke-opacity:1;font-family:Fortune Letters;-inkscape-font-specification:Fortune Letters"/>
      <path style="font-size:10.71428585px;font-style:normal;font-variant:normal;font-weight:normal;font-stretch:normal;text-align:center;line-height:100%;writing-mode:lr-tb;text-anchor:middle;fill:#ffffff;fill-opacity:0.33116886;stroke:#000000;stroke-width:1.07142854;stroke-linecap:round;stroke-linejoin:round;stroke-miterlimit:4;stroke-dasharray:none;stroke-opacity:1;font-family:Fortune Letters;-inkscape-font-specification:Fortune Letters" id="path-8" d="M 36.875002,453.88004 A 2.6785715,2.6785715 0 1 1 31.517859,453.88004 A 2.6785715,2.6785715 0 1 1 36.875002,453.88004 z" transform="matrix(-0.9333333,0,0,-0.9333333,468.25377,815.21315)"/>
      <path transform="translate(363.42998,-98.429354)" d="M 67.142858,465.53183 A 13.080358,13.080358 0 1 1 40.982142,465.53183 A 13.080358,13.080358 0 1 1 67.142858,465.53183 z" id="path-9" style="font-size:10px;font-style:normal;font-variant:normal;font-weight:normal;font-stretch:normal;text-align:center;line-height:100%;writing-mode:lr-tb;text-anchor:middle;opacity:1;fill:#ffffff;fill-opacity:1;stroke:#000000;stroke-width:1;stroke-linecap:round;stroke-linejoin:round;stroke-miterlimit:4;stroke-dasharray:none;stroke-opacity:1;font-family:Fortune Letters;-inkscape-font-specification:Fortune Letters"/>
    </g>
    <g id="group-4" transform="matrix(1, 0, 0, 1, -182.505066, -5.325592)" style="font-size:10px;font-style:normal;font-variant:normal;font-weight:normal;font-stretch:normal;text-align:center;line-height:100%;writing-mode:lr-tb;text-anchor:middle;font-family:Fortune Letters;-inkscape-font-specification:Fortune Letters">
      <rect ry="2.0803924" y="335.45676" x="394.8884" height="63.291439" width="45.208172" id="rect-4" style="font-size:10px;font-style:normal;font-variant:normal;font-weight:normal;font-stretch:normal;text-align:center;line-height:100%;writing-mode:lr-tb;text-anchor:middle;fill:#ffffff;fill-opacity:1;fill-rule:nonzero;stroke:#000000;stroke-width:1;stroke-linecap:round;stroke-linejoin:round;stroke-miterlimit:4;stroke-dasharray:none;stroke-opacity:1;font-family:Fortune Letters;-inkscape-font-specification:Fortune Letters" rx="2.0803924"/>
      <path transform="matrix(0.9333333,0,0,0.9333333,366.7312,-81.008194)" d="M 36.875002,453.88004 A 2.6785715,2.6785715 0 1 1 31.517859,453.88004 A 2.6785715,2.6785715 0 1 1 36.875002,453.88004 z" id="path-10" style="font-size:10.71428585px;font-style:normal;font-variant:normal;font-weight:normal;font-stretch:normal;text-align:center;line-height:100%;writing-mode:lr-tb;text-anchor:middle;fill:#ffffff;fill-opacity:0.33116886;stroke:#000000;stroke-width:1.07142854;stroke-linecap:round;stroke-linejoin:round;stroke-miterlimit:4;stroke-dasharray:none;stroke-opacity:1;font-family:Fortune Letters;-inkscape-font-specification:Fortune Letters"/>
      <path style="font-size:10.71428585px;font-style:normal;font-variant:normal;font-weight:normal;font-stretch:normal;text-align:center;line-height:100%;writing-mode:lr-tb;text-anchor:middle;fill:#ffffff;fill-opacity:0.33116886;stroke:#000000;stroke-width:1.07142854;stroke-linecap:round;stroke-linejoin:round;stroke-miterlimit:4;stroke-dasharray:none;stroke-opacity:1;font-family:Fortune Letters;-inkscape-font-specification:Fortune Letters" id="path-11" d="M 36.875002,453.88004 A 2.6785715,2.6785715 0 1 1 31.517859,453.88004 A 2.6785715,2.6785715 0 1 1 36.875002,453.88004 z" transform="matrix(-0.9333333,0,0,-0.9333333,468.25377,815.21315)"/>
      <path transform="translate(363.42998,-98.429354)" d="M 67.142858,465.53183 A 13.080358,13.080358 0 1 1 40.982142,465.53183 A 13.080358,13.080358 0 1 1 67.142858,465.53183 z" id="path-12" style="font-size:10px;font-style:normal;font-variant:normal;font-weight:normal;font-stretch:normal;text-align:center;line-height:100%;writing-mode:lr-tb;text-anchor:middle;opacity:1;fill:#ffffff;fill-opacity:1;stroke:#000000;stroke-width:1;stroke-linecap:round;stroke-linejoin:round;stroke-miterlimit:4;stroke-dasharray:none;stroke-opacity:1;font-family:Fortune Letters;-inkscape-font-specification:Fortune Letters"/>
    </g>
    <g id="group-5" transform="matrix(1, 0, 0, 1, -382.505066, -5.325592)" style="font-size:10px;font-style:normal;font-variant:normal;font-weight:normal;font-stretch:normal;text-align:center;line-height:100%;writing-mode:lr-tb;text-anchor:middle;font-family:Fortune Letters;-inkscape-font-specification:Fortune Letters">
      <rect ry="2.0803924" y="335.45676" x="394.8884" height="63.291439" width="45.208172" id="rect-5" style="font-size:10px;font-style:normal;font-variant:normal;font-weight:normal;font-stretch:normal;text-align:center;line-height:100%;writing-mode:lr-tb;text-anchor:middle;fill:#ffffff;fill-opacity:1;fill-rule:nonzero;stroke:#000000;stroke-width:1;stroke-linecap:round;stroke-linejoin:round;stroke-miterlimit:4;stroke-dasharray:none;stroke-opacity:1;font-family:Fortune Letters;-inkscape-font-specification:Fortune Letters" rx="2.0803924"/>
      <path transform="matrix(0.9333333,0,0,0.9333333,366.7312,-81.008194)" d="M 36.875002,453.88004 A 2.6785715,2.6785715 0 1 1 31.517859,453.88004 A 2.6785715,2.6785715 0 1 1 36.875002,453.88004 z" id="path-13" style="font-size:10.71428585px;font-style:normal;font-variant:normal;font-weight:normal;font-stretch:normal;text-align:center;line-height:100%;writing-mode:lr-tb;text-anchor:middle;fill:#ffffff;fill-opacity:0.33116886;stroke:#000000;stroke-width:1.07142854;stroke-linecap:round;stroke-linejoin:round;stroke-miterlimit:4;stroke-dasharray:none;stroke-opacity:1;font-family:Fortune Letters;-inkscape-font-specification:Fortune Letters"/>
      <path style="font-size:10.71428585px;font-style:normal;font-variant:normal;font-weight:normal;font-stretch:normal;text-align:center;line-height:100%;writing-mode:lr-tb;text-anchor:middle;fill:#ffffff;fill-opacity:0.33116886;stroke:#000000;stroke-width:1.07142854;stroke-linecap:round;stroke-linejoin:round;stroke-miterlimit:4;stroke-dasharray:none;stroke-opacity:1;font-family:Fortune Letters;-inkscape-font-specification:Fortune Letters" id="path-14" d="M 36.875002,453.88004 A 2.6785715,2.6785715 0 1 1 31.517859,453.88004 A 2.6785715,2.6785715 0 1 1 36.875002,453.88004 z" transform="matrix(-0.9333333,0,0,-0.9333333,468.25377,815.21315)"/>
      <path transform="translate(363.42998,-98.429354)" d="M 67.142858,465.53183 A 13.080358,13.080358 0 1 1 40.982142,465.53183 A 13.080358,13.080358 0 1 1 67.142858,465.53183 z" id="path-15" style="font-size:10px;font-style:normal;font-variant:normal;font-weight:normal;font-stretch:normal;text-align:center;line-height:100%;writing-mode:lr-tb;text-anchor:middle;opacity:1;fill:#ffffff;fill-opacity:1;stroke:#000000;stroke-width:1;stroke-linecap:round;stroke-linejoin:round;stroke-miterlimit:4;stroke-dasharray:none;stroke-opacity:1;font-family:Fortune Letters;-inkscape-font-specification:Fortune Letters"/>
    </g>
    <g id="group-6" transform="matrix(1, 0, 0, 1, -132.718506, -5.325592)" style="font-size:10px;font-style:normal;font-variant:normal;font-weight:normal;font-stretch:normal;text-align:center;line-height:100%;writing-mode:lr-tb;text-anchor:middle;font-family:Fortune Letters;-inkscape-font-specification:Fortune Letters">
      <rect ry="2.0803924" y="335.45676" x="394.8884" height="63.291439" width="45.208172" id="rect-6" style="font-size:10px;font-style:normal;font-variant:normal;font-weight:normal;font-stretch:normal;text-align:center;line-height:100%;writing-mode:lr-tb;text-anchor:middle;fill:#ffffff;fill-opacity:1;fill-rule:nonzero;stroke:#000000;stroke-width:1;stroke-linecap:round;stroke-linejoin:round;stroke-miterlimit:4;stroke-dasharray:none;stroke-opacity:1;font-family:Fortune Letters;-inkscape-font-specification:Fortune Letters" rx="2.0803924"/>
      <path transform="matrix(0.9333333,0,0,0.9333333,366.7312,-81.008194)" d="M 36.875002,453.88004 A 2.6785715,2.6785715 0 1 1 31.517859,453.88004 A 2.6785715,2.6785715 0 1 1 36.875002,453.88004 z" id="path-16" style="font-size:10.71428585px;font-style:normal;font-variant:normal;font-weight:normal;font-stretch:normal;text-align:center;line-height:100%;writing-mode:lr-tb;text-anchor:middle;fill:#ffffff;fill-opacity:0.33116886;stroke:#000000;stroke-width:1.07142854;stroke-linecap:round;stroke-linejoin:round;stroke-miterlimit:4;stroke-dasharray:none;stroke-opacity:1;font-family:Fortune Letters;-inkscape-font-specification:Fortune Letters"/>
      <path style="font-size:10.71428585px;font-style:normal;font-variant:normal;font-weight:normal;font-stretch:normal;text-align:center;line-height:100%;writing-mode:lr-tb;text-anchor:middle;fill:#ffffff;fill-opacity:0.33116886;stroke:#000000;stroke-width:1.07142854;stroke-linecap:round;stroke-linejoin:round;stroke-miterlimit:4;stroke-dasharray:none;stroke-opacity:1;font-family:Fortune Letters;-inkscape-font-specification:Fortune Letters" id="path-17" d="M 36.875002,453.88004 A 2.6785715,2.6785715 0 1 1 31.517859,453.88004 A 2.6785715,2.6785715 0 1 1 36.875002,453.88004 z" transform="matrix(-0.9333333,0,0,-0.9333333,468.25377,815.21315)"/>
      <path transform="translate(363.42998,-98.429354)" d="M 67.142858,465.53183 A 13.080358,13.080358 0 1 1 40.982142,465.53183 A 13.080358,13.080358 0 1 1 67.142858,465.53183 z" id="path-18" style="font-size:10px;font-style:normal;font-variant:normal;font-weight:normal;font-stretch:normal;text-align:center;line-height:100%;writing-mode:lr-tb;text-anchor:middle;opacity:1;fill:#ffffff;fill-opacity:1;stroke:#000000;stroke-width:1;stroke-linecap:round;stroke-linejoin:round;stroke-miterlimit:4;stroke-dasharray:none;stroke-opacity:1;font-family:Fortune Letters;-inkscape-font-specification:Fortune Letters"/>
    </g>
    <g id="group-7" transform="matrix(1, 0, 0, 1, 115.718285, 108.091972)">
      <rect style="fill:#ffffff;fill-opacity:1;fill-rule:nonzero;stroke:#000000;stroke-width:1;stroke-miterlimit:4;stroke-dasharray:8, 1;stroke-dashoffset:7.26;stroke-opacity:1" id="rect-7" width="45.208172" height="63.291439" x="96.665039" y="291.5481" ry="2.0803924" rx="2.0803924"/>
    </g>
    <g id="group-8" transform="matrix(1, 0, 0, 1, 165.429214, 108.102425)">
      <rect style="fill:#ffffff;fill-opacity:1;fill-rule:nonzero;stroke:#000000;stroke-width:1;stroke-miterlimit:4;stroke-dasharray:8, 1;stroke-dashoffset:7.26;stroke-opacity:1" id="rect-8" width="45.208172" height="63.291439" x="96.665039" y="291.5481" ry="2.0803924" rx="2.0803924"/>
    </g>
    <g id="group-9" transform="matrix(1, 0, 0, 1, 65.389084, 107.722229)">
      <rect style="fill:#ffffff;fill-opacity:1;fill-rule:nonzero;stroke:#000000;stroke-width:1;stroke-miterlimit:4;stroke-dasharray:8, 1;stroke-dashoffset:7.26;stroke-opacity:1" id="rect-9" width="45.208172" height="63.291439" x="96.665039" y="291.5481" ry="2.0803924" rx="2.0803924"/>
    </g>
    <g id="group-10" transform="matrix(1, 0, 0, 1, 15.718284, 107.686714)">
      <rect style="fill:#ffffff;fill-opacity:1;fill-rule:nonzero;stroke:#000000;stroke-width:1;stroke-miterlimit:4;stroke-dasharray:8, 1;stroke-dashoffset:7.26;stroke-opacity:1" id="rect-10" width="45.208172" height="63.291439" x="96.665039" y="291.5481" ry="2.0803924" rx="2.0803924"/>
    </g>
    <g id="group-11" transform="matrix(1, 0, 0, 1, -34.135277, 107.369186)">
      <rect style="fill:#ffffff;fill-opacity:1;fill-rule:nonzero;stroke:#000000;stroke-width:1;stroke-miterlimit:4;stroke-dasharray:8, 1;stroke-dashoffset:7.26;stroke-opacity:1" id="rect-11" width="45.208172" height="63.291439" x="96.665039" y="291.5481" ry="2.0803924" rx="2.0803924"/>
    </g>
  </g>
</svg>