<?xml version="1.0" standalone="no"?>
<!DOCTYPE svg PUBLIC "-//W3C//DTD SVG 20010904//EN"
 "http://www.w3.org/TR/2001/REC-SVG-20010904/DTD/svg10.dtd">
<svg version="1.0" xmlns="http://www.w3.org/2000/svg"
 width="1023.000000pt" height="876.000000pt" viewBox="0 0 1023.000000 876.000000"
 preserveAspectRatio="xMidYMid meet">
<metadata>
Created by potrace 1.13, written by Peter Selinger 2001-2015
</metadata>
<g transform="translate(0.000000,876.000000) scale(0.100000,-0.100000)"
fill="#000000" stroke="none">
<path d="M7880 8520 c-267 -4 -712 -11 -990 -16 -278 -4 -1205 -9 -2060 -10
-855 -1 -1985 -6 -2510 -10 l-955 -7 -27 -29 c-22 -24 -32 -53 -53 -154 -42
-202 -88 -326 -165 -444 -16 -25 -33 -52 -37 -60 -28 -60 -181 -220 -285 -299
-77 -58 -261 -151 -300 -151 -18 -1 -62 -7 -98 -15 -36 -8 -83 -15 -105 -15
-22 -1 -56 -9 -75 -18 l-35 -17 3 -400 c2 -418 9 -786 17 -1015 3 -74 10 -277
16 -450 7 -187 12 -1073 14 -2173 1 -1082 6 -1862 11 -1867 5 -5 59 -13 119
-19 134 -12 237 -42 375 -109 109 -53 254 -150 305 -205 85 -93 134 -161 187
-266 85 -165 131 -316 144 -468 10 -107 14 -117 65 -126 43 -8 1226 -2 1479 8
200 8 522 14 1185 25 341 5 717 12 835 15 118 2 418 7 665 10 1708 20 2074 25
2735 36 333 6 608 13 611 15 11 7 29 91 29 138 0 98 57 297 130 452 96 206
266 362 510 468 53 22 261 86 282 86 11 0 41 7 69 16 44 15 50 20 60 58 15 53
3 592 -21 981 -4 72 -8 240 -9 375 -1 135 -6 304 -12 375 -12 160 -25 625 -29
1085 -7 645 -4 2183 5 2595 7 366 6 412 -8 426 -9 10 -59 22 -129 33 -183 28
-319 75 -453 157 -153 95 -312 274 -403 454 -70 138 -122 326 -122 441 0 98
10 94 -255 98 -127 2 -448 0 -715 -4z m639 -267 c45 -4 64 -11 68 -22 17 -52
100 -254 123 -301 126 -258 300 -457 535 -612 126 -82 211 -124 305 -148 77
-19 134 -42 155 -62 20 -18 20 -32 20 -1636 0 -1075 4 -1716 12 -1912 7 -162
15 -378 18 -480 9 -316 15 -1293 7 -1334 -8 -44 8 -34 -256 -162 -66 -31 -156
-85 -200 -118 -77 -58 -192 -160 -225 -200 -9 -10 -33 -38 -55 -61 -21 -24
-38 -47 -38 -52 -1 -4 -9 -14 -19 -21 -10 -7 -35 -38 -55 -70 -20 -31 -47 -73
-60 -92 -26 -40 -76 -148 -93 -200 -6 -19 -19 -75 -29 -125 l-18 -90 -59 -12
c-33 -7 -132 -15 -220 -17 -88 -3 -212 -7 -275 -9 -63 -3 -441 -6 -840 -7
-399 -1 -930 -6 -1180 -10 -250 -5 -666 -12 -925 -15 -258 -3 -555 -9 -660
-13 -104 -4 -293 -6 -420 -4 -325 3 -1307 1 -1510 -3 -93 -2 -353 -7 -577 -11
l-406 -7 -26 28 c-14 15 -31 46 -37 69 -22 87 -43 145 -90 245 -58 122 -152
272 -157 247 -2 -9 -7 -16 -12 -16 -12 0 -19 37 -8 48 11 11 -130 155 -237
241 -38 31 -83 69 -100 85 -33 31 -199 136 -215 136 -5 0 -34 11 -63 24 -30
13 -87 32 -127 42 -49 13 -75 25 -83 39 -7 14 -11 303 -13 955 -2 865 -5 1195
-19 1915 -3 149 -7 567 -10 930 -3 363 -8 870 -11 1127 l-7 466 29 15 c16 8
61 25 99 37 156 51 315 143 422 246 34 32 74 67 87 78 14 10 24 22 21 25 -2 4
25 34 61 66 35 32 64 64 64 71 0 6 7 14 15 17 14 6 29 27 119 166 60 94 127
235 166 348 15 47 34 89 41 94 23 14 248 19 1004 24 413 3 892 10 1065 15 173
5 947 10 1720 11 773 1 1689 5 2035 8 1011 11 1079 11 1144 4z"/>
<path d="M2118 7175 c-2 -1 -86 -5 -188 -9 -102 -4 -251 -9 -331 -12 -84 -3
-170 -1 -202 5 -31 5 -79 7 -106 4 l-50 -6 5 -111 c2 -61 6 -166 8 -234 2 -68
7 -126 10 -129 3 -3 89 -7 192 -8 110 -2 190 -7 196 -13 6 -6 11 -116 13 -290
2 -154 6 -285 9 -291 4 -5 8 -585 11 -1288 4 -1202 12 -1743 35 -2273 5 -124
12 -304 15 -400 3 -96 8 -222 12 -280 3 -58 5 -133 4 -168 -1 -34 3 -78 9 -96
l11 -33 182 -5 c211 -6 250 -3 243 21 -3 9 -10 129 -16 266 -7 138 -14 273
-16 300 -3 28 -6 450 -8 940 -4 1190 10 2388 29 2560 3 22 7 263 10 535 4 326
9 502 17 517 15 31 37 34 240 33 154 -1 183 1 197 15 13 13 17 47 19 206 2
105 1 202 -2 215 l-7 25 -147 -1 c-81 -1 -149 -1 -152 0 -8 3 -239 8 -242 5z"/>
<path d="M2950 7163 c0 -5 4 -57 10 -118 22 -241 28 -323 35 -475 3 -63 8
-144 10 -180 3 -36 7 -103 10 -150 3 -47 8 -101 10 -120 4 -31 25 -296 41
-520 9 -130 34 -404 39 -420 2 -8 7 -53 10 -100 3 -47 10 -137 15 -200 5 -63
11 -155 14 -205 8 -132 26 -390 32 -465 2 -36 13 -182 24 -325 11 -143 35
-431 54 -640 35 -371 40 -424 72 -752 8 -87 17 -178 20 -203 2 -25 8 -76 13
-115 6 -38 13 -104 17 -145 3 -41 10 -97 15 -125 9 -45 39 -321 39 -352 0 -7
7 -13 16 -13 8 0 13 4 10 9 -3 5 15 14 42 19 56 13 353 25 376 16 26 -10 19
-32 -11 -37 -23 -3 -21 -4 9 -6 37 -1 37 -1 43 47 3 26 13 83 20 127 20 112
32 203 45 330 6 60 20 159 30 220 10 60 21 135 25 165 6 63 13 104 26 175 12
67 40 244 44 275 1 14 12 71 24 128 11 57 21 118 21 136 0 38 28 126 40 126 5
0 11 -4 14 -9 9 -14 43 -220 55 -336 34 -309 60 -559 65 -625 4 -41 13 -160
22 -265 14 -181 33 -440 35 -477 0 -16 12 -18 100 -18 54 0 99 3 99 8 0 4 -40
5 -90 4 -84 -4 -90 -3 -90 16 0 26 26 29 243 31 115 1 167 -2 162 -9 -3 -6 4
-10 17 -10 20 -1 21 -2 5 -11 -9 -5 -21 -8 -26 -4 -5 3 -12 1 -16 -5 -4 -6 8
-10 29 -10 32 0 36 3 40 33 6 35 22 215 31 342 3 44 12 166 20 270 8 105 17
226 20 270 3 44 8 105 10 135 3 30 9 129 15 220 6 91 12 185 15 210 4 42 19
218 30 375 3 39 7 86 10 105 7 57 33 395 50 665 3 44 8 94 10 110 2 17 7 77
10 135 6 109 34 453 61 740 8 91 19 221 24 290 5 69 11 161 15 205 3 44 8 114
10 155 10 138 44 509 80 865 17 173 31 431 24 457 -4 13 -7 16 -8 7 -2 -31
-28 -39 -147 -44 -123 -6 -256 6 -262 25 -10 28 -21 3 -27 -62 -3 -40 -12
-131 -20 -203 -8 -71 -17 -161 -20 -200 -3 -38 -10 -108 -15 -155 -11 -108
-17 -165 -35 -375 -8 -93 -20 -215 -25 -270 -6 -55 -15 -154 -20 -220 -5 -66
-16 -176 -24 -245 -8 -69 -17 -154 -20 -190 -4 -36 -11 -96 -16 -135 -6 -38
-14 -117 -20 -175 -11 -121 -26 -180 -44 -180 -20 0 -44 71 -45 139 -1 36 -4
68 -6 71 -2 3 -6 37 -10 75 -4 39 -13 120 -21 180 -8 61 -17 142 -20 180 -3
39 -14 174 -24 300 -11 127 -24 304 -30 395 -6 91 -15 203 -20 250 -5 47 -14
153 -20 235 -9 130 -28 366 -46 573 -3 34 -9 62 -14 62 -4 0 -6 -8 -4 -17 10
-44 -7 -48 -171 -46 -150 2 -221 13 -237 37 -15 21 -25 -14 -27 -92 -2 -75
-26 -340 -56 -607 -8 -71 -17 -164 -20 -205 -3 -41 -10 -109 -15 -150 -19
-153 -66 -657 -74 -785 -10 -163 -51 -595 -60 -640 -3 -11 -5 -28 -5 -38 -1
-19 -36 -21 -37 -2 0 18 -14 147 -29 285 -14 120 -57 585 -70 745 -7 83 -34
500 -40 615 -3 52 -7 124 -10 160 -3 36 -7 112 -10 170 -5 98 -8 145 -20 345
-3 44 -8 110 -11 148 l-6 67 -37 -1 c-30 -2 -31 -3 -8 -6 15 -2 27 -8 27 -13
0 -16 -55 -21 -193 -15 -152 6 -246 23 -211 36 14 6 9 8 -18 8 -21 1 -38 -2
-38 -6z"/>
<path d="M5644 7114 c-3 -31 -4 -91 0 -133 3 -42 8 -278 11 -526 3 -247 7
-560 10 -695 3 -135 8 -407 10 -605 3 -198 7 -439 10 -535 7 -266 6 -2136 -1
-2632 l-7 -438 198 0 c109 0 195 3 192 7 -4 3 -88 5 -187 4 -153 -2 -179 0
-174 13 3 8 20 16 37 19 18 3 280 3 582 0 303 -3 575 -5 605 -5 30 1 78 -4
105 -11 47 -11 40 -12 -125 -17 l-175 -6 204 -2 204 -2 -6 87 c-13 184 -29
250 -65 264 -13 5 -166 9 -340 10 -174 1 -357 4 -407 8 l-90 6 -11 61 c-10 57
-15 228 -30 1114 -3 168 -8 384 -12 480 -11 274 -9 427 6 442 10 10 66 13 224
15 205 1 211 2 235 25 l24 23 -6 249 c-4 160 -10 259 -18 278 l-13 31 -206 1
c-128 1 -211 5 -217 11 -15 15 -30 173 -32 335 -1 74 -5 180 -9 235 -17 228
-26 571 -29 1080 -3 391 0 416 43 430 50 17 364 16 536 0 296 -29 313 -29 334
-6 16 18 17 31 7 193 -14 219 -17 238 -39 238 -14 0 -15 -2 -2 -10 26 -16 2
-24 -98 -31 -174 -12 -894 -15 -912 -4 -4 3 -10 -1 -13 -7 -4 -10 -7 -11 -18
0 -7 6 -24 12 -38 12 -21 0 -23 -2 -11 -11 11 -7 -21 -9 -110 -6 -138 5 -160
10 -160 38 0 17 11 19 143 22 l142 3 -147 2 -147 2 -7 -56z"/>
<path d="M7400 7112 c0 -26 4 -117 9 -202 13 -208 20 -430 26 -895 3 -214 8
-437 10 -495 3 -58 12 -467 21 -910 15 -761 14 -1873 -2 -2375 -14 -417 -20
-671 -16 -678 4 -9 1340 -1 1363 8 11 4 13 30 11 123 -2 64 -7 139 -10 166
l-7 49 -250 3 c-307 3 -560 12 -600 20 -16 4 -33 12 -38 18 -7 10 -5 125 8
566 3 85 4 378 2 650 -3 642 -2 750 6 780 12 48 34 55 272 79 55 6 111 13 124
16 32 8 63 45 56 64 -4 9 -6 102 -6 207 1 179 -9 288 -27 306 -5 5 -85 8 -178
8 -202 0 -230 4 -238 33 -3 12 -7 243 -10 512 -3 270 -8 528 -10 575 -9 176
-28 906 -25 930 4 24 7 25 109 32 58 4 259 10 448 14 335 6 343 7 354 28 8 14
11 79 9 206 -1 101 -3 185 -4 186 -1 1 -184 4 -407 7 -223 3 -373 2 -335 -2
l70 -7 -77 -2 c-47 -1 -78 2 -78 8 0 6 -4 10 -10 10 -6 0 -9 -6 -7 -12 1 -10
-50 -14 -228 -16 -248 -2 -280 0 -271 23 4 11 -3 15 -29 15 l-35 0 0 -48z"/>
<path d="M496 8372 c-3 -5 -22 -13 -41 -16 -35 -7 -45 -20 -22 -29 7 -4 4 -8
-9 -12 -27 -9 -49 -81 -35 -118 13 -33 24 -36 15 -3 -13 55 57 134 123 137
l28 1 -30 8 c-16 4 -25 9 -20 10 47 9 55 9 55 2 0 -4 9 -8 20 -9 35 -3 82 -44
102 -91 22 -48 19 -112 -8 -163 -29 -56 -113 -84 -178 -60 -36 14 -116 98
-117 124 -2 44 -4 50 -16 54 -17 6 -16 -22 2 -84 12 -39 26 -60 57 -85 39 -30
48 -33 114 -33 66 0 76 3 111 31 38 31 71 100 72 154 1 46 -44 127 -88 156
-42 28 -124 44 -135 26z"/>
<path d="M454 676 c-46 -21 -80 -72 -96 -149 -17 -74 -8 -127 21 -127 8 0 12
-3 8 -6 -12 -12 24 -64 48 -70 35 -9 154 5 186 22 15 7 41 32 58 56 82 111 0
275 -142 285 -31 2 -65 -2 -83 -11z m180 -39 c113 -86 68 -273 -70 -292 -84
-11 -144 35 -160 123 -3 17 -10 32 -14 32 -10 0 -8 20 3 38 5 6 5 17 2 22 -3
6 -1 10 5 10 6 0 9 4 6 9 -8 13 23 46 64 70 48 28 117 23 164 -12z"/>
</g>
</svg>
