<svg xmlns="http://www.w3.org/2000/svg" xmlns:xlink="http://www.w3.org/1999/xlink" xmlns:inkscape="http://www.inkscape.org/namespaces/inkscape" id="hexagons" version="1.1" height="8.825in" width="10.475in" viewBox="0 0 1627 1560" preserveAspectRatio="xMinYMin">
	<script type="text/ecmascript"><![CDATA[
		//Base element we're filling.
		selector = "polygon";
		canaryId = "h:1:1";

  		//Define the colors.
		borderColor = "#D2BC76";
		fillColors = new Array ("#705540","#FACF00","#1E5F00","#A3D000","#D78882","#DEDACA","#374049","#3893E0","#8000FF"); 
		                        // canyon   desert     forest   grass   flower    location, mountain, water, purple
		defaultColor = "#3893E0";

		function changeFill(evt) {
			//Click to change the color of a tile.
			var element = evt.target;
			if (element.getAttribute("fill") && element.getAttribute("fill") == defaultColor) {
				//Use a random color and return.
				randomFill(element);
			} else {
				element.setAttribute("fill",defaultColor);
			}
			return;
		}		

		function initFill() {
			//Initialize the board with locations and seed terrain, then fill in the rest.

			//If the board isn't blank (saved user output), don't initialize.
			if (document.getElementById(canaryId).getAttribute("fill")) 
				return;

			var baseElt = document.querySelector("svg");
			var elts = baseElt.querySelectorAll(selector);
			for (j = 0; j < elts.length; j++) {
				randomFill(elts[j]);
			}

			//Init the viewbox.
			//shape = document.getElementsByTagName("svg")[0];
			//shape.setAttribute("viewBox", "0 0 250 550"); 
		}

		function randomFill(element,colorArray) {
			//Fill in a tile at random from a provided color list (colorArray) or from the full color list.
			if (!colorArray || colorArray.length == 0) 
				colorArray = fillColors.slice(0);
			var index = Math.floor(colorArray.length*Math.random());
			setFillAndFilter(element,colorArray[index]);
		}

		function setFillAndFilter(element,color) {
			defaultColor = color;
			element.setAttribute("fill",color);
			element.setAttribute("stroke",borderColor);
		}

		//Onload.
		var baseElt = document.querySelector("svg");
		baseElt.addEventListener("load",function() {
			initFill();
			var elts = baseElt.querySelectorAll(selector);
			for (var i = 0, length = elts.length; i < length; i++) {
				elts[i].addEventListener("click",changeFill, false);
			}
		});

	]]></script>

<defs>
	<filter xmlns="http://www.w3.org/2000/svg" id="T4">
		<feTurbulence baseFrequency=".04" numOctaves="5" seed="201"/>
		<feComposite in2="SourceGraphic" operator="atop"/>
	</filter>

    <filter xmlns="http://www.w3.org/2000/svg" id="filter102c" inkscape:label="Diffuse light" xmlns:inkscape="http://www.inkscape.org/namespaces/inkscape" inkscape:menu="ABCs" inkscape:menu-tooltip="Basic diffuse bevel to use for building textures" color-interpolation-filters="sRGB">
      <feGaussianBlur stdDeviation="6" in="SourceGraphic" result="result0"/>
      <feTurbulence numOctaves="3" seed="24" type="turbulence" baseFrequency="0.25" result="result910"/>
      <feDisplacementMap in2="result910" scale="24" yChannelSelector="G" xChannelSelector="R" in="SourceGraphic"/>
      <feDiffuseLighting id="feDiffuseLighting106" diffuseConstant="1" surfaceScale="4" kernelUnitLength="1,1" result="result5">
        <feDistantLight id="feDistantLight108" elevation="55" azimuth="420"/>
      </feDiffuseLighting>
      <feComposite in2="SourceGraphic" k1="1.0" in="result5" result="result4" operator="arithmetic" k2="0" k3="0.8" k4="0"/>
    </filter>
    <filter xmlns="http://www.w3.org/2000/svg" id="filter102m" inkscape:label="Diffuse light" xmlns:inkscape="http://www.inkscape.org/namespaces/inkscape" inkscape:menu="ABCs" inkscape:menu-tooltip="Basic diffuse bevel to use for building textures" color-interpolation-filters="sRGB">
      <feGaussianBlur stdDeviation="6" in="SourceGraphic" result="result0"/>
      <feTurbulence numOctaves="3" seed="24" type="turbulence" baseFrequency="0.025" result="result910"/>
      <feDiffuseLighting diffuseConstant="1" surfaceScale="6" kernelUnitLength="1,1" result="result5">
        <feDistantLight elevation="45" azimuth="225"/>
      </feDiffuseLighting>
      <feComposite in2="SourceGraphic" k1="1" in="result5" result="result4" operator="arithmetic" k2="0" k3="0.6" k4="0"/>
    </filter>
    <filter xmlns="http://www.w3.org/2000/svg" id="filter134d" inkscape:label="Noise fill" xmlns:inkscape="http://www.inkscape.org/namespaces/inkscape" inkscape:menu="ABCs" inkscape:menu-tooltip="Basic noise fill texture; adjust color in Flood" color-interpolation-filters="sRGB">
      <feTurbulence id="feTurbulence136" numOctaves="3" baseFrequency="0.03" type="fractalNoise" seed="33"/>
      <feColorMatrix id="feColorMatrix138" result="result0" values="1 0 0 0 0 0 1 0 0 0 0 0 1 0 0 0 0 0 3 -1 "/>
      <feFlood id="feFlood140" flood-opacity="1" flood-color="#FAE61B" result="result1"/>
      <feBlend id="feBlend142" in2="SourceGraphic" mode="normal" in="result1" result="result2"/>
      <feComposite id="feComposite144" in2="result0" operator="out" result="result3"/>
      <feComposite id="feComposite146" in2="SourceGraphic" operator="atop"/>
    </filter>
    <filter xmlns="http://www.w3.org/2000/svg" id="filter134f" inkscape:label="Noise fill" xmlns:inkscape="http://www.inkscape.org/namespaces/inkscape" inkscape:menu="ABCs" inkscape:menu-tooltip="Basic noise fill texture, edited" color-interpolation-filters="sRGB">
      <feTurbulence id="feTurbulence136" numOctaves="5" baseFrequency="0.02" type="fractalNoise"/>
      <feColorMatrix id="feColorMatrix138" result="result0" values="1 0 0 0 0 0 1 0 0 0 0 0 1 0 0 0 0 0 3 -1 "/>
      <feFlood id="feFlood140" flood-opacity="1" flood-color="green" result="result1"/>
      <feBlend id="feBlend142" in2="SourceGraphic" mode="normal" in="result1" result="result2"/>
      <feComposite id="feComposite144" in2="result0" operator="out" result="result3"/>
      <feComposite id="feComposite146" in2="SourceGraphic" operator="atop"/>
    </filter>
    <filter xmlns="http://www.w3.org/2000/svg" id="filter134g" inkscape:label="Noise fill" xmlns:inkscape="http://www.inkscape.org/namespaces/inkscape" inkscape:menu="ABCs" inkscape:menu-tooltip="Basic noise fill texture, edited" color-interpolation-filters="sRGB">
      <feTurbulence id="feTurbulence136" numOctaves="7" baseFrequency="0.04" type="fractalNoise" seed="242"/>
      <feColorMatrix id="feColorMatrix138" result="result0" values="1 0 0 0 0 0 1 0 0 0 0 0 1 0 0 0 0 0 3 -1 "/>
      <feFlood id="feFlood140" flood-opacity="1" flood-color="#AADA00" result="result1"/>
      <feBlend id="feBlend142" in2="SourceGraphic" mode="normal" in="result1" result="result2"/>
      <feComposite id="feComposite144" in2="result0" operator="out" result="result3"/>
      <feComposite id="feComposite146" in2="SourceGraphic" operator="atop"/>
    </filter>
    <filter xmlns="http://www.w3.org/2000/svg" id="filter134w" inkscape:label="Noise fill" xmlns:inkscape="http://www.inkscape.org/namespaces/inkscape" inkscape:menu="ABCs" inkscape:menu-tooltip="Basic noise fill texture, edited" color-interpolation-filters="sRGB">
      <feTurbulence id="feTurbulence136" numOctaves="6" baseFrequency="0.03" type="fractalNoise" seed="201"/>
      <feColorMatrix id="feColorMatrix138" result="result0" values="1 0 0 0 0 0 1 0 0 0 0 0 1 0 0 0 0 0 3 -1 "/>
      <feFlood id="feFlood140" flood-opacity="1" flood-color="#3DA7FE" result="result1"/>
      <feBlend id="feBlend142" in2="SourceGraphic" mode="normal" in="result1" result="result2"/>
      <feComposite id="feComposite144" in2="result0" operator="out" result="result3"/>
      <feComposite id="feComposite146" in2="SourceGraphic" operator="atop"/>
    </filter>
    <filter xmlns="http://www.w3.org/2000/svg" id="filter162c" inkscape:label="Roughen" xmlns:inkscape="http://www.inkscape.org/namespaces/inkscape" inkscape:menu="ABCs" inkscape:menu-tooltip="Small-scale roughening to edges and content" color-interpolation-filters="sRGB">
      <feTurbulence id="feTurbulence164" numOctaves="3" seed="24" type="turbulence" baseFrequency="0.1" result="result91"/>
      <feDisplacementMap id="feDisplacementMap166" in2="result91" scale="24" yChannelSelector="G" xChannelSelector="R" in="SourceGraphic"/>
    </filter>
</defs>

<!--g transform="scale(0.645)"-->
  <g transform="translate(1817,-150)">
    <g transform="rotate(90)">
      <g style="fill:#d2bc76;cursor:pointer;">
	<polygon points="200,86.6 150,173 50,173 0,86.6 50,0 150,0 200,86.6" stroke="black" stroke-width="1" data-column="1" transform="translate(150,86.6)" data-row-right="0" data-edge="1" id="h:1:0"/>
	<polygon points="200,86.6 150,173 50,173 0,86.6 50,0 150,0 200,86.6" stroke="black" stroke-width="1" data-column="2" transform="translate(300,0)" data-row-right="-1" data-edge="1" id="h:2:-1"/>
	<polygon points="200,86.6 150,173 50,173 0,86.6 50,0 150,0 200,86.6" stroke="black" stroke-width="1" data-column="3" transform="translate(450,86.6)" data-row-right="-1" data-edge="1" id="h:3:-1"/>
	<polygon points="200,86.6 150,173 50,173 0,86.6 50,0 150,0 200,86.6" stroke="black" stroke-width="1" data-column="4" transform="translate(600,0)" data-row-right="-2" data-edge="1" id="h:4:-2"/>
	<polygon points="200,86.6 150,173 50,173 0,86.6 50,0 150,0 200,86.6" stroke="black" stroke-width="1" data-column="5" transform="translate(750,86.6)" data-row-right="-2" data-edge="1" id="h:5:-2"/>
	<polygon points="200,86.6 150,173 50,173 0,86.6 50,0 150,0 200,86.6" stroke="black" stroke-width="1" data-column="6" transform="translate(900,0)" data-row-right="-3" data-edge="1" id="h:6:-3"/>
	<polygon points="200,86.6 150,173 50,173 0,86.6 50,0 150,0 200,86.6" stroke="black" stroke-width="1" data-column="7" transform="translate(1050,86.6)" data-row-right="-3" data-edge="1" id="h:7:-3"/>
	<polygon points="200,86.6 150,173 50,173 0,86.6 50,0 150,0 200,86.6" stroke="black" stroke-width="1" data-column="8" transform="translate(1200,0)" data-row-right="-4" data-edge="1" id="h:8:-4"/>
	<polygon points="200,86.6 150,173 50,173 0,86.6 50,0 150,0 200,86.6" stroke="black" stroke-width="1" data-column="9" transform="translate(1350,86.6)" data-row-right="-4" data-edge="1" id="h:9:-4"/>
	<polygon points="200,86.6 150,173 50,173 0,86.6 50,0 150,0 200,86.6" stroke="black" stroke-width="1" data-column="10" transform="translate(1500,0)" data-row-right="-5" data-edge="1" id="h:10:-5"/>

	<polygon points="200,86.6 150,173 50,173 0,86.6 50,0 150,0 200,86.6" stroke="black" stroke-width="1" data-column="1" transform="translate(150,259.6)" data-row-right="1" data-edge="1" id="h:1:1"/>
	<polygon points="200,86.6 150,173 50,173 0,86.6 50,0 150,0 200,86.6" stroke="black" stroke-width="1" data-column="2" transform="translate(300,173)" data-row-right="0" data-edge="0" id="h:2:0"/>
	<polygon points="200,86.6 150,173 50,173 0,86.6 50,0 150,0 200,86.6" stroke="black" stroke-width="1" data-column="3" transform="translate(450,259.6)" data-row-right="0" data-edge="0" id="h:3:0"/>
	<polygon points="200,86.6 150,173 50,173 0,86.6 50,0 150,0 200,86.6" stroke="black" stroke-width="1" data-column="4" transform="translate(600,173)" data-row-right="-1" data-edge="0" id="h:4:-1"/>
	<polygon points="200,86.6 150,173 50,173 0,86.6 50,0 150,0 200,86.6" stroke="black" stroke-width="1" data-column="5" transform="translate(750,259.6)" data-row-right="-1" data-edge="0" id="h:5:-1"/>
	<polygon points="200,86.6 150,173 50,173 0,86.6 50,0 150,0 200,86.6" stroke="black" stroke-width="1" data-column="6" transform="translate(900,173)" data-row-right="-2" data-edge="0" id="h:6:-2"/>
	<polygon points="200,86.6 150,173 50,173 0,86.6 50,0 150,0 200,86.6" stroke="black" stroke-width="1" data-column="7" transform="translate(1050,259.6)" data-row-right="-2" data-edge="0" id="h:7:-2"/>
	<polygon points="200,86.6 150,173 50,173 0,86.6 50,0 150,0 200,86.6" stroke="black" stroke-width="1" data-column="8" transform="translate(1200,173)" data-row-right="-3" data-edge="0" id="h:8:-3"/>
	<polygon points="200,86.6 150,173 50,173 0,86.6 50,0 150,0 200,86.6" stroke="black" stroke-width="1" data-column="9" transform="translate(1350,259.6)" data-row-right="-3" data-edge="0" id="h:9:-3"/>
	<polygon points="200,86.6 150,173 50,173 0,86.6 50,0 150,0 200,86.6" stroke="black" stroke-width="1" data-column="10" transform="translate(1500,173)" data-row-right="-4" data-edge="1" id="h:10:-4"/>

	<polygon points="200,86.6 150,173 50,173 0,86.6 50,0 150,0 200,86.6" stroke="black" stroke-width="1" data-column="1" transform="translate(150,432.6)" data-row-right="2" data-edge="1" id="h:1:2"/>
	<polygon points="200,86.6 150,173 50,173 0,86.6 50,0 150,0 200,86.6" stroke="black" stroke-width="1" data-column="2" transform="translate(300,346)" data-row-right="1" data-edge="0" id="h:2:1"/>
	<polygon points="200,86.6 150,173 50,173 0,86.6 50,0 150,0 200,86.6" stroke="black" stroke-width="1" data-column="3" transform="translate(450,432.6)" data-row-right="1" data-edge="0" id="h:3:1"/>
	<polygon points="200,86.6 150,173 50,173 0,86.6 50,0 150,0 200,86.6" stroke="black" stroke-width="1" data-column="4" transform="translate(600,346)" data-row-right="0" data-edge="0" id="h:4:0"/>
	<polygon points="200,86.6 150,173 50,173 0,86.6 50,0 150,0 200,86.6" stroke="black" stroke-width="1" data-column="5" transform="translate(750,432.6)" data-row-right="0" data-edge="0" id="h:5:0"/>
	<polygon points="200,86.6 150,173 50,173 0,86.6 50,0 150,0 200,86.6" stroke="black" stroke-width="1" data-column="6" transform="translate(900,346)" data-row-right="-1" data-edge="0" id="h:6:-1"/>
	<polygon points="200,86.6 150,173 50,173 0,86.6 50,0 150,0 200,86.6" stroke="black" stroke-width="1" data-column="7" transform="translate(1050,432.6)" data-row-right="-1" data-edge="0" id="h:7:-1"/>
	<polygon points="200,86.6 150,173 50,173 0,86.6 50,0 150,0 200,86.6" stroke="black" stroke-width="1" data-column="8" transform="translate(1200,346)" data-row-right="-2" data-edge="0" id="h:8:-2"/>
	<polygon points="200,86.6 150,173 50,173 0,86.6 50,0 150,0 200,86.6" stroke="black" stroke-width="1" data-column="9" transform="translate(1350,432.6)" data-row-right="-2" data-edge="1" id="h:9:-2"/>
	<polygon points="200,86.6 150,173 50,173 0,86.6 50,0 150,0 200,86.6" stroke="black" stroke-width="1" data-column="10" transform="translate(1500,346)" data-row-right="-3" data-edge="1" id="h:10:-3"/>

	<polygon points="200,86.6 150,173 50,173 0,86.6 50,0 150,0 200,86.6" stroke="black" stroke-width="1" data-column="1" transform="translate(150,605.6)" data-row-right="3" data-edge="1" id="h:1:3"/>
	<polygon points="200,86.6 150,173 50,173 0,86.6 50,0 150,0 200,86.6" stroke="black" stroke-width="1" data-column="2" transform="translate(300,519)" data-row-right="2" data-edge="0" id="h:2:2"/>
	<polygon points="200,86.6 150,173 50,173 0,86.6 50,0 150,0 200,86.6" stroke="black" stroke-width="1" data-column="3" transform="translate(450,605.6)" data-row-right="2" data-edge="0" id="h:3:2"/>
	<polygon points="200,86.6 150,173 50,173 0,86.6 50,0 150,0 200,86.6" stroke="black" stroke-width="1" data-column="4" transform="translate(600,519)" data-row-right="1" data-edge="0" id="h:4:1"/>
	<polygon points="200,86.6 150,173 50,173 0,86.6 50,0 150,0 200,86.6" stroke="black" stroke-width="1" data-column="5" transform="translate(750,605.6)" data-row-right="1" data-edge="0" id="h:5:1"/>
	<polygon points="200,86.6 150,173 50,173 0,86.6 50,0 150,0 200,86.6" stroke="black" stroke-width="1" data-column="6" transform="translate(900,519)" data-row-right="0" data-edge="0" id="h:6:0"/>
	<polygon points="200,86.6 150,173 50,173 0,86.6 50,0 150,0 200,86.6" stroke="black" stroke-width="1" data-column="7" transform="translate(1050,605.6)" data-row-right="0" data-edge="0" id="h:7:0"/>
	<polygon points="200,86.6 150,173 50,173 0,86.6 50,0 150,0 200,86.6" stroke="black" stroke-width="1" data-column="8" transform="translate(1200,519)" data-row-right="-1" data-edge="0" id="h:8:-1"/>
	<polygon points="200,86.6 150,173 50,173 0,86.6 50,0 150,0 200,86.6" stroke="black" stroke-width="1" data-column="9" transform="translate(1350,605.6)" data-row-right="-1" data-edge="0" id="h:9:-1"/>
	<polygon points="200,86.6 150,173 50,173 0,86.6 50,0 150,0 200,86.6" stroke="black" stroke-width="1" data-column="10" transform="translate(1500,519)" data-row-right="-2" data-edge="1" id="h:10:-2"/>
	
	<polygon points="200,86.6 150,173 50,173 0,86.6 50,0 150,0 200,86.6" stroke="black" stroke-width="1" data-column="1" transform="translate(150,778.6)" data-row-right="4" data-edge="1" id="h:1:4"/>
	<polygon points="200,86.6 150,173 50,173 0,86.6 50,0 150,0 200,86.6" stroke="black" stroke-width="1" data-column="2" transform="translate(300,692)" data-row-right="3" data-edge="0" id="h:2:3"/>
	<polygon points="200,86.6 150,173 50,173 0,86.6 50,0 150,0 200,86.6" stroke="black" stroke-width="1" data-column="3" transform="translate(450,778.6)" data-row-right="3" data-edge="0" id="h:3:3"/>
	<polygon points="200,86.6 150,173 50,173 0,86.6 50,0 150,0 200,86.6" stroke="black" stroke-width="1" data-column="4" transform="translate(600,692)" data-row-right="2" data-edge="0" id="h:4:2"/>
	<polygon points="200,86.6 150,173 50,173 0,86.6 50,0 150,0 200,86.6" stroke="black" stroke-width="1" data-column="5" transform="translate(750,778.6)" data-row-right="2" data-edge="0" id="h:5:2"/>
	<polygon points="200,86.6 150,173 50,173 0,86.6 50,0 150,0 200,86.6" stroke="black" stroke-width="1" data-column="6" transform="translate(900,692)" data-row-right="1" data-edge="0" id="h:6:1"/>
	<polygon points="200,86.6 150,173 50,173 0,86.6 50,0 150,0 200,86.6" stroke="black" stroke-width="1" data-column="7" transform="translate(1050,778.6)" data-row-right="1" data-edge="0" id="h:7:1"/>
	<polygon points="200,86.6 150,173 50,173 0,86.6 50,0 150,0 200,86.6" stroke="black" stroke-width="1" data-column="8" transform="translate(1200,692)" data-row-right="0" data-edge="0" id="h:8:0"/>
	<polygon points="200,86.6 150,173 50,173 0,86.6 50,0 150,0 200,86.6" stroke="black" stroke-width="1" data-column="9" transform="translate(1350,778.6)" data-row-right="0" data-edge="0" id="h:9:0"/>
	<polygon points="200,86.6 150,173 50,173 0,86.6 50,0 150,0 200,86.6" stroke="black" stroke-width="1" data-column="10" transform="translate(1500,692)" data-row-right="-1" data-edge="1" id="h:10:-1"/>

	<polygon points="200,86.6 150,173 50,173 0,86.6 50,0 150,0 200,86.6" stroke="black" stroke-width="1" data-column="1" transform="translate(150,951.6)" data-row-right="5" data-edge="1" id="h:1:5"/>
	<polygon points="200,86.6 150,173 50,173 0,86.6 50,0 150,0 200,86.6" stroke="black" stroke-width="1" data-column="2" transform="translate(300,865)" data-row-right="4" data-edge="0" id="h:2:4"/>
	<polygon points="200,86.6 150,173 50,173 0,86.6 50,0 150,0 200,86.6" stroke="black" stroke-width="1" data-column="3" transform="translate(450,951.6)" data-row-right="4" data-edge="0" id="h:3:4"/>
	<polygon points="200,86.6 150,173 50,173 0,86.6 50,0 150,0 200,86.6" stroke="black" stroke-width="1" data-column="4" transform="translate(600,865)" data-row-right="3" data-edge="0" id="h:4:3"/>
	<polygon points="200,86.6 150,173 50,173 0,86.6 50,0 150,0 200,86.6" stroke="black" stroke-width="1" data-column="5" transform="translate(750,951.6)" data-row-right="3" data-edge="0" id="h:5:3"/>
	<polygon points="200,86.6 150,173 50,173 0,86.6 50,0 150,0 200,86.6" stroke="black" stroke-width="1" data-column="6" transform="translate(900,865)" data-row-right="2" data-edge="0" id="h:6:2"/>
	<polygon points="200,86.6 150,173 50,173 0,86.6 50,0 150,0 200,86.6" stroke="black" stroke-width="1" data-column="7" transform="translate(1050,951.6)" data-row-right="2" data-edge="0" id="h:7:2"/>
	<polygon points="200,86.6 150,173 50,173 0,86.6 50,0 150,0 200,86.6" stroke="black" stroke-width="1" data-column="8" transform="translate(1200,865)" data-row-right="1" data-edge="0" id="h:8:1"/>
	<polygon points="200,86.6 150,173 50,173 0,86.6 50,0 150,0 200,86.6" stroke="black" stroke-width="1" data-column="9" transform="translate(1350,951.6)" data-row-right="1" data-edge="0" id="h:9:1"/>
	<polygon points="200,86.6 150,173 50,173 0,86.6 50,0 150,0 200,86.6" stroke="black" stroke-width="1" data-column="10" transform="translate(1500,865)" data-row-right="0" data-edge="1" id="h:10:0"/>

	<polygon points="200,86.6 150,173 50,173 0,86.6 50,0 150,0 200,86.6" stroke="black" stroke-width="1" data-column="1" transform="translate(150,1124.6)" data-row-right="6" data-edge="1" id="h:1:6"/>
	<polygon points="200,86.6 150,173 50,173 0,86.6 50,0 150,0 200,86.6" stroke="black" stroke-width="1" data-column="2" transform="translate(300,1038)" data-row-right="5" data-edge="0" id="h:2:5"/>
	<polygon points="200,86.6 150,173 50,173 0,86.6 50,0 150,0 200,86.6" stroke="black" stroke-width="1" data-column="3" transform="translate(450,1124.6)" data-row-right="5" data-edge="0" id="h:3:5"/>
	<polygon points="200,86.6 150,173 50,173 0,86.6 50,0 150,0 200,86.6" stroke="black" stroke-width="1" data-column="4" transform="translate(600,1038)" data-row-right="4" data-edge="0" id="h:4:4"/>
	<polygon points="200,86.6 150,173 50,173 0,86.6 50,0 150,0 200,86.6" stroke="black" stroke-width="1" data-column="5" transform="translate(750,1124.6)" data-row-right="4" data-edge="0" id="h:5:4"/>
	<polygon points="200,86.6 150,173 50,173 0,86.6 50,0 150,0 200,86.6" stroke="black" stroke-width="1" data-column="6" transform="translate(900,1038)" data-row-right="3" data-edge="0" id="h:6:3"/>
	<polygon points="200,86.6 150,173 50,173 0,86.6 50,0 150,0 200,86.6" stroke="black" stroke-width="1" data-column="7" transform="translate(1050,1124.6)" data-row-right="3" data-edge="0" id="h:7:3"/>
	<polygon points="200,86.6 150,173 50,173 0,86.6 50,0 150,0 200,86.6" stroke="black" stroke-width="1" data-column="8" transform="translate(1200,1038)" data-row-right="2" data-edge="0" id="h:8:2"/>
	<polygon points="200,86.6 150,173 50,173 0,86.6 50,0 150,0 200,86.6" stroke="black" stroke-width="1" data-column="9" transform="translate(1350,1124.6)" data-row-right="2" data-edge="0" id="h:9:2"/>
	<polygon points="200,86.6 150,173 50,173 0,86.6 50,0 150,0 200,86.6" stroke="black" stroke-width="1" data-column="10" transform="translate(1500,1038)" data-row-right="1" data-edge="1" id="h:10:1"/>

	<polygon points="200,86.6 150,173 50,173 0,86.6 50,0 150,0 200,86.6" stroke="black" stroke-width="1" data-column="1" transform="translate(150,1297.6)" data-row-right="7" data-edge="1" id="h:1:7"/>
	<polygon points="200,86.6 150,173 50,173 0,86.6 50,0 150,0 200,86.6" stroke="black" stroke-width="1" data-column="2" transform="translate(300,1211)" data-row-right="6" data-edge="0" id="h:2:6"/>
	<polygon points="200,86.6 150,173 50,173 0,86.6 50,0 150,0 200,86.6" stroke="black" stroke-width="1" data-column="3" transform="translate(450,1297.6)" data-row-right="6" data-edge="0" id="h:3:6"/>
	<polygon points="200,86.6 150,173 50,173 0,86.6 50,0 150,0 200,86.6" stroke="black" stroke-width="1" data-column="4" transform="translate(600,1211)" data-row-right="5" data-edge="0" id="h:4:5"/>
	<polygon points="200,86.6 150,173 50,173 0,86.6 50,0 150,0 200,86.6" stroke="black" stroke-width="1" data-column="5" transform="translate(750,1297.6)" data-row-right="5" data-edge="0" id="h:5:5"/>
	<polygon points="200,86.6 150,173 50,173 0,86.6 50,0 150,0 200,86.6" stroke="black" stroke-width="1" data-column="6" transform="translate(900,1211)" data-row-right="4" data-edge="0" id="h:6:4"/>
	<polygon points="200,86.6 150,173 50,173 0,86.6 50,0 150,0 200,86.6" stroke="black" stroke-width="1" data-column="7" transform="translate(1050,1297.6)" data-row-right="4" data-edge="0" id="h:7:4"/>
	<polygon points="200,86.6 150,173 50,173 0,86.6 50,0 150,0 200,86.6" stroke="black" stroke-width="1" data-column="8" transform="translate(1200,1211)" data-row-right="3" data-edge="0" id="h:8:3"/>
	<polygon points="200,86.6 150,173 50,173 0,86.6 50,0 150,0 200,86.6" stroke="black" stroke-width="1" data-column="9" transform="translate(1350,1297.6)" data-row-right="3" data-edge="0" id="h:9:3"/>
	<polygon points="200,86.6 150,173 50,173 0,86.6 50,0 150,0 200,86.6" stroke="black" stroke-width="1" data-column="10" transform="translate(1500,1211)" data-row-right="2" data-edge="1" id="h:10:2"/>

	<polygon points="200,86.6 150,173 50,173 0,86.6 50,0 150,0 200,86.6" stroke="black" stroke-width="1" data-column="1" transform="translate(150,1470.6)" data-row-right="8" data-edge="1" id="h:1:8"/>
	<polygon points="200,86.6 150,173 50,173 0,86.6 50,0 150,0 200,86.6" stroke="black" stroke-width="1" data-column="2" transform="translate(300,1384)" data-row-right="7" data-edge="0" id="h:2:7"/>
	<polygon points="200,86.6 150,173 50,173 0,86.6 50,0 150,0 200,86.6" stroke="black" stroke-width="1" data-column="3" transform="translate(450,1470.6)" data-row-right="7" data-edge="0" id="h:3:7"/>
	<polygon points="200,86.6 150,173 50,173 0,86.6 50,0 150,0 200,86.6" stroke="black" stroke-width="1" data-column="4" transform="translate(600,1384)" data-row-right="6" data-edge="0" id="h:4:6"/>
	<polygon points="200,86.6 150,173 50,173 0,86.6 50,0 150,0 200,86.6" stroke="black" stroke-width="1" data-column="5" transform="translate(750,1470.6)" data-row-right="6" data-edge="0" id="h:5:6"/>
	<polygon points="200,86.6 150,173 50,173 0,86.6 50,0 150,0 200,86.6" stroke="black" stroke-width="1" data-column="6" transform="translate(900,1384)" data-row-right="5" data-edge="0" id="h:6:5"/>
	<polygon points="200,86.6 150,173 50,173 0,86.6 50,0 150,0 200,86.6" stroke="black" stroke-width="1" data-column="7" transform="translate(1050,1470.6)" data-row-right="5" data-edge="0" id="h:7:5"/>
	<polygon points="200,86.6 150,173 50,173 0,86.6 50,0 150,0 200,86.6" stroke="black" stroke-width="1" data-column="8" transform="translate(1200,1384)" data-row-right="4" data-edge="0" id="h:8:4"/>
	<polygon points="200,86.6 150,173 50,173 0,86.6 50,0 150,0 200,86.6" stroke="black" stroke-width="1" data-column="9" transform="translate(1350,1470.6)" data-row-right="4" data-edge="0" id="h:9:4"/>
	<polygon points="200,86.6 150,173 50,173 0,86.6 50,0 150,0 200,86.6" stroke="black" stroke-width="1" data-column="10" transform="translate(1500,1384)" data-row-right="3" data-edge="1" id="h:10:3"/>

	<polygon points="200,86.6 150,173 50,173 0,86.6 50,0 150,0 200,86.6" stroke="black" stroke-width="1" data-column="1" transform="translate(150,1643.6)" data-row-right="9" data-edge="1" id="h:1:9"/>
	<polygon points="200,86.6 150,173 50,173 0,86.6 50,0 150,0 200,86.6" stroke="black" stroke-width="1" data-column="2" transform="translate(300,1557)" data-row-right="8" data-edge="1" id="h:2:8"/>
	<polygon points="200,86.6 150,173 50,173 0,86.6 50,0 150,0 200,86.6" stroke="black" stroke-width="1" data-column="3" transform="translate(450,1643.6)" data-row-right="8" data-edge="1" id="h:3:8"/>
	<polygon points="200,86.6 150,173 50,173 0,86.6 50,0 150,0 200,86.6" stroke="black" stroke-width="1" data-column="4" transform="translate(600,1557)" data-row-right="7" data-edge="1" id="h:4:7"/>
	<polygon points="200,86.6 150,173 50,173 0,86.6 50,0 150,0 200,86.6" stroke="black" stroke-width="1" data-column="5" transform="translate(750,1643.6)" data-row-right="7" data-edge="1" id="h:5:7"/>
	<polygon points="200,86.6 150,173 50,173 0,86.6 50,0 150,0 200,86.6" stroke="black" stroke-width="1" data-column="6" transform="translate(900,1557)" data-row-right="6" data-edge="1" id="h:6:6"/>
	<polygon points="200,86.6 150,173 50,173 0,86.6 50,0 150,0 200,86.6" stroke="black" stroke-width="1" data-column="7" transform="translate(1050,1643.6)" data-row-right="6" data-edge="1" id="h:7:6"/>
	<polygon points="200,86.6 150,173 50,173 0,86.6 50,0 150,0 200,86.6" stroke="black" stroke-width="1" data-column="8" transform="translate(1200,1557)" data-row-right="5" data-edge="1" id="h:8:5"/>
	<polygon points="200,86.6 150,173 50,173 0,86.6 50,0 150,0 200,86.6" stroke="black" stroke-width="1" data-column="9" transform="translate(1350,1643.6)" data-row-right="5" data-edge="1" id="h:9:5"/>
	<polygon points="200,86.6 150,173 50,173 0,86.6 50,0 150,0 200,86.6" stroke="black" stroke-width="1" data-column="10" transform="translate(1500,1557)" data-row-right="4" data-edge="1" id="h:10:4"/>
      </g>
    </g>
  </g>
<!--/g-->
</svg>
