<?xml version="1.0" encoding="UTF-8" standalone="yes"?>
<!DOCTYPE svg PUBLIC "-//W3C//DTD SVG 1.1//EN"
 "http://www.w3.org/Graphics/SVG/1.1/DTD/svg11.dtd">
<!-- Generated by graphviz version 2.28.0 (20110507.0327)
 -->
<!-- Title: Can you survive a global blackout? Pages: 1 -->
<svg width="864pt" height="509pt"
 viewBox="0.00 0.00 864.00 508.80" xmlns="http://www.w3.org/2000/svg" xmlns:xlink="http://www.w3.org/1999/xlink">
<g id="graph1" class="graph" transform="scale(1 1) rotate(0) translate(4 504.8)">
<title>Can you survive a global blackout?</title>
<polygon fill="white" stroke="white" points="-4,5 -4,-504.8 861,-504.8 861,5 -4,5"/>
<text text-anchor="middle" x="428" y="-484.2" font-family="Times,serif" font-size="14.00">Can you survive a global blackout?</text>
<!-- 1 -->
<g id="node1" class="node"><title>1</title>
<a xlink:title="Out Go the Lights">
<ellipse fill="lightgrey" stroke="black" stroke-width="2" cx="392" cy="-454" rx="18" ry="18"/>
<ellipse fill="none" stroke="black" stroke-width="2" cx="392" cy="-454" rx="22" ry="22"/>
<text text-anchor="middle" x="392" y="-449.8" font-family="Times,serif" font-size="14.00">1</text>
</a>
</g>
<!-- 2 -->
<g id="node3" class="node"><title>2</title>
<a xlink:title="go with Tonya and Peter">
<ellipse fill="none" stroke="black" cx="298" cy="-378" rx="27" ry="18"/>
<text text-anchor="middle" x="298" y="-373.8" font-family="Times,serif" font-size="14.00">2</text>
</a>
</g>
<!-- 1&#45;&gt;2 -->
<g id="edge2" class="edge"><title>1&#45;&gt;2</title>
<path fill="none" stroke="black" d="M375.195,-439.77C360.715,-428.371 339.603,-411.752 323.117,-398.773"/>
<polygon fill="black" stroke="black" points="324.999,-395.8 314.977,-392.365 320.669,-401.3 324.999,-395.8"/>
</g>
<!-- 3 -->
<g id="node5" class="node"><title>3</title>
<a xlink:title="wait out the blackout">
<ellipse fill="none" stroke="black" cx="487" cy="-378" rx="27" ry="18"/>
<text text-anchor="middle" x="487" y="-373.8" font-family="Times,serif" font-size="14.00">3</text>
</a>
</g>
<!-- 1&#45;&gt;3 -->
<g id="edge4" class="edge"><title>1&#45;&gt;3</title>
<path fill="none" stroke="black" d="M408.984,-439.77C423.709,-428.3 445.219,-411.545 461.926,-398.532"/>
<polygon fill="black" stroke="black" points="464.425,-401.022 470.163,-392.115 460.123,-395.499 464.425,-401.022"/>
</g>
<!-- 4 -->
<g id="node7" class="node"><title>4</title>
<a xlink:title="take a detour to the bike shop">
<ellipse fill="none" stroke="black" cx="188" cy="-306" rx="27" ry="18"/>
<text text-anchor="middle" x="188" y="-301.8" font-family="Times,serif" font-size="14.00">4</text>
</a>
</g>
<!-- 2&#45;&gt;4 -->
<g id="edge6" class="edge"><title>2&#45;&gt;4</title>
<path fill="none" stroke="black" d="M278.839,-364.807C261.331,-353.665 235.241,-337.062 215.507,-324.504"/>
<polygon fill="black" stroke="black" points="217.257,-321.469 206.941,-319.053 213.499,-327.375 217.257,-321.469"/>
</g>
<!-- 5 -->
<g id="node9" class="node"><title>5</title>
<a xlink:title="stay on foot">
<ellipse fill="none" stroke="black" cx="298" cy="-306" rx="27" ry="18"/>
<text text-anchor="middle" x="298" y="-301.8" font-family="Times,serif" font-size="14.00">5</text>
</a>
</g>
<!-- 2&#45;&gt;5 -->
<g id="edge8" class="edge"><title>2&#45;&gt;5</title>
<path fill="none" stroke="black" d="M298,-359.697C298,-351.983 298,-342.712 298,-334.112"/>
<polygon fill="black" stroke="black" points="301.5,-334.104 298,-324.104 294.5,-334.104 301.5,-334.104"/>
</g>
<!-- 15 -->
<g id="node11" class="node"><title>15</title>
<a xlink:title="get to work collecting supplies">
<ellipse fill="none" stroke="black" cx="487" cy="-306" rx="27" ry="18"/>
<text text-anchor="middle" x="487" y="-301.8" font-family="Times,serif" font-size="14.00">15</text>
</a>
</g>
<!-- 3&#45;&gt;15 -->
<g id="edge10" class="edge"><title>3&#45;&gt;15</title>
<path fill="none" stroke="black" d="M487,-359.697C487,-351.983 487,-342.712 487,-334.112"/>
<polygon fill="black" stroke="black" points="490.5,-334.104 487,-324.104 483.5,-334.104 490.5,-334.104"/>
</g>
<!-- 16 -->
<g id="node13" class="node"><title>16</title>
<a xlink:title="conserve your energy">
<ellipse fill="none" stroke="black" cx="639" cy="-306" rx="27" ry="18"/>
<text text-anchor="middle" x="639" y="-301.8" font-family="Times,serif" font-size="14.00">16</text>
</a>
</g>
<!-- 3&#45;&gt;16 -->
<g id="edge12" class="edge"><title>3&#45;&gt;16</title>
<path fill="none" stroke="black" d="M508.778,-366.971C534.738,-355.015 578.311,-334.949 607.835,-321.352"/>
<polygon fill="black" stroke="black" points="609.643,-324.373 617.263,-317.011 606.715,-318.015 609.643,-324.373"/>
</g>
<!-- 6 -->
<g id="node15" class="node"><title>6</title>
<a xlink:title="side with Tonya">
<ellipse fill="none" stroke="black" cx="114" cy="-234" rx="27" ry="18"/>
<text text-anchor="middle" x="114" y="-229.8" font-family="Times,serif" font-size="14.00">6</text>
</a>
</g>
<!-- 4&#45;&gt;6 -->
<g id="edge14" class="edge"><title>4&#45;&gt;6</title>
<path fill="none" stroke="black" d="M173.025,-290.834C162.493,-280.872 148.218,-267.369 136.345,-256.137"/>
<polygon fill="black" stroke="black" points="138.623,-253.474 128.953,-249.144 133.812,-258.559 138.623,-253.474"/>
</g>
<!-- 7 -->
<g id="node17" class="node"><title>7</title>
<a xlink:title="side with Peter and take the bikes">
<polygon fill="lightgrey" stroke="black" stroke-width="2" points="190.648,-216.049 192.401,-216.148 194.136,-216.295 195.846,-216.491 197.523,-216.735 199.162,-217.027 200.755,-217.364 202.297,-217.748 203.782,-218.176 205.203,-218.647 206.557,-219.161 207.838,-219.715 209.042,-220.308 210.165,-220.939 211.203,-221.605 212.155,-222.306 213.018,-223.039 213.789,-223.801 214.468,-224.592 215.053,-225.408 215.545,-226.248 215.942,-227.109 216.247,-227.989 216.46,-228.886 216.581,-229.797 216.614,-230.719 216.56,-231.65 216.422,-232.587 216.202,-233.529 215.903,-234.471 215.529,-235.413 215.084,-236.35 214.57,-237.281 213.992,-238.203 213.353,-239.114 212.658,-240.011 211.909,-240.891 211.112,-241.752 210.27,-242.592 209.386,-243.408 208.464,-244.199 207.508,-244.961 206.522,-245.694 205.507,-246.395 204.469,-247.061 203.408,-247.692 202.328,-248.285 201.232,-248.839 200.121,-249.353 198.998,-249.824 197.865,-250.252 196.722,-250.636 195.573,-250.973 194.417,-251.265 193.256,-251.509 192.092,-251.705 190.925,-251.852 189.756,-251.951 188.585,-252 187.415,-252 186.244,-251.951 185.075,-251.852 183.908,-251.705 182.744,-251.509 181.583,-251.265 180.427,-250.973 179.278,-250.636 178.135,-250.252 177.002,-249.824 175.879,-249.353 174.768,-248.839 173.672,-248.285 172.592,-247.692 171.531,-247.061 170.493,-246.395 169.478,-245.694 168.492,-244.961 167.536,-244.199 166.614,-243.408 165.73,-242.592 164.888,-241.752 164.091,-240.891 163.342,-240.011 162.647,-239.114 162.008,-238.203 161.43,-237.281 160.916,-236.35 160.471,-235.413 160.097,-234.471 159.798,-233.529 159.578,-232.587 159.44,-231.65 159.386,-230.719 159.419,-229.797 159.54,-228.886 159.753,-227.989 160.058,-227.109 160.455,-226.248 160.947,-225.408 161.532,-224.592 162.211,-223.801 162.982,-223.039 163.845,-222.306 164.797,-221.605 165.835,-220.939 166.958,-220.308 168.162,-219.715 169.443,-219.161 170.797,-218.647 172.218,-218.176 173.703,-217.748 175.245,-217.364 176.838,-217.027 178.477,-216.735 180.154,-216.491 181.864,-216.295 183.599,-216.148 185.352,-216.049 187.116,-216 188.884,-216 190.648,-216.049"/>
<text text-anchor="middle" x="188" y="-229.8" font-family="Times,serif" font-size="14.00">7</text>
</a>
</g>
<!-- 4&#45;&gt;7 -->
<g id="edge16" class="edge"><title>4&#45;&gt;7</title>
<path fill="none" stroke="black" d="M188,-287.697C188,-279.983 188,-270.712 188,-262.112"/>
<polygon fill="black" stroke="black" points="191.5,-262.104 188,-252.104 184.5,-262.104 191.5,-262.104"/>
</g>
<!-- 12 -->
<g id="node19" class="node"><title>12</title>
<a xlink:title="investigate the crash">
<ellipse fill="none" stroke="black" cx="262" cy="-234" rx="27" ry="18"/>
<text text-anchor="middle" x="262" y="-229.8" font-family="Times,serif" font-size="14.00">12</text>
</a>
</g>
<!-- 5&#45;&gt;12 -->
<g id="edge18" class="edge"><title>5&#45;&gt;12</title>
<path fill="none" stroke="black" d="M289.65,-288.765C285.288,-280.283 279.853,-269.714 274.959,-260.197"/>
<polygon fill="black" stroke="black" points="277.99,-258.439 270.304,-251.147 271.765,-261.641 277.99,-258.439"/>
</g>
<!-- 13 -->
<g id="node21" class="node"><title>13</title>
<a xlink:title="continue on your way">
<ellipse fill="none" stroke="black" cx="334" cy="-234" rx="27" ry="18"/>
<text text-anchor="middle" x="334" y="-229.8" font-family="Times,serif" font-size="14.00">13</text>
</a>
</g>
<!-- 5&#45;&gt;13 -->
<g id="edge20" class="edge"><title>5&#45;&gt;13</title>
<path fill="none" stroke="black" d="M306.35,-288.765C310.712,-280.283 316.147,-269.714 321.041,-260.197"/>
<polygon fill="black" stroke="black" points="324.235,-261.641 325.696,-251.147 318.01,-258.439 324.235,-261.641"/>
</g>
<!-- 17 -->
<g id="node36" class="node"><title>17</title>
<a xlink:title="light a firecracker...">
<ellipse fill="none" stroke="black" cx="455" cy="-234" rx="27" ry="18"/>
<text text-anchor="middle" x="455" y="-229.8" font-family="Times,serif" font-size="14.00">17</text>
</a>
</g>
<!-- 15&#45;&gt;17 -->
<g id="edge36" class="edge"><title>15&#45;&gt;17</title>
<path fill="none" stroke="black" d="M479.416,-288.411C475.631,-280.129 470.966,-269.925 466.731,-260.662"/>
<polygon fill="black" stroke="black" points="469.87,-259.11 462.529,-251.47 463.504,-262.02 469.87,-259.11"/>
</g>
<!-- 18 -->
<g id="node38" class="node"><title>18</title>
<a xlink:title="hide">
<ellipse fill="none" stroke="black" cx="528" cy="-162" rx="27" ry="18"/>
<text text-anchor="middle" x="528" y="-157.8" font-family="Times,serif" font-size="14.00">18</text>
</a>
</g>
<!-- 15&#45;&gt;18 -->
<g id="edge38" class="edge"><title>15&#45;&gt;18</title>
<path fill="none" stroke="black" d="M491.864,-288.153C498.892,-263.813 511.956,-218.568 520.301,-189.665"/>
<polygon fill="black" stroke="black" points="523.731,-190.403 523.142,-179.825 517.005,-188.462 523.731,-190.403"/>
</g>
<!-- 27 -->
<g id="node40" class="node"><title>27</title>
<a xlink:title="head their direction to greet them">
<ellipse fill="none" stroke="black" cx="639" cy="-234" rx="27" ry="18"/>
<text text-anchor="middle" x="639" y="-229.8" font-family="Times,serif" font-size="14.00">27</text>
</a>
</g>
<!-- 16&#45;&gt;27 -->
<g id="edge40" class="edge"><title>16&#45;&gt;27</title>
<path fill="none" stroke="black" d="M639,-287.697C639,-279.983 639,-270.712 639,-262.112"/>
<polygon fill="black" stroke="black" points="642.5,-262.104 639,-252.104 635.5,-262.104 642.5,-262.104"/>
</g>
<!-- 28 -->
<g id="node42" class="node"><title>28</title>
<a xlink:title="get off the road where you can see who it is first">
<ellipse fill="none" stroke="black" cx="751" cy="-234" rx="27" ry="18"/>
<text text-anchor="middle" x="751" y="-229.8" font-family="Times,serif" font-size="14.00">28</text>
</a>
</g>
<!-- 16&#45;&gt;28 -->
<g id="edge42" class="edge"><title>16&#45;&gt;28</title>
<path fill="none" stroke="black" d="M657.999,-293.125C675.94,-281.913 703.051,-264.968 723.38,-252.263"/>
<polygon fill="black" stroke="black" points="725.283,-255.201 731.908,-246.933 721.573,-249.265 725.283,-255.201"/>
</g>
<!-- 8 -->
<g id="node23" class="node"><title>8</title>
<a xlink:title="stay in Mapleton">
<ellipse fill="none" stroke="black" cx="85" cy="-162" rx="27" ry="18"/>
<text text-anchor="middle" x="85" y="-157.8" font-family="Times,serif" font-size="14.00">8</text>
</a>
</g>
<!-- 6&#45;&gt;8 -->
<g id="edge22" class="edge"><title>6&#45;&gt;8</title>
<path fill="none" stroke="black" d="M107.127,-216.411C103.733,-208.216 99.5578,-198.14 95.7527,-188.955"/>
<polygon fill="black" stroke="black" points="98.8842,-187.369 91.8233,-179.47 92.4172,-190.048 98.8842,-187.369"/>
</g>
<!-- 9 -->
<g id="node25" class="node"><title>9</title>
<a xlink:title="return with Peter and Tonya">
<polygon fill="lightgrey" stroke="black" stroke-width="2" points="197.648,-72.0493 199.401,-72.1479 201.136,-72.2953 202.846,-72.4913 204.523,-72.7353 206.162,-73.0266 207.755,-73.3645 209.297,-73.7479 210.782,-74.1759 212.203,-74.6472 213.557,-75.1606 214.838,-75.7147 216.042,-76.308 217.165,-76.9388 218.203,-77.6054 219.155,-78.3059 220.018,-79.0385 220.789,-79.8012 221.468,-80.5918 222.053,-81.4082 222.545,-82.2481 222.942,-83.1093 223.247,-83.9894 223.46,-84.886 223.581,-85.7965 223.614,-86.7186 223.56,-87.6497 223.422,-88.5873 223.202,-89.5287 222.903,-90.4713 222.529,-91.4127 222.084,-92.3503 221.57,-93.2814 220.992,-94.2035 220.353,-95.114 219.658,-96.0106 218.909,-96.8907 218.112,-97.7519 217.27,-98.5918 216.386,-99.4082 215.464,-100.199 214.508,-100.961 213.522,-101.694 212.507,-102.395 211.469,-103.061 210.408,-103.692 209.328,-104.285 208.232,-104.839 207.121,-105.353 205.998,-105.824 204.865,-106.252 203.722,-106.636 202.573,-106.973 201.417,-107.265 200.256,-107.509 199.092,-107.705 197.925,-107.852 196.756,-107.951 195.585,-108 194.415,-108 193.244,-107.951 192.075,-107.852 190.908,-107.705 189.744,-107.509 188.583,-107.265 187.427,-106.973 186.278,-106.636 185.135,-106.252 184.002,-105.824 182.879,-105.353 181.768,-104.839 180.672,-104.285 179.592,-103.692 178.531,-103.061 177.493,-102.395 176.478,-101.694 175.492,-100.961 174.536,-100.199 173.614,-99.4082 172.73,-98.5918 171.888,-97.7519 171.091,-96.8907 170.342,-96.0106 169.647,-95.114 169.008,-94.2035 168.43,-93.2814 167.916,-92.3503 167.471,-91.4127 167.097,-90.4713 166.798,-89.5287 166.578,-88.5873 166.44,-87.6497 166.386,-86.7186 166.419,-85.7965 166.54,-84.886 166.753,-83.9894 167.058,-83.1093 167.455,-82.2481 167.947,-81.4082 168.532,-80.5918 169.211,-79.8012 169.982,-79.0385 170.845,-78.3059 171.797,-77.6054 172.835,-76.9388 173.958,-76.308 175.162,-75.7147 176.443,-75.1606 177.797,-74.6472 179.218,-74.1759 180.703,-73.7479 182.245,-73.3645 183.838,-73.0266 185.477,-72.7353 187.154,-72.4913 188.864,-72.2953 190.599,-72.1479 192.352,-72.0493 194.116,-72 195.884,-72 197.648,-72.0493"/>
<text text-anchor="middle" x="195" y="-85.8" font-family="Times,serif" font-size="14.00">9</text>
</a>
</g>
<!-- 6&#45;&gt;9 -->
<g id="edge24" class="edge"><title>6&#45;&gt;9</title>
<path fill="none" stroke="black" d="M121.519,-216.588C129.997,-198.472 144.499,-168.614 159,-144 164.905,-133.977 171.993,-123.299 178.312,-114.173"/>
<polygon fill="black" stroke="black" points="181.189,-116.166 184.071,-105.971 175.46,-112.143 181.189,-116.166"/>
</g>
<!-- 39 -->
<g id="node31" class="node"><title>39</title>
<a xlink:title="stick with Peter and Tonya">
<ellipse fill="none" stroke="black" cx="195" cy="-162" rx="27" ry="18"/>
<text text-anchor="middle" x="195" y="-157.8" font-family="Times,serif" font-size="14.00">39</text>
</a>
</g>
<!-- 12&#45;&gt;39 -->
<g id="edge30" class="edge"><title>12&#45;&gt;39</title>
<path fill="none" stroke="black" d="M248.118,-218.496C238.865,-208.829 226.529,-195.94 216.074,-185.017"/>
<polygon fill="black" stroke="black" points="218.308,-182.29 208.865,-177.485 213.251,-187.13 218.308,-182.29"/>
</g>
<!-- 14 -->
<g id="node33" class="node"><title>14</title>
<a xlink:title="bring Rita back to the university">
<polygon fill="lightgrey" stroke="black" stroke-width="2" points="271.648,-144.049 273.401,-144.148 275.136,-144.295 276.846,-144.491 278.523,-144.735 280.162,-145.027 281.755,-145.364 283.297,-145.748 284.782,-146.176 286.203,-146.647 287.557,-147.161 288.838,-147.715 290.042,-148.308 291.165,-148.939 292.203,-149.605 293.155,-150.306 294.018,-151.039 294.789,-151.801 295.468,-152.592 296.053,-153.408 296.545,-154.248 296.942,-155.109 297.247,-155.989 297.46,-156.886 297.581,-157.797 297.614,-158.719 297.56,-159.65 297.422,-160.587 297.202,-161.529 296.903,-162.471 296.529,-163.413 296.084,-164.35 295.57,-165.281 294.992,-166.203 294.353,-167.114 293.658,-168.011 292.909,-168.891 292.112,-169.752 291.27,-170.592 290.386,-171.408 289.464,-172.199 288.508,-172.961 287.522,-173.694 286.507,-174.395 285.469,-175.061 284.408,-175.692 283.328,-176.285 282.232,-176.839 281.121,-177.353 279.998,-177.824 278.865,-178.252 277.722,-178.636 276.573,-178.973 275.417,-179.265 274.256,-179.509 273.092,-179.705 271.925,-179.852 270.756,-179.951 269.585,-180 268.415,-180 267.244,-179.951 266.075,-179.852 264.908,-179.705 263.744,-179.509 262.583,-179.265 261.427,-178.973 260.278,-178.636 259.135,-178.252 258.002,-177.824 256.879,-177.353 255.768,-176.839 254.672,-176.285 253.592,-175.692 252.531,-175.061 251.493,-174.395 250.478,-173.694 249.492,-172.961 248.536,-172.199 247.614,-171.408 246.73,-170.592 245.888,-169.752 245.091,-168.891 244.342,-168.011 243.647,-167.114 243.008,-166.203 242.43,-165.281 241.916,-164.35 241.471,-163.413 241.097,-162.471 240.798,-161.529 240.578,-160.587 240.44,-159.65 240.386,-158.719 240.419,-157.797 240.54,-156.886 240.753,-155.989 241.058,-155.109 241.455,-154.248 241.947,-153.408 242.532,-152.592 243.211,-151.801 243.982,-151.039 244.845,-150.306 245.797,-149.605 246.835,-148.939 247.958,-148.308 249.162,-147.715 250.443,-147.161 251.797,-146.647 253.218,-146.176 254.703,-145.748 256.245,-145.364 257.838,-145.027 259.477,-144.735 261.154,-144.491 262.864,-144.295 264.599,-144.148 266.352,-144.049 268.116,-144 269.884,-144 271.648,-144.049"/>
<text text-anchor="middle" x="269" y="-157.8" font-family="Times,serif" font-size="14.00">14</text>
</a>
</g>
<!-- 12&#45;&gt;14 -->
<g id="edge32" class="edge"><title>12&#45;&gt;14</title>
<path fill="none" stroke="black" d="M263.73,-215.697C264.502,-207.983 265.429,-198.712 266.289,-190.112"/>
<polygon fill="black" stroke="black" points="269.777,-190.403 267.29,-180.104 262.812,-189.706 269.777,-190.403"/>
</g>
<!-- 13&#45;&gt;9 -->
<g id="edge34" class="edge"><title>13&#45;&gt;9</title>
<path fill="none" stroke="black" d="M332.674,-215.964C330.325,-196.455 323.842,-164.547 306,-144 285.941,-120.9 253.571,-107.057 228.95,-99.3434"/>
<polygon fill="black" stroke="black" points="229.849,-95.9595 219.268,-96.4961 227.874,-102.675 229.849,-95.9595"/>
</g>
<!-- 10 -->
<g id="node27" class="node"><title>10</title>
<a xlink:title="accept">
<polygon fill="lightgrey" stroke="black" stroke-width="2" points="105.648,-72.0493 107.401,-72.1479 109.136,-72.2953 110.846,-72.4913 112.523,-72.7353 114.162,-73.0266 115.755,-73.3645 117.297,-73.7479 118.782,-74.1759 120.203,-74.6472 121.557,-75.1606 122.838,-75.7147 124.042,-76.308 125.165,-76.9388 126.203,-77.6054 127.155,-78.3059 128.018,-79.0385 128.789,-79.8012 129.468,-80.5918 130.053,-81.4082 130.545,-82.2481 130.942,-83.1093 131.247,-83.9894 131.46,-84.886 131.581,-85.7965 131.614,-86.7186 131.56,-87.6497 131.422,-88.5873 131.202,-89.5287 130.903,-90.4713 130.529,-91.4127 130.084,-92.3503 129.57,-93.2814 128.992,-94.2035 128.353,-95.114 127.658,-96.0106 126.909,-96.8907 126.112,-97.7519 125.27,-98.5918 124.386,-99.4082 123.464,-100.199 122.508,-100.961 121.522,-101.694 120.507,-102.395 119.469,-103.061 118.408,-103.692 117.328,-104.285 116.232,-104.839 115.121,-105.353 113.998,-105.824 112.865,-106.252 111.722,-106.636 110.573,-106.973 109.417,-107.265 108.256,-107.509 107.092,-107.705 105.925,-107.852 104.756,-107.951 103.585,-108 102.415,-108 101.244,-107.951 100.075,-107.852 98.9081,-107.705 97.7438,-107.509 96.5832,-107.265 95.4275,-106.973 94.2777,-106.636 93.1353,-106.252 92.0018,-105.824 90.8787,-105.353 89.768,-104.839 88.6717,-104.285 87.592,-103.692 86.5314,-103.061 85.4925,-102.395 84.4783,-101.694 83.4917,-100.961 82.5359,-100.199 81.6143,-99.4082 80.7305,-98.5918 79.888,-97.7519 79.0907,-96.8907 78.3424,-96.0106 77.6469,-95.114 77.0081,-94.2035 76.43,-93.2814 75.9162,-92.3503 75.4707,-91.4127 75.0969,-90.4713 74.7984,-89.5287 74.5784,-88.5873 74.44,-87.6497 74.3859,-86.7186 74.4187,-85.7965 74.5404,-84.886 74.7529,-83.9894 75.0576,-83.1093 75.4554,-82.2481 75.9469,-81.4082 76.5322,-80.5918 77.211,-79.8012 77.9823,-79.0385 78.8448,-78.3059 79.7966,-77.6054 80.8355,-76.9388 81.9585,-76.308 83.1623,-75.7147 84.4431,-75.1606 85.7966,-74.6472 87.2182,-74.1759 88.7027,-73.7479 90.2446,-73.3645 91.838,-73.0266 93.4767,-72.7353 95.1543,-72.4913 96.8641,-72.2953 98.5991,-72.1479 100.352,-72.0493 102.116,-72 103.884,-72 105.648,-72.0493"/>
<text text-anchor="middle" x="103" y="-85.8" font-family="Times,serif" font-size="14.00">10</text>
</a>
</g>
<!-- 8&#45;&gt;10 -->
<g id="edge26" class="edge"><title>8&#45;&gt;10</title>
<path fill="none" stroke="black" d="M89.3573,-144.055C91.3914,-136.145 93.8612,-126.54 96.1374,-117.688"/>
<polygon fill="black" stroke="black" points="99.5821,-118.346 98.6828,-107.789 92.8026,-116.602 99.5821,-118.346"/>
</g>
<!-- 11 -->
<g id="node29" class="node"><title>11</title>
<a xlink:title="decline the invitation">
<polygon fill="lightgrey" stroke="black" stroke-width="2" points="30.6478,-72.0493 32.4009,-72.1479 34.1359,-72.2953 35.8457,-72.4913 37.5233,-72.7353 39.162,-73.0266 40.7554,-73.3645 42.2973,-73.7479 43.7818,-74.1759 45.2034,-74.6472 46.5569,-75.1606 47.8377,-75.7147 49.0415,-76.308 50.1645,-76.9388 51.2034,-77.6054 52.1552,-78.3059 53.0177,-79.0385 53.789,-79.8012 54.4678,-80.5918 55.0531,-81.4082 55.5446,-82.2481 55.9424,-83.1093 56.2471,-83.9894 56.4596,-84.886 56.5813,-85.7965 56.6141,-86.7186 56.56,-87.6497 56.4216,-88.5873 56.2016,-89.5287 55.9031,-90.4713 55.5293,-91.4127 55.0838,-92.3503 54.57,-93.2814 53.9919,-94.2035 53.3531,-95.114 52.6576,-96.0106 51.9093,-96.8907 51.112,-97.7519 50.2695,-98.5918 49.3857,-99.4082 48.4641,-100.199 47.5083,-100.961 46.5217,-101.694 45.5075,-102.395 44.4686,-103.061 43.408,-103.692 42.3283,-104.285 41.232,-104.839 40.1213,-105.353 38.9982,-105.824 37.8647,-106.252 36.7223,-106.636 35.5725,-106.973 34.4168,-107.265 33.2562,-107.509 32.0919,-107.705 30.9247,-107.852 29.7556,-107.951 28.5853,-108 27.4147,-108 26.2444,-107.951 25.0753,-107.852 23.9081,-107.705 22.7438,-107.509 21.5832,-107.265 20.4275,-106.973 19.2777,-106.636 18.1353,-106.252 17.0018,-105.824 15.8787,-105.353 14.768,-104.839 13.6717,-104.285 12.592,-103.692 11.5314,-103.061 10.4925,-102.395 9.47828,-101.694 8.49165,-100.961 7.53586,-100.199 6.61429,-99.4082 5.73046,-98.5918 4.88802,-97.7519 4.09072,-96.8907 3.34238,-96.0106 2.64689,-95.114 2.00813,-94.2035 1.42997,-93.2814 0.916243,-92.3503 0.470687,-91.4127 0.0969219,-90.4713 -0.201589,-89.5287 -0.421575,-88.5873 -0.559994,-87.6497 -0.614068,-86.7186 -0.581317,-85.7965 -0.459591,-84.886 -0.247098,-83.9894 0.0575627,-83.1093 0.455378,-82.2481 0.946899,-81.4082 1.53222,-80.5918 2.21096,-79.8012 2.98226,-79.0385 3.84477,-78.3059 4.79662,-77.6054 5.83547,-76.9388 6.95846,-76.308 8.16227,-75.7147 9.44309,-75.1606 10.7966,-74.6472 12.2182,-74.1759 13.7027,-73.7479 15.2446,-73.3645 16.838,-73.0266 18.4767,-72.7353 20.1543,-72.4913 21.8641,-72.2953 23.5991,-72.1479 25.3522,-72.0493 27.1162,-72 28.8838,-72 30.6478,-72.0493"/>
<text text-anchor="middle" x="28" y="-85.8" font-family="Times,serif" font-size="14.00">11</text>
</a>
</g>
<!-- 8&#45;&gt;11 -->
<g id="edge28" class="edge"><title>8&#45;&gt;11</title>
<path fill="none" stroke="black" d="M72.6318,-145.811C64.9844,-136.419 55.0264,-124.19 46.4573,-113.667"/>
<polygon fill="black" stroke="black" points="48.9817,-111.224 39.9534,-105.68 43.5537,-115.644 48.9817,-111.224"/>
</g>
<!-- 39&#45;&gt;9 -->
<g id="edge84" class="edge"><title>39&#45;&gt;9</title>
<path fill="none" stroke="black" d="M195,-143.697C195,-135.983 195,-126.712 195,-118.112"/>
<polygon fill="black" stroke="black" points="198.5,-118.104 195,-108.104 191.5,-118.104 198.5,-118.104"/>
</g>
<!-- 19 -->
<g id="node44" class="node"><title>19</title>
<a xlink:title="leave the cabin in search of people">
<ellipse fill="none" stroke="black" cx="455" cy="-162" rx="27" ry="18"/>
<text text-anchor="middle" x="455" y="-157.8" font-family="Times,serif" font-size="14.00">19</text>
</a>
</g>
<!-- 17&#45;&gt;19 -->
<g id="edge44" class="edge"><title>17&#45;&gt;19</title>
<path fill="none" stroke="black" d="M455,-215.697C455,-207.983 455,-198.712 455,-190.112"/>
<polygon fill="black" stroke="black" points="458.5,-190.104 455,-180.104 451.5,-190.104 458.5,-190.104"/>
</g>
<!-- 20 -->
<g id="node46" class="node"><title>20</title>
<a xlink:title="stick it out here">
<ellipse fill="none" stroke="black" cx="381" cy="-162" rx="27" ry="18"/>
<text text-anchor="middle" x="381" y="-157.8" font-family="Times,serif" font-size="14.00">20</text>
</a>
</g>
<!-- 17&#45;&gt;20 -->
<g id="edge46" class="edge"><title>17&#45;&gt;20</title>
<path fill="none" stroke="black" d="M440.025,-218.834C429.493,-208.872 415.218,-195.369 403.345,-184.137"/>
<polygon fill="black" stroke="black" points="405.623,-181.474 395.953,-177.144 400.812,-186.559 405.623,-181.474"/>
</g>
<!-- 38 -->
<g id="node48" class="node"><title>38</title>
<a xlink:title="attempt the long voyage home">
<ellipse fill="none" stroke="black" cx="641" cy="-90" rx="27" ry="18"/>
<text text-anchor="middle" x="641" y="-85.8" font-family="Times,serif" font-size="14.00">38</text>
</a>
</g>
<!-- 18&#45;&gt;38 -->
<g id="edge48" class="edge"><title>18&#45;&gt;38</title>
<path fill="none" stroke="black" d="M547.169,-149.125C565.27,-137.913 592.623,-120.968 613.133,-108.263"/>
<polygon fill="black" stroke="black" points="615.079,-111.174 621.737,-102.933 611.393,-105.224 615.079,-111.174"/>
</g>
<!-- 22 -->
<g id="node50" class="node"><title>22</title>
<a xlink:title="go west in search of your friends">
<ellipse fill="none" stroke="black" cx="528" cy="-90" rx="27" ry="18"/>
<text text-anchor="middle" x="528" y="-85.8" font-family="Times,serif" font-size="14.00">22</text>
</a>
</g>
<!-- 18&#45;&gt;22 -->
<g id="edge50" class="edge"><title>18&#45;&gt;22</title>
<path fill="none" stroke="black" d="M528,-143.697C528,-135.983 528,-126.712 528,-118.112"/>
<polygon fill="black" stroke="black" points="531.5,-118.104 528,-108.104 524.5,-118.104 531.5,-118.104"/>
</g>
<!-- 29 -->
<g id="node63" class="node"><title>29</title>
<a xlink:title="join Kyle&#39;s group in robbing the local cabins">
<polygon fill="lightgrey" stroke="black" stroke-width="2" points="604.648,-144.049 606.401,-144.148 608.136,-144.295 609.846,-144.491 611.523,-144.735 613.162,-145.027 614.755,-145.364 616.297,-145.748 617.782,-146.176 619.203,-146.647 620.557,-147.161 621.838,-147.715 623.042,-148.308 624.165,-148.939 625.203,-149.605 626.155,-150.306 627.018,-151.039 627.789,-151.801 628.468,-152.592 629.053,-153.408 629.545,-154.248 629.942,-155.109 630.247,-155.989 630.46,-156.886 630.581,-157.797 630.614,-158.719 630.56,-159.65 630.422,-160.587 630.202,-161.529 629.903,-162.471 629.529,-163.413 629.084,-164.35 628.57,-165.281 627.992,-166.203 627.353,-167.114 626.658,-168.011 625.909,-168.891 625.112,-169.752 624.27,-170.592 623.386,-171.408 622.464,-172.199 621.508,-172.961 620.522,-173.694 619.507,-174.395 618.469,-175.061 617.408,-175.692 616.328,-176.285 615.232,-176.839 614.121,-177.353 612.998,-177.824 611.865,-178.252 610.722,-178.636 609.573,-178.973 608.417,-179.265 607.256,-179.509 606.092,-179.705 604.925,-179.852 603.756,-179.951 602.585,-180 601.415,-180 600.244,-179.951 599.075,-179.852 597.908,-179.705 596.744,-179.509 595.583,-179.265 594.427,-178.973 593.278,-178.636 592.135,-178.252 591.002,-177.824 589.879,-177.353 588.768,-176.839 587.672,-176.285 586.592,-175.692 585.531,-175.061 584.493,-174.395 583.478,-173.694 582.492,-172.961 581.536,-172.199 580.614,-171.408 579.73,-170.592 578.888,-169.752 578.091,-168.891 577.342,-168.011 576.647,-167.114 576.008,-166.203 575.43,-165.281 574.916,-164.35 574.471,-163.413 574.097,-162.471 573.798,-161.529 573.578,-160.587 573.44,-159.65 573.386,-158.719 573.419,-157.797 573.54,-156.886 573.753,-155.989 574.058,-155.109 574.455,-154.248 574.947,-153.408 575.532,-152.592 576.211,-151.801 576.982,-151.039 577.845,-150.306 578.797,-149.605 579.835,-148.939 580.958,-148.308 582.162,-147.715 583.443,-147.161 584.797,-146.647 586.218,-146.176 587.703,-145.748 589.245,-145.364 590.838,-145.027 592.477,-144.735 594.154,-144.491 595.864,-144.295 597.599,-144.148 599.352,-144.049 601.116,-144 602.884,-144 604.648,-144.049"/>
<text text-anchor="middle" x="602" y="-157.8" font-family="Times,serif" font-size="14.00">29</text>
</a>
</g>
<!-- 27&#45;&gt;29 -->
<g id="edge64" class="edge"><title>27&#45;&gt;29</title>
<path fill="none" stroke="black" d="M630.418,-216.765C625.935,-208.283 620.349,-197.714 615.319,-188.197"/>
<polygon fill="black" stroke="black" points="618.302,-186.353 610.535,-179.147 612.114,-189.624 618.302,-186.353"/>
</g>
<!-- 30 -->
<g id="node65" class="node"><title>30</title>
<a xlink:title="refuse">
<polygon fill="lightgrey" stroke="black" stroke-width="2" points="679.648,-144.049 681.401,-144.148 683.136,-144.295 684.846,-144.491 686.523,-144.735 688.162,-145.027 689.755,-145.364 691.297,-145.748 692.782,-146.176 694.203,-146.647 695.557,-147.161 696.838,-147.715 698.042,-148.308 699.165,-148.939 700.203,-149.605 701.155,-150.306 702.018,-151.039 702.789,-151.801 703.468,-152.592 704.053,-153.408 704.545,-154.248 704.942,-155.109 705.247,-155.989 705.46,-156.886 705.581,-157.797 705.614,-158.719 705.56,-159.65 705.422,-160.587 705.202,-161.529 704.903,-162.471 704.529,-163.413 704.084,-164.35 703.57,-165.281 702.992,-166.203 702.353,-167.114 701.658,-168.011 700.909,-168.891 700.112,-169.752 699.27,-170.592 698.386,-171.408 697.464,-172.199 696.508,-172.961 695.522,-173.694 694.507,-174.395 693.469,-175.061 692.408,-175.692 691.328,-176.285 690.232,-176.839 689.121,-177.353 687.998,-177.824 686.865,-178.252 685.722,-178.636 684.573,-178.973 683.417,-179.265 682.256,-179.509 681.092,-179.705 679.925,-179.852 678.756,-179.951 677.585,-180 676.415,-180 675.244,-179.951 674.075,-179.852 672.908,-179.705 671.744,-179.509 670.583,-179.265 669.427,-178.973 668.278,-178.636 667.135,-178.252 666.002,-177.824 664.879,-177.353 663.768,-176.839 662.672,-176.285 661.592,-175.692 660.531,-175.061 659.493,-174.395 658.478,-173.694 657.492,-172.961 656.536,-172.199 655.614,-171.408 654.73,-170.592 653.888,-169.752 653.091,-168.891 652.342,-168.011 651.647,-167.114 651.008,-166.203 650.43,-165.281 649.916,-164.35 649.471,-163.413 649.097,-162.471 648.798,-161.529 648.578,-160.587 648.44,-159.65 648.386,-158.719 648.419,-157.797 648.54,-156.886 648.753,-155.989 649.058,-155.109 649.455,-154.248 649.947,-153.408 650.532,-152.592 651.211,-151.801 651.982,-151.039 652.845,-150.306 653.797,-149.605 654.835,-148.939 655.958,-148.308 657.162,-147.715 658.443,-147.161 659.797,-146.647 661.218,-146.176 662.703,-145.748 664.245,-145.364 665.838,-145.027 667.477,-144.735 669.154,-144.491 670.864,-144.295 672.599,-144.148 674.352,-144.049 676.116,-144 677.884,-144 679.648,-144.049"/>
<text text-anchor="middle" x="677" y="-157.8" font-family="Times,serif" font-size="14.00">30</text>
</a>
</g>
<!-- 27&#45;&gt;30 -->
<g id="edge66" class="edge"><title>27&#45;&gt;30</title>
<path fill="none" stroke="black" d="M647.813,-216.765C652.418,-208.283 658.155,-197.714 663.321,-188.197"/>
<polygon fill="black" stroke="black" points="666.539,-189.606 668.234,-179.147 660.387,-186.266 666.539,-189.606"/>
</g>
<!-- 31 -->
<g id="node67" class="node"><title>31</title>
<a xlink:title="clear out and hope they don&#39;t take everything">
<ellipse fill="none" stroke="black" cx="751" cy="-162" rx="27" ry="18"/>
<text text-anchor="middle" x="751" y="-157.8" font-family="Times,serif" font-size="14.00">31</text>
</a>
</g>
<!-- 28&#45;&gt;31 -->
<g id="edge68" class="edge"><title>28&#45;&gt;31</title>
<path fill="none" stroke="black" d="M751,-215.697C751,-207.983 751,-198.712 751,-190.112"/>
<polygon fill="black" stroke="black" points="754.5,-190.104 751,-180.104 747.5,-190.104 754.5,-190.104"/>
</g>
<!-- 32 -->
<g id="node69" class="node"><title>32</title>
<a xlink:title="rush into the cabin to gather supplies">
<polygon fill="lightgrey" stroke="black" stroke-width="2" points="827.648,-144.049 829.401,-144.148 831.136,-144.295 832.846,-144.491 834.523,-144.735 836.162,-145.027 837.755,-145.364 839.297,-145.748 840.782,-146.176 842.203,-146.647 843.557,-147.161 844.838,-147.715 846.042,-148.308 847.165,-148.939 848.203,-149.605 849.155,-150.306 850.018,-151.039 850.789,-151.801 851.468,-152.592 852.053,-153.408 852.545,-154.248 852.942,-155.109 853.247,-155.989 853.46,-156.886 853.581,-157.797 853.614,-158.719 853.56,-159.65 853.422,-160.587 853.202,-161.529 852.903,-162.471 852.529,-163.413 852.084,-164.35 851.57,-165.281 850.992,-166.203 850.353,-167.114 849.658,-168.011 848.909,-168.891 848.112,-169.752 847.27,-170.592 846.386,-171.408 845.464,-172.199 844.508,-172.961 843.522,-173.694 842.507,-174.395 841.469,-175.061 840.408,-175.692 839.328,-176.285 838.232,-176.839 837.121,-177.353 835.998,-177.824 834.865,-178.252 833.722,-178.636 832.573,-178.973 831.417,-179.265 830.256,-179.509 829.092,-179.705 827.925,-179.852 826.756,-179.951 825.585,-180 824.415,-180 823.244,-179.951 822.075,-179.852 820.908,-179.705 819.744,-179.509 818.583,-179.265 817.427,-178.973 816.278,-178.636 815.135,-178.252 814.002,-177.824 812.879,-177.353 811.768,-176.839 810.672,-176.285 809.592,-175.692 808.531,-175.061 807.493,-174.395 806.478,-173.694 805.492,-172.961 804.536,-172.199 803.614,-171.408 802.73,-170.592 801.888,-169.752 801.091,-168.891 800.342,-168.011 799.647,-167.114 799.008,-166.203 798.43,-165.281 797.916,-164.35 797.471,-163.413 797.097,-162.471 796.798,-161.529 796.578,-160.587 796.44,-159.65 796.386,-158.719 796.419,-157.797 796.54,-156.886 796.753,-155.989 797.058,-155.109 797.455,-154.248 797.947,-153.408 798.532,-152.592 799.211,-151.801 799.982,-151.039 800.845,-150.306 801.797,-149.605 802.835,-148.939 803.958,-148.308 805.162,-147.715 806.443,-147.161 807.797,-146.647 809.218,-146.176 810.703,-145.748 812.245,-145.364 813.838,-145.027 815.477,-144.735 817.154,-144.491 818.864,-144.295 820.599,-144.148 822.352,-144.049 824.116,-144 825.884,-144 827.648,-144.049"/>
<text text-anchor="middle" x="825" y="-157.8" font-family="Times,serif" font-size="14.00">32</text>
</a>
</g>
<!-- 28&#45;&gt;32 -->
<g id="edge70" class="edge"><title>28&#45;&gt;32</title>
<path fill="none" stroke="black" d="M765.975,-218.834C776.645,-208.741 791.158,-195.013 803.122,-183.695"/>
<polygon fill="black" stroke="black" points="805.691,-186.083 810.551,-176.668 800.881,-180.997 805.691,-186.083"/>
</g>
<!-- 19&#45;&gt;22 -->
<g id="edge54" class="edge"><title>19&#45;&gt;22</title>
<path fill="none" stroke="black" d="M469.773,-146.834C480.162,-136.872 494.244,-123.369 505.957,-112.137"/>
<polygon fill="black" stroke="black" points="508.454,-114.592 513.249,-105.144 503.609,-109.539 508.454,-114.592"/>
</g>
<!-- 21 -->
<g id="node52" class="node"><title>21</title>
<a xlink:title="head for the small town nearby">
<polygon fill="lightgrey" stroke="black" stroke-width="2" points="456.648,-72.0493 458.401,-72.1479 460.136,-72.2953 461.846,-72.4913 463.523,-72.7353 465.162,-73.0266 466.755,-73.3645 468.297,-73.7479 469.782,-74.1759 471.203,-74.6472 472.557,-75.1606 473.838,-75.7147 475.042,-76.308 476.165,-76.9388 477.203,-77.6054 478.155,-78.3059 479.018,-79.0385 479.789,-79.8012 480.468,-80.5918 481.053,-81.4082 481.545,-82.2481 481.942,-83.1093 482.247,-83.9894 482.46,-84.886 482.581,-85.7965 482.614,-86.7186 482.56,-87.6497 482.422,-88.5873 482.202,-89.5287 481.903,-90.4713 481.529,-91.4127 481.084,-92.3503 480.57,-93.2814 479.992,-94.2035 479.353,-95.114 478.658,-96.0106 477.909,-96.8907 477.112,-97.7519 476.27,-98.5918 475.386,-99.4082 474.464,-100.199 473.508,-100.961 472.522,-101.694 471.507,-102.395 470.469,-103.061 469.408,-103.692 468.328,-104.285 467.232,-104.839 466.121,-105.353 464.998,-105.824 463.865,-106.252 462.722,-106.636 461.573,-106.973 460.417,-107.265 459.256,-107.509 458.092,-107.705 456.925,-107.852 455.756,-107.951 454.585,-108 453.415,-108 452.244,-107.951 451.075,-107.852 449.908,-107.705 448.744,-107.509 447.583,-107.265 446.427,-106.973 445.278,-106.636 444.135,-106.252 443.002,-105.824 441.879,-105.353 440.768,-104.839 439.672,-104.285 438.592,-103.692 437.531,-103.061 436.493,-102.395 435.478,-101.694 434.492,-100.961 433.536,-100.199 432.614,-99.4082 431.73,-98.5918 430.888,-97.7519 430.091,-96.8907 429.342,-96.0106 428.647,-95.114 428.008,-94.2035 427.43,-93.2814 426.916,-92.3503 426.471,-91.4127 426.097,-90.4713 425.798,-89.5287 425.578,-88.5873 425.44,-87.6497 425.386,-86.7186 425.419,-85.7965 425.54,-84.886 425.753,-83.9894 426.058,-83.1093 426.455,-82.2481 426.947,-81.4082 427.532,-80.5918 428.211,-79.8012 428.982,-79.0385 429.845,-78.3059 430.797,-77.6054 431.835,-76.9388 432.958,-76.308 434.162,-75.7147 435.443,-75.1606 436.797,-74.6472 438.218,-74.1759 439.703,-73.7479 441.245,-73.3645 442.838,-73.0266 444.477,-72.7353 446.154,-72.4913 447.864,-72.2953 449.599,-72.1479 451.352,-72.0493 453.116,-72 454.884,-72 456.648,-72.0493"/>
<text text-anchor="middle" x="454" y="-85.8" font-family="Times,serif" font-size="14.00">21</text>
</a>
</g>
<!-- 19&#45;&gt;21 -->
<g id="edge52" class="edge"><title>19&#45;&gt;21</title>
<path fill="none" stroke="black" d="M454.753,-143.697C454.643,-135.983 454.51,-126.712 454.387,-118.112"/>
<polygon fill="black" stroke="black" points="457.887,-118.053 454.244,-108.104 450.888,-118.153 457.887,-118.053"/>
</g>
<!-- 25 -->
<g id="node55" class="node"><title>25</title>
<a xlink:title="call out">
<polygon fill="lightgrey" stroke="black" stroke-width="2" points="306.648,-72.0493 308.401,-72.1479 310.136,-72.2953 311.846,-72.4913 313.523,-72.7353 315.162,-73.0266 316.755,-73.3645 318.297,-73.7479 319.782,-74.1759 321.203,-74.6472 322.557,-75.1606 323.838,-75.7147 325.042,-76.308 326.165,-76.9388 327.203,-77.6054 328.155,-78.3059 329.018,-79.0385 329.789,-79.8012 330.468,-80.5918 331.053,-81.4082 331.545,-82.2481 331.942,-83.1093 332.247,-83.9894 332.46,-84.886 332.581,-85.7965 332.614,-86.7186 332.56,-87.6497 332.422,-88.5873 332.202,-89.5287 331.903,-90.4713 331.529,-91.4127 331.084,-92.3503 330.57,-93.2814 329.992,-94.2035 329.353,-95.114 328.658,-96.0106 327.909,-96.8907 327.112,-97.7519 326.27,-98.5918 325.386,-99.4082 324.464,-100.199 323.508,-100.961 322.522,-101.694 321.507,-102.395 320.469,-103.061 319.408,-103.692 318.328,-104.285 317.232,-104.839 316.121,-105.353 314.998,-105.824 313.865,-106.252 312.722,-106.636 311.573,-106.973 310.417,-107.265 309.256,-107.509 308.092,-107.705 306.925,-107.852 305.756,-107.951 304.585,-108 303.415,-108 302.244,-107.951 301.075,-107.852 299.908,-107.705 298.744,-107.509 297.583,-107.265 296.427,-106.973 295.278,-106.636 294.135,-106.252 293.002,-105.824 291.879,-105.353 290.768,-104.839 289.672,-104.285 288.592,-103.692 287.531,-103.061 286.493,-102.395 285.478,-101.694 284.492,-100.961 283.536,-100.199 282.614,-99.4082 281.73,-98.5918 280.888,-97.7519 280.091,-96.8907 279.342,-96.0106 278.647,-95.114 278.008,-94.2035 277.43,-93.2814 276.916,-92.3503 276.471,-91.4127 276.097,-90.4713 275.798,-89.5287 275.578,-88.5873 275.44,-87.6497 275.386,-86.7186 275.419,-85.7965 275.54,-84.886 275.753,-83.9894 276.058,-83.1093 276.455,-82.2481 276.947,-81.4082 277.532,-80.5918 278.211,-79.8012 278.982,-79.0385 279.845,-78.3059 280.797,-77.6054 281.835,-76.9388 282.958,-76.308 284.162,-75.7147 285.443,-75.1606 286.797,-74.6472 288.218,-74.1759 289.703,-73.7479 291.245,-73.3645 292.838,-73.0266 294.477,-72.7353 296.154,-72.4913 297.864,-72.2953 299.599,-72.1479 301.352,-72.0493 303.116,-72 304.884,-72 306.648,-72.0493"/>
<text text-anchor="middle" x="304" y="-85.8" font-family="Times,serif" font-size="14.00">25</text>
</a>
</g>
<!-- 20&#45;&gt;25 -->
<g id="edge56" class="edge"><title>20&#45;&gt;25</title>
<path fill="none" stroke="black" d="M365.418,-146.834C354.064,-136.512 338.528,-122.389 325.923,-110.93"/>
<polygon fill="black" stroke="black" points="328.271,-108.334 318.517,-104.197 323.562,-113.514 328.271,-108.334"/>
</g>
<!-- 26 -->
<g id="node57" class="node"><title>26</title>
<a xlink:title="remain hidden behind locked doors">
<polygon fill="lightgrey" stroke="black" stroke-width="2" points="381.648,-72.0493 383.401,-72.1479 385.136,-72.2953 386.846,-72.4913 388.523,-72.7353 390.162,-73.0266 391.755,-73.3645 393.297,-73.7479 394.782,-74.1759 396.203,-74.6472 397.557,-75.1606 398.838,-75.7147 400.042,-76.308 401.165,-76.9388 402.203,-77.6054 403.155,-78.3059 404.018,-79.0385 404.789,-79.8012 405.468,-80.5918 406.053,-81.4082 406.545,-82.2481 406.942,-83.1093 407.247,-83.9894 407.46,-84.886 407.581,-85.7965 407.614,-86.7186 407.56,-87.6497 407.422,-88.5873 407.202,-89.5287 406.903,-90.4713 406.529,-91.4127 406.084,-92.3503 405.57,-93.2814 404.992,-94.2035 404.353,-95.114 403.658,-96.0106 402.909,-96.8907 402.112,-97.7519 401.27,-98.5918 400.386,-99.4082 399.464,-100.199 398.508,-100.961 397.522,-101.694 396.507,-102.395 395.469,-103.061 394.408,-103.692 393.328,-104.285 392.232,-104.839 391.121,-105.353 389.998,-105.824 388.865,-106.252 387.722,-106.636 386.573,-106.973 385.417,-107.265 384.256,-107.509 383.092,-107.705 381.925,-107.852 380.756,-107.951 379.585,-108 378.415,-108 377.244,-107.951 376.075,-107.852 374.908,-107.705 373.744,-107.509 372.583,-107.265 371.427,-106.973 370.278,-106.636 369.135,-106.252 368.002,-105.824 366.879,-105.353 365.768,-104.839 364.672,-104.285 363.592,-103.692 362.531,-103.061 361.493,-102.395 360.478,-101.694 359.492,-100.961 358.536,-100.199 357.614,-99.4082 356.73,-98.5918 355.888,-97.7519 355.091,-96.8907 354.342,-96.0106 353.647,-95.114 353.008,-94.2035 352.43,-93.2814 351.916,-92.3503 351.471,-91.4127 351.097,-90.4713 350.798,-89.5287 350.578,-88.5873 350.44,-87.6497 350.386,-86.7186 350.419,-85.7965 350.54,-84.886 350.753,-83.9894 351.058,-83.1093 351.455,-82.2481 351.947,-81.4082 352.532,-80.5918 353.211,-79.8012 353.982,-79.0385 354.845,-78.3059 355.797,-77.6054 356.835,-76.9388 357.958,-76.308 359.162,-75.7147 360.443,-75.1606 361.797,-74.6472 363.218,-74.1759 364.703,-73.7479 366.245,-73.3645 367.838,-73.0266 369.477,-72.7353 371.154,-72.4913 372.864,-72.2953 374.599,-72.1479 376.352,-72.0493 378.116,-72 379.884,-72 381.648,-72.0493"/>
<text text-anchor="middle" x="379" y="-85.8" font-family="Times,serif" font-size="14.00">26</text>
</a>
</g>
<!-- 20&#45;&gt;26 -->
<g id="edge58" class="edge"><title>20&#45;&gt;26</title>
<path fill="none" stroke="black" d="M380.506,-143.697C380.285,-135.983 380.02,-126.712 379.775,-118.112"/>
<polygon fill="black" stroke="black" points="383.273,-118 379.489,-108.104 376.276,-118.2 383.273,-118"/>
</g>
<!-- 36 -->
<g id="node77" class="node"><title>36</title>
<a xlink:title="travel with the group">
<polygon fill="lightgrey" stroke="black" stroke-width="2" points="605.648,-0.0493367 607.401,-0.147875 609.136,-0.295345 610.846,-0.491342 612.523,-0.735329 614.162,-1.02664 615.755,-1.36447 617.297,-1.7479 618.782,-2.17587 620.203,-2.64722 621.557,-3.16064 622.838,-3.71474 624.042,-4.308 625.165,-4.93879 626.203,-5.60537 627.155,-6.30593 628.018,-7.03854 628.789,-7.80119 629.468,-8.5918 630.053,-9.4082 630.545,-10.2481 630.942,-11.1093 631.247,-11.9894 631.46,-12.886 631.581,-13.7965 631.614,-14.7186 631.56,-15.6497 631.422,-16.5873 631.202,-17.5287 630.903,-18.4713 630.529,-19.4127 630.084,-20.3503 629.57,-21.2814 628.992,-22.2035 628.353,-23.114 627.658,-24.0106 626.909,-24.8907 626.112,-25.7519 625.27,-26.5918 624.386,-27.4082 623.464,-28.1988 622.508,-28.9615 621.522,-29.6941 620.507,-30.3946 619.469,-31.0612 618.408,-31.692 617.328,-32.2853 616.232,-32.8394 615.121,-33.3528 613.998,-33.8241 612.865,-34.2521 611.722,-34.6355 610.573,-34.9734 609.417,-35.2647 608.256,-35.5087 607.092,-35.7047 605.925,-35.8521 604.756,-35.9507 603.585,-36 602.415,-36 601.244,-35.9507 600.075,-35.8521 598.908,-35.7047 597.744,-35.5087 596.583,-35.2647 595.427,-34.9734 594.278,-34.6355 593.135,-34.2521 592.002,-33.8241 590.879,-33.3528 589.768,-32.8394 588.672,-32.2853 587.592,-31.692 586.531,-31.0612 585.493,-30.3946 584.478,-29.6941 583.492,-28.9615 582.536,-28.1988 581.614,-27.4082 580.73,-26.5918 579.888,-25.7519 579.091,-24.8907 578.342,-24.0106 577.647,-23.114 577.008,-22.2035 576.43,-21.2814 575.916,-20.3503 575.471,-19.4127 575.097,-18.4713 574.798,-17.5287 574.578,-16.5873 574.44,-15.6497 574.386,-14.7186 574.419,-13.7965 574.54,-12.886 574.753,-11.9894 575.058,-11.1093 575.455,-10.2481 575.947,-9.4082 576.532,-8.5918 577.211,-7.80119 577.982,-7.03854 578.845,-6.30593 579.797,-5.60537 580.835,-4.93879 581.958,-4.308 583.162,-3.71474 584.443,-3.16064 585.797,-2.64722 587.218,-2.17587 588.703,-1.7479 590.245,-1.36447 591.838,-1.02664 593.477,-0.735329 595.154,-0.491342 596.864,-0.295345 598.599,-0.147875 600.352,-0.0493367 602.116,-1.7053e-13 603.884,-1.74083e-13 605.648,-0.0493367"/>
<text text-anchor="middle" x="603" y="-13.8" font-family="Times,serif" font-size="14.00">36</text>
</a>
</g>
<!-- 38&#45;&gt;36 -->
<g id="edge80" class="edge"><title>38&#45;&gt;36</title>
<path fill="none" stroke="black" d="M632.187,-72.7646C627.582,-64.2831 621.845,-53.7144 616.679,-44.1974"/>
<polygon fill="black" stroke="black" points="619.613,-42.266 611.766,-35.1473 613.461,-45.6057 619.613,-42.266"/>
</g>
<!-- 37 -->
<g id="node78" class="node"><title>37</title>
<a xlink:title="strike out on your own">
<polygon fill="lightgrey" stroke="black" stroke-width="2" points="680.648,-0.0493367 682.401,-0.147875 684.136,-0.295345 685.846,-0.491342 687.523,-0.735329 689.162,-1.02664 690.755,-1.36447 692.297,-1.7479 693.782,-2.17587 695.203,-2.64722 696.557,-3.16064 697.838,-3.71474 699.042,-4.308 700.165,-4.93879 701.203,-5.60537 702.155,-6.30593 703.018,-7.03854 703.789,-7.80119 704.468,-8.5918 705.053,-9.4082 705.545,-10.2481 705.942,-11.1093 706.247,-11.9894 706.46,-12.886 706.581,-13.7965 706.614,-14.7186 706.56,-15.6497 706.422,-16.5873 706.202,-17.5287 705.903,-18.4713 705.529,-19.4127 705.084,-20.3503 704.57,-21.2814 703.992,-22.2035 703.353,-23.114 702.658,-24.0106 701.909,-24.8907 701.112,-25.7519 700.27,-26.5918 699.386,-27.4082 698.464,-28.1988 697.508,-28.9615 696.522,-29.6941 695.507,-30.3946 694.469,-31.0612 693.408,-31.692 692.328,-32.2853 691.232,-32.8394 690.121,-33.3528 688.998,-33.8241 687.865,-34.2521 686.722,-34.6355 685.573,-34.9734 684.417,-35.2647 683.256,-35.5087 682.092,-35.7047 680.925,-35.8521 679.756,-35.9507 678.585,-36 677.415,-36 676.244,-35.9507 675.075,-35.8521 673.908,-35.7047 672.744,-35.5087 671.583,-35.2647 670.427,-34.9734 669.278,-34.6355 668.135,-34.2521 667.002,-33.8241 665.879,-33.3528 664.768,-32.8394 663.672,-32.2853 662.592,-31.692 661.531,-31.0612 660.493,-30.3946 659.478,-29.6941 658.492,-28.9615 657.536,-28.1988 656.614,-27.4082 655.73,-26.5918 654.888,-25.7519 654.091,-24.8907 653.342,-24.0106 652.647,-23.114 652.008,-22.2035 651.43,-21.2814 650.916,-20.3503 650.471,-19.4127 650.097,-18.4713 649.798,-17.5287 649.578,-16.5873 649.44,-15.6497 649.386,-14.7186 649.419,-13.7965 649.54,-12.886 649.753,-11.9894 650.058,-11.1093 650.455,-10.2481 650.947,-9.4082 651.532,-8.5918 652.211,-7.80119 652.982,-7.03854 653.845,-6.30593 654.797,-5.60537 655.835,-4.93879 656.958,-4.308 658.162,-3.71474 659.443,-3.16064 660.797,-2.64722 662.218,-2.17587 663.703,-1.7479 665.245,-1.36447 666.838,-1.02664 668.477,-0.735329 670.154,-0.491342 671.864,-0.295345 673.599,-0.147875 675.352,-0.0493367 677.116,-1.7053e-13 678.884,-1.74083e-13 680.648,-0.0493367"/>
<text text-anchor="middle" x="678" y="-13.8" font-family="Times,serif" font-size="14.00">37</text>
</a>
</g>
<!-- 38&#45;&gt;37 -->
<g id="edge82" class="edge"><title>38&#45;&gt;37</title>
<path fill="none" stroke="black" d="M649.582,-72.7646C654.065,-64.2831 659.651,-53.7144 664.681,-44.1974"/>
<polygon fill="black" stroke="black" points="667.886,-45.6239 669.465,-35.1473 661.698,-42.3527 667.886,-45.6239"/>
</g>
<!-- 23 -->
<g id="node59" class="node"><title>23</title>
<a xlink:title="wish them well and continue on your journey">
<polygon fill="lightgrey" stroke="black" stroke-width="2" points="455.648,-0.0493367 457.401,-0.147875 459.136,-0.295345 460.846,-0.491342 462.523,-0.735329 464.162,-1.02664 465.755,-1.36447 467.297,-1.7479 468.782,-2.17587 470.203,-2.64722 471.557,-3.16064 472.838,-3.71474 474.042,-4.308 475.165,-4.93879 476.203,-5.60537 477.155,-6.30593 478.018,-7.03854 478.789,-7.80119 479.468,-8.5918 480.053,-9.4082 480.545,-10.2481 480.942,-11.1093 481.247,-11.9894 481.46,-12.886 481.581,-13.7965 481.614,-14.7186 481.56,-15.6497 481.422,-16.5873 481.202,-17.5287 480.903,-18.4713 480.529,-19.4127 480.084,-20.3503 479.57,-21.2814 478.992,-22.2035 478.353,-23.114 477.658,-24.0106 476.909,-24.8907 476.112,-25.7519 475.27,-26.5918 474.386,-27.4082 473.464,-28.1988 472.508,-28.9615 471.522,-29.6941 470.507,-30.3946 469.469,-31.0612 468.408,-31.692 467.328,-32.2853 466.232,-32.8394 465.121,-33.3528 463.998,-33.8241 462.865,-34.2521 461.722,-34.6355 460.573,-34.9734 459.417,-35.2647 458.256,-35.5087 457.092,-35.7047 455.925,-35.8521 454.756,-35.9507 453.585,-36 452.415,-36 451.244,-35.9507 450.075,-35.8521 448.908,-35.7047 447.744,-35.5087 446.583,-35.2647 445.427,-34.9734 444.278,-34.6355 443.135,-34.2521 442.002,-33.8241 440.879,-33.3528 439.768,-32.8394 438.672,-32.2853 437.592,-31.692 436.531,-31.0612 435.493,-30.3946 434.478,-29.6941 433.492,-28.9615 432.536,-28.1988 431.614,-27.4082 430.73,-26.5918 429.888,-25.7519 429.091,-24.8907 428.342,-24.0106 427.647,-23.114 427.008,-22.2035 426.43,-21.2814 425.916,-20.3503 425.471,-19.4127 425.097,-18.4713 424.798,-17.5287 424.578,-16.5873 424.44,-15.6497 424.386,-14.7186 424.419,-13.7965 424.54,-12.886 424.753,-11.9894 425.058,-11.1093 425.455,-10.2481 425.947,-9.4082 426.532,-8.5918 427.211,-7.80119 427.982,-7.03854 428.845,-6.30593 429.797,-5.60537 430.835,-4.93879 431.958,-4.308 433.162,-3.71474 434.443,-3.16064 435.797,-2.64722 437.218,-2.17587 438.703,-1.7479 440.245,-1.36447 441.838,-1.02664 443.477,-0.735329 445.154,-0.491342 446.864,-0.295345 448.599,-0.147875 450.352,-0.0493367 452.116,-1.7053e-13 453.884,-1.74083e-13 455.648,-0.0493367"/>
<text text-anchor="middle" x="453" y="-13.8" font-family="Times,serif" font-size="14.00">23</text>
</a>
</g>
<!-- 22&#45;&gt;23 -->
<g id="edge60" class="edge"><title>22&#45;&gt;23</title>
<path fill="none" stroke="black" d="M512.823,-74.8345C501.938,-64.6754 487.108,-50.8343 474.937,-39.4748"/>
<polygon fill="black" stroke="black" points="477.09,-36.6965 467.391,-32.432 472.314,-41.8139 477.09,-36.6965"/>
</g>
<!-- 24 -->
<g id="node61" class="node"><title>24</title>
<a xlink:title="stay here and help them">
<polygon fill="lightgrey" stroke="black" stroke-width="2" points="530.648,-0.0493367 532.401,-0.147875 534.136,-0.295345 535.846,-0.491342 537.523,-0.735329 539.162,-1.02664 540.755,-1.36447 542.297,-1.7479 543.782,-2.17587 545.203,-2.64722 546.557,-3.16064 547.838,-3.71474 549.042,-4.308 550.165,-4.93879 551.203,-5.60537 552.155,-6.30593 553.018,-7.03854 553.789,-7.80119 554.468,-8.5918 555.053,-9.4082 555.545,-10.2481 555.942,-11.1093 556.247,-11.9894 556.46,-12.886 556.581,-13.7965 556.614,-14.7186 556.56,-15.6497 556.422,-16.5873 556.202,-17.5287 555.903,-18.4713 555.529,-19.4127 555.084,-20.3503 554.57,-21.2814 553.992,-22.2035 553.353,-23.114 552.658,-24.0106 551.909,-24.8907 551.112,-25.7519 550.27,-26.5918 549.386,-27.4082 548.464,-28.1988 547.508,-28.9615 546.522,-29.6941 545.507,-30.3946 544.469,-31.0612 543.408,-31.692 542.328,-32.2853 541.232,-32.8394 540.121,-33.3528 538.998,-33.8241 537.865,-34.2521 536.722,-34.6355 535.573,-34.9734 534.417,-35.2647 533.256,-35.5087 532.092,-35.7047 530.925,-35.8521 529.756,-35.9507 528.585,-36 527.415,-36 526.244,-35.9507 525.075,-35.8521 523.908,-35.7047 522.744,-35.5087 521.583,-35.2647 520.427,-34.9734 519.278,-34.6355 518.135,-34.2521 517.002,-33.8241 515.879,-33.3528 514.768,-32.8394 513.672,-32.2853 512.592,-31.692 511.531,-31.0612 510.493,-30.3946 509.478,-29.6941 508.492,-28.9615 507.536,-28.1988 506.614,-27.4082 505.73,-26.5918 504.888,-25.7519 504.091,-24.8907 503.342,-24.0106 502.647,-23.114 502.008,-22.2035 501.43,-21.2814 500.916,-20.3503 500.471,-19.4127 500.097,-18.4713 499.798,-17.5287 499.578,-16.5873 499.44,-15.6497 499.386,-14.7186 499.419,-13.7965 499.54,-12.886 499.753,-11.9894 500.058,-11.1093 500.455,-10.2481 500.947,-9.4082 501.532,-8.5918 502.211,-7.80119 502.982,-7.03854 503.845,-6.30593 504.797,-5.60537 505.835,-4.93879 506.958,-4.308 508.162,-3.71474 509.443,-3.16064 510.797,-2.64722 512.218,-2.17587 513.703,-1.7479 515.245,-1.36447 516.838,-1.02664 518.477,-0.735329 520.154,-0.491342 521.864,-0.295345 523.599,-0.147875 525.352,-0.0493367 527.116,-1.7053e-13 528.884,-1.74083e-13 530.648,-0.0493367"/>
<text text-anchor="middle" x="528" y="-13.8" font-family="Times,serif" font-size="14.00">24</text>
</a>
</g>
<!-- 22&#45;&gt;24 -->
<g id="edge62" class="edge"><title>22&#45;&gt;24</title>
<path fill="none" stroke="black" d="M528,-71.6966C528,-63.9827 528,-54.7125 528,-46.1124"/>
<polygon fill="black" stroke="black" points="531.5,-46.1043 528,-36.1043 524.5,-46.1044 531.5,-46.1043"/>
</g>
<!-- 31&#45;&gt;38 -->
<g id="edge74" class="edge"><title>31&#45;&gt;38</title>
<path fill="none" stroke="black" d="M731.839,-148.807C714.331,-137.665 688.241,-121.062 668.507,-108.504"/>
<polygon fill="black" stroke="black" points="670.257,-105.469 659.941,-103.053 666.499,-111.375 670.257,-105.469"/>
</g>
<!-- 33 -->
<g id="node71" class="node"><title>33</title>
<a xlink:title="head for the nearest town in search of answers">
<ellipse fill="none" stroke="black" cx="753" cy="-90" rx="27" ry="18"/>
<text text-anchor="middle" x="753" y="-85.8" font-family="Times,serif" font-size="14.00">33</text>
</a>
</g>
<!-- 31&#45;&gt;33 -->
<g id="edge72" class="edge"><title>31&#45;&gt;33</title>
<path fill="none" stroke="black" d="M751.494,-143.697C751.715,-135.983 751.98,-126.712 752.225,-118.112"/>
<polygon fill="black" stroke="black" points="755.724,-118.2 752.511,-108.104 748.727,-118 755.724,-118.2"/>
</g>
<!-- 34 -->
<g id="node74" class="node"><title>34</title>
<a xlink:title="continue on your journey">
<polygon fill="lightgrey" stroke="black" stroke-width="2" points="755.648,-0.0493367 757.401,-0.147875 759.136,-0.295345 760.846,-0.491342 762.523,-0.735329 764.162,-1.02664 765.755,-1.36447 767.297,-1.7479 768.782,-2.17587 770.203,-2.64722 771.557,-3.16064 772.838,-3.71474 774.042,-4.308 775.165,-4.93879 776.203,-5.60537 777.155,-6.30593 778.018,-7.03854 778.789,-7.80119 779.468,-8.5918 780.053,-9.4082 780.545,-10.2481 780.942,-11.1093 781.247,-11.9894 781.46,-12.886 781.581,-13.7965 781.614,-14.7186 781.56,-15.6497 781.422,-16.5873 781.202,-17.5287 780.903,-18.4713 780.529,-19.4127 780.084,-20.3503 779.57,-21.2814 778.992,-22.2035 778.353,-23.114 777.658,-24.0106 776.909,-24.8907 776.112,-25.7519 775.27,-26.5918 774.386,-27.4082 773.464,-28.1988 772.508,-28.9615 771.522,-29.6941 770.507,-30.3946 769.469,-31.0612 768.408,-31.692 767.328,-32.2853 766.232,-32.8394 765.121,-33.3528 763.998,-33.8241 762.865,-34.2521 761.722,-34.6355 760.573,-34.9734 759.417,-35.2647 758.256,-35.5087 757.092,-35.7047 755.925,-35.8521 754.756,-35.9507 753.585,-36 752.415,-36 751.244,-35.9507 750.075,-35.8521 748.908,-35.7047 747.744,-35.5087 746.583,-35.2647 745.427,-34.9734 744.278,-34.6355 743.135,-34.2521 742.002,-33.8241 740.879,-33.3528 739.768,-32.8394 738.672,-32.2853 737.592,-31.692 736.531,-31.0612 735.493,-30.3946 734.478,-29.6941 733.492,-28.9615 732.536,-28.1988 731.614,-27.4082 730.73,-26.5918 729.888,-25.7519 729.091,-24.8907 728.342,-24.0106 727.647,-23.114 727.008,-22.2035 726.43,-21.2814 725.916,-20.3503 725.471,-19.4127 725.097,-18.4713 724.798,-17.5287 724.578,-16.5873 724.44,-15.6497 724.386,-14.7186 724.419,-13.7965 724.54,-12.886 724.753,-11.9894 725.058,-11.1093 725.455,-10.2481 725.947,-9.4082 726.532,-8.5918 727.211,-7.80119 727.982,-7.03854 728.845,-6.30593 729.797,-5.60537 730.835,-4.93879 731.958,-4.308 733.162,-3.71474 734.443,-3.16064 735.797,-2.64722 737.218,-2.17587 738.703,-1.7479 740.245,-1.36447 741.838,-1.02664 743.477,-0.735329 745.154,-0.491342 746.864,-0.295345 748.599,-0.147875 750.352,-0.0493367 752.116,-1.7053e-13 753.884,-1.74083e-13 755.648,-0.0493367"/>
<text text-anchor="middle" x="753" y="-13.8" font-family="Times,serif" font-size="14.00">34</text>
</a>
</g>
<!-- 33&#45;&gt;34 -->
<g id="edge76" class="edge"><title>33&#45;&gt;34</title>
<path fill="none" stroke="black" d="M753,-71.6966C753,-63.9827 753,-54.7125 753,-46.1124"/>
<polygon fill="black" stroke="black" points="756.5,-46.1043 753,-36.1043 749.5,-46.1044 756.5,-46.1043"/>
</g>
<!-- 35 -->
<g id="node76" class="node"><title>35</title>
<a xlink:title="try to break into the delivery truck">
<polygon fill="lightgrey" stroke="black" stroke-width="2" points="830.648,-0.0493367 832.401,-0.147875 834.136,-0.295345 835.846,-0.491342 837.523,-0.735329 839.162,-1.02664 840.755,-1.36447 842.297,-1.7479 843.782,-2.17587 845.203,-2.64722 846.557,-3.16064 847.838,-3.71474 849.042,-4.308 850.165,-4.93879 851.203,-5.60537 852.155,-6.30593 853.018,-7.03854 853.789,-7.80119 854.468,-8.5918 855.053,-9.4082 855.545,-10.2481 855.942,-11.1093 856.247,-11.9894 856.46,-12.886 856.581,-13.7965 856.614,-14.7186 856.56,-15.6497 856.422,-16.5873 856.202,-17.5287 855.903,-18.4713 855.529,-19.4127 855.084,-20.3503 854.57,-21.2814 853.992,-22.2035 853.353,-23.114 852.658,-24.0106 851.909,-24.8907 851.112,-25.7519 850.27,-26.5918 849.386,-27.4082 848.464,-28.1988 847.508,-28.9615 846.522,-29.6941 845.507,-30.3946 844.469,-31.0612 843.408,-31.692 842.328,-32.2853 841.232,-32.8394 840.121,-33.3528 838.998,-33.8241 837.865,-34.2521 836.722,-34.6355 835.573,-34.9734 834.417,-35.2647 833.256,-35.5087 832.092,-35.7047 830.925,-35.8521 829.756,-35.9507 828.585,-36 827.415,-36 826.244,-35.9507 825.075,-35.8521 823.908,-35.7047 822.744,-35.5087 821.583,-35.2647 820.427,-34.9734 819.278,-34.6355 818.135,-34.2521 817.002,-33.8241 815.879,-33.3528 814.768,-32.8394 813.672,-32.2853 812.592,-31.692 811.531,-31.0612 810.493,-30.3946 809.478,-29.6941 808.492,-28.9615 807.536,-28.1988 806.614,-27.4082 805.73,-26.5918 804.888,-25.7519 804.091,-24.8907 803.342,-24.0106 802.647,-23.114 802.008,-22.2035 801.43,-21.2814 800.916,-20.3503 800.471,-19.4127 800.097,-18.4713 799.798,-17.5287 799.578,-16.5873 799.44,-15.6497 799.386,-14.7186 799.419,-13.7965 799.54,-12.886 799.753,-11.9894 800.058,-11.1093 800.455,-10.2481 800.947,-9.4082 801.532,-8.5918 802.211,-7.80119 802.982,-7.03854 803.845,-6.30593 804.797,-5.60537 805.835,-4.93879 806.958,-4.308 808.162,-3.71474 809.443,-3.16064 810.797,-2.64722 812.218,-2.17587 813.703,-1.7479 815.245,-1.36447 816.838,-1.02664 818.477,-0.735329 820.154,-0.491342 821.864,-0.295345 823.599,-0.147875 825.352,-0.0493367 827.116,-1.7053e-13 828.884,-1.74083e-13 830.648,-0.0493367"/>
<text text-anchor="middle" x="828" y="-13.8" font-family="Times,serif" font-size="14.00">35</text>
</a>
</g>
<!-- 33&#45;&gt;35 -->
<g id="edge78" class="edge"><title>33&#45;&gt;35</title>
<path fill="none" stroke="black" d="M768.177,-74.8345C779.062,-64.6754 793.892,-50.8343 806.063,-39.4748"/>
<polygon fill="black" stroke="black" points="808.686,-41.8139 813.609,-32.432 803.91,-36.6965 808.686,-41.8139"/>
</g>
</g>
</svg>
