<svg xmlns="http://www.w3.org/2000/svg" xmlns:xlink="http://www.w3.org/1999/xlink" xmlns:inkscape="http://www.inkscape.org/namespaces/inkscape" id="hexagons" version="1.1" height="8.825in" width="10.475in" viewBox="60 0 1687 1560">
  <defs>
    <mask id="tundra">
      <!-- Everything under a white pixel will be visible -->
      <polygon points="86.6,200 173,150 173,50 86.6,0 0,50 0,150 86.6,200" fill="white" />

      <path fill="black" d="M 93 57 C 90 59 91 69 94 62 C 96 60 96 57 93 57 Z M 86 60 C 79 61 92 70 87 62 L 87 61 Z M 36 75 C 34 80 42 83 44 85 C 47 81 39 78 36 75 Z M 56 77 C 53 78 52 86 55 83 C 57 81 60 77 56 77 Z M 138 77 C 134 80 135 90 139 83 C 140 81 141 78 138 77 Z M 47 78 C 46 81 48 84 50 83 C 51 81 51 78 48 78 Z M 100 73 C 97 73 97 76 99 78 C 102 85 103 75 100 73 Z M 131 80 C 123 81 136 91 132 83 C 132 82 131 81 131 80 Z M 107 76 L 106 77 L 106 78 C 101 86 114 77 107 76 Z M 153 103 C 150 106 142 109 145 113 C 147 111 155 108 153 103 Z M 51 99 C 48 100 49 103 50 105 C 54 112 55 102 51 99 Z M 133 105 C 129 105 132 109 134 111 C 137 114 136 106 133 105 Z M 81 104 C 77 107 88 118 85 109 C 84 107 83 105 81 104 Z M 141 106 C 138 106 138 109 139 111 C 141 112 143 109 142 106 Z M 91 106 C 87 108 88 118 91 111 C 92 110 95 106 91 106 Z M 58 102 C 58 103 57 104 57 105 C 53 113 66 103 58 102 Z M 57 129 C 55 134 63 137 65 140 C 68 135 60 132 57 129 Z M 77 131 C 74 132 73 138 75 136 C 78 135 78 134 77 131 Z M 69 132 C 69 132 69 132 68 133 C 67 135 70 140 71 138 C 71 136 72 132 70 132 C 70 132 70 132 69 132 Z M 114 122 C 112 123 111 125 110 127 C 107 136 118 125 114 122 Z M 104 124 C 100 124 103 128 104 129 C 107 136 108 126 104 124 Z M 33 116 C 27 117 34 121 35 123 C 39 126 35 117 33 116 Z M 38 118 C 38 119 37 120 38 121 C 38 130 44 118 38 118 Z"/>
    </mask>
    <mask id="snowscape">
      <!-- Everything under a white pixel will be visible -->
      <polygon points="86.6,200 173,150 173,50 86.6,0 0,50 0,150 86.6,200" fill="white" />
      
      <!-- Everything under a black pixel will be invisible -->
      <path d="M 82 40 C 82 37 88.37 37 88 40 C 89 54 89 67 88 81 C 88 82.39 86.85 83 85 83 C 84 83 82 82.39 82 81 C 81 67 81 54 82 40 Z M 101 48 C 104 46 107 51 104 53 C 93 60 81 67 69 73 C 68 74 66 73 66 72 C 65 71 65 69 66 68 C 77.78 60 89 54 101 48 Z M 104 68 C 105 69 105 71 105 72 C 104 73 102 74 101 73 C 89 67 77.78 60 66 53 C 64.09 51 66.85 46 69 48 C 81 54 93 60 104 68 Z" fill="black"/>
      <path d="M 82 40 C 82 37 88.37 37 88 40 C 89 54 89 67 88 81 C 88 82.39 86.85 83 85 83 C 84 83 82 82.39 82 81 C 81 67 81 54 82 40 Z M 101 48 C 104 46 107 51 104 53 C 93 60 81 67 69 73 C 68 74 66 73 66 72 C 65 71 65 69 66 68 C 77.78 60 89 54 101 48 Z M 104 68 C 105 69 105 71 105 72 C 104 73 102 74 101 73 C 89 67 77.78 60 66 53 C 64.09 51 66.85 46 69 48 C 81 54 93 60 104 68 Z" fill="black" transform="rotate(120 86.6 100)"/>
      <path d="M 82 40 C 82 37 88.37 37 88 40 C 89 54 89 67 88 81 C 88 82.39 86.85 83 85 83 C 84 83 82 82.39 82 81 C 81 67 81 54 82 40 Z M 101 48 C 104 46 107 51 104 53 C 93 60 81 67 69 73 C 68 74 66 73 66 72 C 65 71 65 69 66 68 C 77.78 60 89 54 101 48 Z M 104 68 C 105 69 105 71 105 72 C 104 73 102 74 101 73 C 89 67 77.78 60 66 53 C 64.09 51 66.85 46 69 48 C 81 54 93 60 104 68 Z" fill="black" transform="rotate(240 86.6 100)"/>
    </mask>
    <mask id="forest">
      <!-- Everything under a white pixel will be visible -->
      <polygon points="86.6,200 173,150 173,50 86.6,0 0,50 0,150 86.6,200" fill="white" />
      
      <!-- Everything under a black pixel will be invisible -->
      <polygon points="86.6,40 100,80 90,80 90,90 83,90 83,80 73.3,80" fill="black" fill-opacity="0.16"/>
      <polygon points="86.6,40 100,80 90,80 90,90 83,90 83,80 73.3,80" fill="black" fill-opacity="0.14" transform="translate(30,50)"/>
      <polygon points="86.6,40 100,80 90,80 90,90 83,90 83,80 73.3,80" fill="black" fill-opacity="0.15" transform="translate(-30,50)"/>
    </mask>
    <mask id="grassland">
      <polygon points="86.6,200 173,150 173,50 86.6,0 0,50 0,150 86.6,200" fill="white" />
      
      <path stroke="black" stroke-width="6" d="M 65 63.8 C 63 72.48 66 77 70 84" />
      <path stroke="black" stroke-width="6" d="M 79 53 C 79 53 78.14 72.48 83 82" />
      <path stroke="black" stroke-width="6" d="M 95 68.76 C 95 68.76 95 82 91 84" />
      <path stroke="black" stroke-width="6" d="M 108 102 C 108 115 117 117 117 130" />
      <path stroke="black" stroke-width="6" d="M 123 106 C 123 106 131 111 128.82 126" />
      <path stroke="black" stroke-width="6" d="M 141 110 C 141 110 139 125 139 126" />
      <path stroke="black" stroke-width="6" d="M 36 105 C 36 114 41 118 44 127" />
      <path stroke="black" stroke-width="6" d="M 50 99 C 49 108 51.85 115 54 123" />
      <path stroke="black" stroke-width="6" d="M 61 110 C 61 110 65 119 65 124" />
    </mask>
    <mask id="flower">
      <polygon points="86.6,200 173,150 173,50 86.6,0 0,50 0,150 86.6,200" fill="white" />
      
      <path fill="black" fill-opacity="0.25" d="M 146 97 C 145 91 140 86 133 85.04 C 123 82 111 85 97.72 93 C 115.44 83 124 73 123 62 C 123 55 120 51 114 48 C 107 45.75 100 47 94 53 C 88 60 85 71 85 86 C 85 66 80 54 69 49 C 63 46 57 46 51 51.09 C 45 55 44.62 62 48 70.64 C 51 78 59 86 72 93 C 55 83 41 81 31 87.21 C 25 90 22 95 23 102.42 C 24 109 29 113 36 115 C 46 117.81 58 115 72 107 C 54.81 117 46 127 46 138 C 46 144 50 149 56 152 C 64.06 154 68 154 74 148 C 80 142 85 120 85 114 L 85 118 C 88 135 100 148 108 151 C 114 153 118 153 122.82 147 C 128 141 124 132 118 123.34 C 113 117 106 112 97 107 C 115.24 116 128 118 138 113 C 145 109 147 104 146 97 Z M 90 105 C 89 107 87 107 85 107 C 83 107 81 107 79 105 C 78 104 77 102 77 100 C 77 98 78 96 79 95 C 81 93 83 92.92 85 92.92 C 87 92.92 89 93 90 95 C 92 96 93 98 93 100 C 93 102 92 104 90 105 Z" />
    </mask>
    <mask id="fellfield">
      <polygon points="86.6,200 173,150 173,50 86.6,0 0,50 0,150 86.6,200" fill="white" />

      <path fill="black" d="M 56 75 C 59 71 61 68 66 66 C 71 64 78 65 82 68 C 84 69 86 72 87 74 C 88 76 87 77 85 77 C 83 74 80 71 76 69 C 71 67 64 68 60 72 C 59 74 57 75 55 77 C 55 78 54 77 54 77 C 55 76 55 76 56 75 Z M 82 68 C 85 64 90 60 96 57 C 100 56 105 57 109 59 C 113 61 114 65 116 68 C 115 69 114 71 113 69 C 111 67 109 63 104 61 C 99 59 94 60 90 63 C 87 65 85 67 83 69 C 80 71 81 68 82 68 Z" fill-opacity="0.26"/>
      <path fill="black" d="M 56 75 C 59 71 61 68 66 66 C 71 64 78 65 82 68 C 84 69 86 72 87 74 C 88 76 87 77 85 77 C 83 74 80 71 76 69 C 71 67 64 68 60 72 C 59 74 57 75 55 77 C 55 78 54 77 54 77 C 55 76 55 76 56 75 Z M 82 68 C 85 64 90 60 96 57 C 100 56 105 57 109 59 C 113 61 114 65 116 68 C 115 69 114 71 113 69 C 111 67 109 63 104 61 C 99 59 94 60 90 63 C 87 65 85 67 83 69 C 80 71 81 68 82 68 Z" fill-opacity="0.25" transform="translate(30,60)"/>
      <path fill="black" d="M 56 75 C 59 71 61 68 66 66 C 71 64 78 65 82 68 C 84 69 86 72 87 74 C 88 76 87 77 85 77 C 83 74 80 71 76 69 C 71 67 64 68 60 72 C 59 74 57 75 55 77 C 55 78 54 77 54 77 C 55 76 55 76 56 75 Z M 82 68 C 85 64 90 60 96 57 C 100 56 105 57 109 59 C 113 61 114 65 116 68 C 115 69 114 71 113 69 C 111 67 109 63 104 61 C 99 59 94 60 90 63 C 87 65 85 67 83 69 C 80 71 81 68 82 68 Z" fill-opacity="0.27" transform="translate(-30,40)"/>
    </mask>

    <mask id="ice">
      <!-- Everything under a white pixel will be visible -->
      <polygon points="86.6,200 173,150 173,50 86.6,0 0,50 0,150 86.6,200" fill="white"/>

      <!-- Everything under a black pixel will be invisible -->
      <path d="M 86.6 170 L 163 125 Q 100 100 50 150 L 86.6 170" fill="black" />
      <path d="M 86.6 170 L 86.6 190 L 163 145 L 163 125 Z" fill="black" fill-opacity="0.5"/>
      <path d="M 86.6 170 L 86.6 190 L 50 170 L 50 150 Z" fill="black" fill-opacity="0.75"/>
    </mask>

    <mask id="mountain">
      <!-- Everything under a white pixel will be visible -->
      <polygon points="86.6,200 173,150 173,50 86.6,0 0,50 0,150 86.6,200" fill="white" />
      
      <!-- Everything under a black pixel will be invisible -->
      <polygon points="86.6,55 133,130 40,130" fill="black" fill-opacity="0.5"/>
      <polygon points="86.6,55 109,92 95,85 70,100 62,95" fill="black"/>
    </mask>

    <mask id="tunnel">
      <!-- Everything under a white pixel will be visible -->
      <polygon points="86.6,200 173,150 173,50 86.6,0 0,50 0,150 86.6,200" fill="white" />

      <!-- Everything under a black pixel will be invisible -->
      <path d="M 46.6 130 L 126.6 130 L 126.6 90 Q 86.6 30 46.6 90 L 46.6 90 Z" fill="black" fill-opacity="0.25"/>
  <!--    <circle cx="86.6" cy="100" r="40" fill="black" fill-opacity="0.25"/>
      <rect x="46.6" y="100" width="80" height="40" rx="5" fill="black" fill-opacity="0.25"/> -->
    </mask>
    <mask id="castle">
      <!-- Everything under a white pixel will be visible -->
      <polygon points="86.6,200 173,150 173,50 86.6,0 0,50 0,150 86.6,200" fill="white" />

      <!-- Everything under a black pixel will be invisible -->
      <rect x="46.6" y="80" width="80" height="60" />
      <rect x="41.6" y="60" width="20" height="30" rx="5" />
      <rect x="76.6" y="60" width="20" height="30" rx="5" />
      <rect x="111.6" y="60" width="20" height="30" rx="5" />
    </mask>
    <mask id="village">
      <!-- Everything under a white pixel will be visible -->
      <polygon points="86.6,200 173,150 173,50 86.6,0 0,50 0,150 86.6,200" fill="white" />
      
      <!-- Everything under a black pixel will be invisible -->
      <polygon points="86.6,45 105,70 68.3,70" fill="black" fill-opacity="0.65"/>
      <rect x="71.6" y="70" width="30" height="20" fill="black" fill-opacity="0.35"/>
      <polygon points="86.6,45 105,70 68.3,70" fill="black" fill-opacity="0.65" transform="translate(30,50)"/>
      <rect x="71.6" y="70" width="30" height="20" fill="black" fill-opacity="0.35" transform="translate(30,50)"/>
      <polygon points="86.6,45 105,70 68.3,70" fill="black" fill-opacity="0.65" transform="translate(-30,50)"/>
      <rect x="71.6" y="70" width="30" height="20" fill="black" fill-opacity="0.35" transform="translate(-30,50)"/>
      <!--  polygon points="86.6,50 100,65 100,85 73.3,85, 73.3,65" fill="black" fill-opacity="0.70" -->
    </mask>

    <mask id="noop">
      <!-- Everything under a white pixel will be visible -->
      <polygon points="86.6,200 173,150 173,50 86.6,0 0,50 0,150 86.6,200" fill="white" />
    </mask>
  </defs>

  <g transform="translate(-200,-100)">
    <g style="fill:#d2bc76;cursor:pointer;">

	<polygon points="86.6,200 173,150 173,50 86.6,0 0,50 0,150 86.6,200" stroke="black" stroke-width="1" transform="translate(1297.6,150)" data-edge="1" data-row="-4" data-col="0" id="h:-4:0"/>
	<polygon points="86.6,200 173,150 173,50 86.6,0 0,50 0,150 86.6,200" stroke="black" stroke-width="1" transform="translate(1124.6,150)" data-edge="1" data-row="-4" data-col="1" id="h:-4:1"/>
	<polygon points="86.6,200 173,150 173,50 86.6,0 0,50 0,150 86.6,200" stroke="black" stroke-width="1" transform="translate(951.6,150)" data-edge="1" data-row="-4" data-col="2" id="h:-4:2"/>
	<polygon points="86.6,200 173,150 173,50 86.6,0 0,50 0,150 86.6,200" stroke="black" stroke-width="1" transform="translate(778.6,150)" data-edge="1" data-row="-4" data-col="3" id="h:-4:3"/>
	<polygon points="86.6,200 173,150 173,50 86.6,0 0,50 0,150 86.6,200" stroke="black" stroke-width="1" transform="translate(605.6,150)" data-edge="1" data-row="-4" data-col="4" id="h:-4:4"/>

	<polygon points="86.6,200 173,150 173,50 86.6,0 0,50 0,150 86.6,200" stroke="black" stroke-width="1" transform="translate(1384,300)" data-edge="1" data-row="-3" data-col="-1" id="h:-3:-1"/>
	<polygon points="86.6,200 173,150 173,50 86.6,0 0,50 0,150 86.6,200" stroke="black" stroke-width="1" transform="translate(1211,300)" data-edge="0" data-row="-3" data-col="0" id="h:-3:0"/>
	<polygon points="86.6,200 173,150 173,50 86.6,0 0,50 0,150 86.6,200" stroke="black" stroke-width="1" transform="translate(1038,300)" data-edge="0" data-row="-3" data-col="1" id="h:-3:1"/>
	<polygon points="86.6,200 173,150 173,50 86.6,0 0,50 0,150 86.6,200" stroke="black" stroke-width="1" transform="translate(865,300)" data-edge="0" data-row="-3" data-col="2" id="h:-3:2"/>
	<polygon points="86.6,200 173,150 173,50 86.6,0 0,50 0,150 86.6,200" stroke="black" stroke-width="1" transform="translate(692,300)" data-edge="0" data-row="-3" data-col="3" id="h:-3:3"/>
	<polygon points="86.6,200 173,150 173,50 86.6,0 0,50 0,150 86.6,200" stroke="black" stroke-width="1" transform="translate(519,300)" data-edge="1" data-row="-3" data-col="4" id="h:-3:4"/>

	<polygon points="86.6,200 173,150 173,50 86.6,0 0,50 0,150 86.6,200" stroke="black" stroke-width="1" transform="translate(1470.6,450)" data-edge="1" data-row="-2" data-col="-2" id="h:-2:-2"/>
	<polygon points="86.6,200 173,150 173,50 86.6,0 0,50 0,150 86.6,200" stroke="black" stroke-width="1" transform="translate(1297.6,450)" data-edge="0" data-row="-2" data-col="-1" id="h:-2:-1"/>
	<polygon points="86.6,200 173,150 173,50 86.6,0 0,50 0,150 86.6,200" stroke="black" stroke-width="1" transform="translate(1124.6,450)" data-edge="0" data-row="-2" data-col="0" id="h:-2:0"/>
	<polygon points="86.6,200 173,150 173,50 86.6,0 0,50 0,150 86.6,200" stroke="black" stroke-width="1" transform="translate(951.6,450)" data-edge="0" data-row="-2" data-col="1" id="h:-2:1"/>
	<polygon points="86.6,200 173,150 173,50 86.6,0 0,50 0,150 86.6,200" stroke="black" stroke-width="1" transform="translate(778.6,450)" data-edge="0" data-row="-2" data-col="2" id="h:-2:2"/>
	<polygon points="86.6,200 173,150 173,50 86.6,0 0,50 0,150 86.6,200" stroke="black" stroke-width="1" transform="translate(605.6,450)" data-edge="0" data-row="-2" data-col="3" id="h:-2:3"/>
	<polygon points="86.6,200 173,150 173,50 86.6,0 0,50 0,150 86.6,200" stroke="black" stroke-width="1" transform="translate(432.6,450)" data-edge="1" data-row="-2" data-col="4" id="h:-2:4"/>

	<polygon points="86.6,200 173,150 173,50 86.6,0 0,50 0,150 86.6,200" stroke="black" stroke-width="1" transform="translate(1557,600)" data-edge="1" data-row="-1" data-col="-3" id="h:-1:-3"/>
	<polygon points="86.6,200 173,150 173,50 86.6,0 0,50 0,150 86.6,200" stroke="black" stroke-width="1" transform="translate(1384,600)" data-edge="0" data-row="-1" data-col="-2" id="h:-1:-2"/>
	<polygon points="86.6,200 173,150 173,50 86.6,0 0,50 0,150 86.6,200" stroke="black" stroke-width="1" transform="translate(1211,600)" data-edge="0" data-row="-1" data-col="-1" id="h:-1:-1"/>
	<polygon points="86.6,200 173,150 173,50 86.6,0 0,50 0,150 86.6,200" stroke="black" stroke-width="1" transform="translate(1038,600)" data-edge="0" data-row="-1" data-col="0" id="h:-1:0"/>
	<polygon points="86.6,200 173,150 173,50 86.6,0 0,50 0,150 86.6,200" stroke="black" stroke-width="1" transform="translate(865,600)" data-edge="0" data-row="-1" data-col="1" id="h:-1:1"/>
	<polygon points="86.6,200 173,150 173,50 86.6,0 0,50 0,150 86.6,200" stroke="black" stroke-width="1" transform="translate(692,600)" data-edge="0" data-row="-1" data-col="2" id="h:-1:2"/>
	<polygon points="86.6,200 173,150 173,50 86.6,0 0,50 0,150 86.6,200" stroke="black" stroke-width="1" transform="translate(519,600)" data-edge="0" data-row="-1" data-col="3" id="h:-1:3"/>
	<polygon points="86.6,200 173,150 173,50 86.6,0 0,50 0,150 86.6,200" stroke="black" stroke-width="1" transform="translate(346,600)" data-edge="1" data-row="-1" data-col="4" id="h:-1:4"/>

	<polygon points="86.6,200 173,150 173,50 86.6,0 0,50 0,150 86.6,200" stroke="black" stroke-width="1" transform="translate(1643.6,750)" data-edge="1" data-row="0" data-col="-4" id="h:0:-4"/>
	<polygon points="86.6,200 173,150 173,50 86.6,0 0,50 0,150 86.6,200" stroke="black" stroke-width="1" transform="translate(1470.6,750)" data-edge="0" data-row="0" data-col="-3" id="h:0:-3"/>
	<polygon points="86.6,200 173,150 173,50 86.6,0 0,50 0,150 86.6,200" stroke="black" stroke-width="1" transform="translate(1297.6,750)" data-edge="0" data-row="0" data-col="-2" id="h:0:-2"/>
	<polygon points="86.6,200 173,150 173,50 86.6,0 0,50 0,150 86.6,200" stroke="black" stroke-width="1" transform="translate(1124.6,750)" data-edge="0" data-row="0" data-col="-1" id="h:0:-1"/>
	<polygon points="86.6,200 173,150 173,50 86.6,0 0,50 0,150 86.6,200" stroke="black" stroke-width="1" transform="translate(951.6,750)" data-edge="0" data-row="0" data-col="0" id="h:0:0"/>
	<polygon points="86.6,200 173,150 173,50 86.6,0 0,50 0,150 86.6,200" stroke="black" stroke-width="1" transform="translate(778.6,750)" data-edge="0" data-row="0" data-col="1" id="h:0:1"/>
	<polygon points="86.6,200 173,150 173,50 86.6,0 0,50 0,150 86.6,200" stroke="black" stroke-width="1" transform="translate(605.6,750)" data-edge="0" data-row="0" data-col="2" id="h:0:2"/>
	<polygon points="86.6,200 173,150 173,50 86.6,0 0,50 0,150 86.6,200" stroke="black" stroke-width="1" transform="translate(432.6,750)" data-edge="0" data-row="0" data-col="3" id="h:0:3"/>
	<polygon points="86.6,200 173,150 173,50 86.6,0 0,50 0,150 86.6,200" stroke="black" stroke-width="1" transform="translate(259.6,750)" data-edge="1" data-row="0" data-col="4" id="h:0:4"/>

	<polygon points="86.6,200 173,150 173,50 86.6,0 0,50 0,150 86.6,200" stroke="black" stroke-width="1" transform="translate(1557,900)" data-edge="1" data-row="1" data-col="-4" id="h:1:-4"/>
	<polygon points="86.6,200 173,150 173,50 86.6,0 0,50 0,150 86.6,200" stroke="black" stroke-width="1" transform="translate(1384,900)" data-edge="0" data-row="1" data-col="-3" id="h:1:-3"/>
	<polygon points="86.6,200 173,150 173,50 86.6,0 0,50 0,150 86.6,200" stroke="black" stroke-width="1" transform="translate(1211,900)" data-edge="0" data-row="1" data-col="-2" id="h:1:-2"/>
	<polygon points="86.6,200 173,150 173,50 86.6,0 0,50 0,150 86.6,200" stroke="black" stroke-width="1" transform="translate(1038,900)" data-edge="0" data-row="1" data-col="-1" id="h:1:-1"/>
	<polygon points="86.6,200 173,150 173,50 86.6,0 0,50 0,150 86.6,200" stroke="black" stroke-width="1" transform="translate(865,900)" data-edge="0" data-row="1" data-col="0" id="h:1:0"/>
	<polygon points="86.6,200 173,150 173,50 86.6,0 0,50 0,150 86.6,200" stroke="black" stroke-width="1" transform="translate(692,900)" data-edge="0" data-row="1" data-col="1" id="h:1:1"/>
	<polygon points="86.6,200 173,150 173,50 86.6,0 0,50 0,150 86.6,200" stroke="black" stroke-width="1" transform="translate(519,900)" data-edge="0" data-row="1" data-col="2" id="h:1:2"/>
	<polygon points="86.6,200 173,150 173,50 86.6,0 0,50 0,150 86.6,200" stroke="black" stroke-width="1" transform="translate(346,900)" data-edge="1" data-row="1" data-col="3" id="h:1:3"/>

	<polygon points="86.6,200 173,150 173,50 86.6,0 0,50 0,150 86.6,200" stroke="black" stroke-width="1" transform="translate(1470.6,1050)" data-edge="1" data-row="2" data-col="-4" id="h:2:-4"/>
	<polygon points="86.6,200 173,150 173,50 86.6,0 0,50 0,150 86.6,200" stroke="black" stroke-width="1" transform="translate(1297.6,1050)" data-edge="0" data-row="2" data-col="-3" id="h:2:-3"/>
	<polygon points="86.6,200 173,150 173,50 86.6,0 0,50 0,150 86.6,200" stroke="black" stroke-width="1" transform="translate(1124.6,1050)" data-edge="0" data-row="2" data-col="-2" id="h:2:-2"/>
	<polygon points="86.6,200 173,150 173,50 86.6,0 0,50 0,150 86.6,200" stroke="black" stroke-width="1" transform="translate(951.6,1050)" data-edge="0" data-row="2" data-col="-1" id="h:2:-1"/>
	<polygon points="86.6,200 173,150 173,50 86.6,0 0,50 0,150 86.6,200" stroke="black" stroke-width="1" transform="translate(778.6,1050)" data-edge="0" data-row="2" data-col="0" id="h:2:0"/>
	<polygon points="86.6,200 173,150 173,50 86.6,0 0,50 0,150 86.6,200" stroke="black" stroke-width="1" transform="translate(605.6,1050)" data-edge="0" data-row="2" data-col="1" id="h:2:1"/>
	<polygon points="86.6,200 173,150 173,50 86.6,0 0,50 0,150 86.6,200" stroke="black" stroke-width="1" transform="translate(432.6,1050)" data-edge="1" data-row="2" data-col="2" id="h:2:2"/>

	<polygon points="86.6,200 173,150 173,50 86.6,0 0,50 0,150 86.6,200" stroke="black" stroke-width="1" transform="translate(1384,1200)" data-edge="1" data-row="3" data-col="-4" id="h:3:-4"/>
	<polygon points="86.6,200 173,150 173,50 86.6,0 0,50 0,150 86.6,200" stroke="black" stroke-width="1" transform="translate(1211,1200)" data-edge="0" data-row="3" data-col="-3" id="h:3:-3"/>
	<polygon points="86.6,200 173,150 173,50 86.6,0 0,50 0,150 86.6,200" stroke="black" stroke-width="1" transform="translate(1038,1200)" data-edge="0" data-row="3" data-col="-2" id="h:3:-2"/>
	<polygon points="86.6,200 173,150 173,50 86.6,0 0,50 0,150 86.6,200" stroke="black" stroke-width="1" transform="translate(865,1200)" data-edge="0" data-row="3" data-col="-1" id="h:3:-1"/>
	<polygon points="86.6,200 173,150 173,50 86.6,0 0,50 0,150 86.6,200" stroke="black" stroke-width="1" transform="translate(692,1200)" data-edge="0" data-row="3" data-col="0" id="h:3:0"/>
	<polygon points="86.6,200 173,150 173,50 86.6,0 0,50 0,150 86.6,200" stroke="black" stroke-width="1" transform="translate(519,1200)" data-edge="1" data-row="3" data-col="1" id="h:3:1"/>

	<polygon points="86.6,200 173,150 173,50 86.6,0 0,50 0,150 86.6,200" stroke="black" stroke-width="1" transform="translate(1297.6,1350)" data-edge="1" data-row="4" data-col="-4" id="h:4:-4"/>
	<polygon points="86.6,200 173,150 173,50 86.6,0 0,50 0,150 86.6,200" stroke="black" stroke-width="1" transform="translate(1124.6,1350)" data-edge="1" data-row="4" data-col="-3" id="h:4:-3"/>
	<polygon points="86.6,200 173,150 173,50 86.6,0 0,50 0,150 86.6,200" stroke="black" stroke-width="1" transform="translate(951.6,1350)" data-edge="1" data-row="4" data-col="-2" id="h:4:-2"/>
	<polygon points="86.6,200 173,150 173,50 86.6,0 0,50 0,150 86.6,200" stroke="black" stroke-width="1" transform="translate(778.6,1350)" data-edge="1" data-row="4" data-col="-1" id="h:4:-1"/>
	<polygon points="86.6,200 173,150 173,50 86.6,0 0,50 0,150 86.6,200" stroke="black" stroke-width="1" transform="translate(605.6,1350)" data-edge="1" data-row="4" data-col="0" id="h:4:0"/>

    </g>
  </g>

	<script type="text/ecmascript"><![CDATA[
  		//Use the masks (true) or use flat colors (false).
  		var useMasks = true;
  		//Allow free editing of colors (true) or limit user color changes to adjacent colors (false).
  		var freeEdit = false;

  		//Define the colors.
  		var locationColor = "#111111"; //"#DEDACA";
		var mountainColor = "#31425C";
		var iceColor = "#225796";
		var terrainColors = ["#C0912F","#C7E0EB","#1C3D28","#A1AD40","#94516E","#5F608E"];
		                      //tundra  snowscape  forest  grassland  flower   fellfield 
		var nearLocationColors = terrainColors.slice(0);
		nearLocationColors.push(iceColor);
		var fullColors = nearLocationColors.slice(0);
		fullColors.push(mountainColor);
		var freeColors = fullColors.slice(0);
		freeColors.push(locationColor);
		//Swapped out filters for masks.
		var fullColorMasks = ["tundra","snowscape","forest","grassland","flower","fellfield","ice","mountain"];
		var locationMasks = ['tunnel','castle','village','village'];
		//Location masks are named after the location: castle, village, tunnel.

		//Layout changes from the original Kingdom Builder board generator:
		//rows are numbered (according to the visible layout, not actual SVG positions) -4 to 4.
		//"col"s are numbered -4 to 4 along the right-to-left diagonal.

		//More locations than before.
		var locationCount = 4;
	  	var strokeWidth = 7;

		function applyMask(element,color,locIndex) {
			//Apply a mask from the array to the element.
			if (!color)
				color = element.getAttribute("fill");

			if (useMasks) {

				var maskIndex = fullColors.indexOf(color);
				var mask;

				//If it's a location, we need more information.
				if (color == locationColor) {
					mask = locationMasks[locIndex];		   
				} else if (maskIndex > -1 ) {
					mask = fullColorMasks[maskIndex];
				}

				if (mask)
					element.setAttribute("mask","url(#" + mask + ")");
				else
					element.setAttribute("mask","");

			}

			element.setAttribute("stroke","white"); //"#d2bc76");
			//element.setAttribute("stroke-width","20");
		}

		function changeFill(evt) {
			//Click to change the terrain type of a tile, with special behavior on locations.
			var element = evt.target;

			if (freeEdit) {
				//If free editing is allowed, use a random color and return.
				//randomFill(element,freeColors);
				//That was annoying, so cycle through the list.
				nextFill(element,freeColors);
				return;
			}

			//element.setAttribute("stroke-width",4); //handy for debugging

			if (document.getElementsByClassName("locationClass").length >= locationCount) {
				//All locations exist, so populate tile with (local) terrain.
				element.setAttribute("class","");
				controlledFill(element,0,true);
			} else {
				//When short on locations, click converts to a new location.
				element.setAttribute("class","locationClass");
				setFillAndMask(element,locationColor);
			}
			element.setAttribute("stroke-width",strokeWidth);
		}	

		function controlledFill(element, limit, toggle) {
			//Color or recolor (toggle) a tile based on neighboring colors if enough neighbors are colored (limit).
			var edge = element.getAttribute("data-edge");
			var tempIds = getLocalTiles(element);
			var tempFillColors = new Array ();

			for (var i = 0; i< tempIds.length; i++) {
				if ( ((tempColor = document.getElementById(tempIds[i]).getAttribute("fill")) != null)
					&& tempColor != locationColor
					&& tempFillColors.indexOf(tempColor) < 0 )
					tempFillColors.push(tempColor);
			}
			if (!limit || tempFillColors.length >= limit) {
				if (toggle && (currentColor = element.getAttribute("fill")) && ((currentColorIndex = tempFillColors.indexOf(currentColor)) > -1))
					tempFillColors.splice(currentColorIndex,1);
				randomFill(element,tempFillColors);
			}
		}	

		function init() {
			initFill();
			initPolygons();
		}

		function initFill() {
			//Initialize the board with locations and seed terrain, then fill in the rest.

			//If the board isn't blank (saved user output), don't initialize.
			if (document.getElementById("h:0:0").getAttribute("fill")) return;

			seedLocations();
			seedTerrain(9);
			fillTerrain(7);

			function fillTerrain(tries) {
				for (j = 0; j < tries; j++) {
					var allElements = document.getElementsByTagName("polygon");
					for (var i = 0; i < allElements.length; i++) {
						var element = allElements[i];
						if (!element.getAttribute("fill") || element.getAttribute("fill") == "null") {
							controlledFill(element,3-0.5*j);
							//console.log("found an unfilled tile on try " + j);
						}
					}
				}
			}
			//Init the viewbox.
			//shape = document.getElementsByTagName("svg")[0];
			//shape.setAttribute("viewBox", "0 0 250 550"); 
		}

		function initPolygons() {
			var allElements = document.getElementsByTagName("polygon");
			for (var i = 0; i < allElements.length; i++) {
				var element = allElements[i];
				element.addEventListener("click",changeFill);
				element.setAttribute("stroke-width",strokeWidth);
			}
		}

		function getLocalTiles(element,center) {
			//Return verified neighbors of a tile, as an array of ids.
			var row = parseInt(element.getAttribute("data-row"));
			var col = parseInt(element.getAttribute("data-col"));
			var tempArray = [];
			var returnArray = [];
			tempArray[0] = "h:" + (row-1) + ":" + col;
			tempArray[1] = "h:" + (row-1) + ":" + (col+1);
			tempArray[2] = "h:" + row + ":" + (col+1);
			tempArray[3] = "h:" + row + ":" + (col-1);
			tempArray[4] = "h:" + (row+1) + ":" + (col-1);
			tempArray[5] = "h:" + (row+1) + ":" + col;
			if (center)
				tempArray[6] = "h:" + row + ":" + col;
			for (k = 0; k < 6; k++) {
				if (document.getElementById(tempArray[k]))
					returnArray.push(tempArray[k]);
			}
			return returnArray.slice(0);
		}

		function nextFill(element,colorArray) {
			//Fill in a tile with the next color from a provided color list (colorArray) or from the full color list.
			if (!colorArray || colorArray.length == 0) 
				colorArray = fullColors.slice(0);
			var color = element.getAttribute("fill");
			var oldIndex = color && colorArray.indexOf(color) ? colorArray.indexOf(color) : 0;
			var index = (oldIndex + 1) % colorArray.length;
			setFillAndMask(element,colorArray[index]);
		}

		function randomFill(element,colorArray) {
			//Fill in a tile at random from a provided color list (colorArray) or from the full color list.
			if (!colorArray || colorArray.length == 0) 
				colorArray = fullColors.slice(0);
			var index = Math.floor(colorArray.length*Math.random());
			setFillAndMask(element,colorArray[index]);
		}

		function seedLocations() {
			//Place one location each away from the edges and at least n=2? hexes apart.
			//TODO: Verify on real boards.
			//TODO: Relax these restrictions in free edit mode.
			var omitNegSextant = Math.floor(Math.random()*3);
			var omitPosSextant = Math.floor(Math.random()*3) + 3;
			var j = 0;
			var element, row, col;

			for (i = 0; i < 6; i++) {
				if (i != omitNegSextant && i != omitPosSextant) {

					while (!element || element.getAttribute("edge") == 1) {

						col = Math.floor(Math.random()*4);
						if (i % 2 == 0)
							col = -col;

						row = Math.floor(Math.random()*4); //use "horizontal" row numbers
						if (i < 3)
							row = -row;

						element = document.getElementById("h:" + col + ":" + row);
					}

					//color and mark with a class
					setFillAndMask(element,locationColor,j);
					element.setAttribute("class","locationClass");

					//seed some terrain here
					seedLocationTerrain(element,2*j);
					seedLocationIce(row,col);

					element = undefined;
					j += 1;
				}
			}

			function seedLocationTerrain(element,colorIndex) {
				//Add two different terrain elements placed randomly next to the location, cycling through terrain array.
				var neighborTiles = getLocalTiles(element);

				//first tile
				var index = Math.floor(neighborTiles.length * Math.random());
				var color = nearLocationColors[colorIndex % nearLocationColors.length];
				setFillAndMask(document.getElementById(neighborTiles[index]),color);
				neighborTiles.splice(index,1);
				//second tile
				index = Math.floor(neighborTiles.length * Math.random());
				color = nearLocationColors[(colorIndex + 1) % nearLocationColors.length];
				setFillAndMask(document.getElementById(neighborTiles[index]),color);
			}

			function seedLocationIce(row,col) {
				//Locations tend to be separated by water (ice)
				var seedCol, seedRow = Math.floor(Math.random()) + 7;

				switch (Math.floor(Math.random()*3)) {
					case 0:
						//use both seeds
						break;
					case 1:
						//use random seedRow
						seedRow = row + (Math.floor(Math.random()*3) - 1);
						break;
					case 2:
						//use random seedCol
						seedCol = col + (Math.floor(Math.random()*3) - 1);
						break;
					case 3:
						//use random only
						seedRow = row + (Math.floor(Math.random()*3) - 1);
						seedCol = col + (Math.floor(Math.random()*3) - 1);
						break;
					case 4:
						//do nothing
						return;
				}

				var candidate = document.getElementById("h:" + seedRow + ":" + seedCol);

				if (candidate && !candidate.getAttribute("fill")) {
					setFillAndMask(candidate,iceColor);
				}
			}
		}

		function seedTerrain(seeds) {
			//Extra seeding for the terrain, on top of what was added with seedLocations().
			
			for (i = 0; i < seeds; i++) {
				var row, col;

				row = Math.floor(Math.random()*10) - 4;
				col = Math.floor(Math.random()*10) - 4;

				if (!document.getElementById("h:" + row + ":" + col) || document.getElementById("h:" + row + ":" + col).getAttribute("fill"))
					i = i - 1;
				else
					setFillAndMask(document.getElementById("h:" + row + ":" + col),fullColors[i % fullColors.length]);
			}
		}

		function setFillAndMask(element,color,index) {
			element.setAttribute("fill",color);
			applyMask(element,color,index);
		}

		init();

	]]></script>


</svg>
