<?xml version="1.0" encoding="UTF-8" standalone="no"?>
<svg
   xmlns:dc="http://purl.org/dc/elements/1.1/"
   xmlns:cc="http://creativecommons.org/ns#"
   xmlns:rdf="http://www.w3.org/1999/02/22-rdf-syntax-ns#"
   xmlns:svg="http://www.w3.org/2000/svg"
   xmlns="http://www.w3.org/2000/svg"
   xmlns:xlink="http://www.w3.org/1999/xlink"
   xmlns:sodipodi="http://sodipodi.sourceforge.net/DTD/sodipodi-0.dtd"
   xmlns:inkscape="http://www.inkscape.org/namespaces/inkscape"
   viewBox="-0.7 25.655 51.32 66.79"
   width="49.215"
   height="67.292"
   version="1.1"
   id="svg32"
   sodipodi:docname="deck.svg"
   inkscape:version="0.92.2 5c3e80d, 2017-08-06">
  <metadata
     id="metadata38">
    <rdf:RDF>
      <cc:Work
         rdf:about="">
        <dc:format>image/svg+xml</dc:format>
        <dc:type
           rdf:resource="http://purl.org/dc/dcmitype/StillImage" />
        <dc:title></dc:title>
      </cc:Work>
    </rdf:RDF>
  </metadata>
  <defs
     id="defs36" />
  <sodipodi:namedview
     pagecolor="#ffffff"
     bordercolor="#666666"
     borderopacity="1"
     objecttolerance="10"
     gridtolerance="10"
     guidetolerance="10"
     inkscape:pageopacity="0"
     inkscape:pageshadow="2"
     inkscape:window-width="738"
     inkscape:window-height="480"
     id="namedview34"
     showgrid="false"
     viewbox-width="51.32"
     viewbox-x="-0.7"
     viewbox-height="66.79"
     inkscape:zoom="3.5071034"
     inkscape:cx="24.6075"
     inkscape:cy="33.646"
     inkscape:window-x="0"
     inkscape:window-y="0"
     inkscape:window-maximized="0"
     inkscape:current-layer="svg32" />
  <g
     id="g4492"
     transform="translate(-6.381699,-309.80225)">
    <rect
       ry="2.0803924"
       y="339.45767"
       x="6.8816986"
       height="63.291439"
       width="45.208172"
       id="rect4401"
       style="fill:#ffffff;fill-opacity:1;fill-rule:nonzero;stroke:#000000;stroke-width:1;stroke-miterlimit:4;stroke-dasharray:none;stroke-opacity:1" />
    <rect
       style="fill:#ffffff;fill-opacity:1;fill-rule:nonzero;stroke:#000000;stroke-width:1;stroke-miterlimit:4;stroke-dasharray:none;stroke-opacity:1"
       id="rect4399"
       width="45.208172"
       height="63.291439"
       x="8.8816986"
       y="337.45767"
       ry="2.0803924" />
    <g
       style="font-style:normal;font-variant:normal;font-weight:normal;font-stretch:normal;font-size:10px;line-height:100%;font-family:'Fortune Letters';-inkscape-font-specification:'Fortune Letters';text-align:center;writing-mode:lr-tb;text-anchor:middle"
       id="g4209">
      <rect
         ry="2.0803924"
         y="335.45676"
         x="10.888397"
         height="63.291439"
         width="45.208172"
         id="rect5415"
         style="font-style:normal;font-variant:normal;font-weight:normal;font-stretch:normal;font-size:10px;line-height:100%;font-family:'Fortune Letters';-inkscape-font-specification:'Fortune Letters';text-align:center;writing-mode:lr-tb;text-anchor:middle;fill:#ffffff;fill-opacity:1;fill-rule:nonzero;stroke:#000000;stroke-width:1;stroke-linecap:round;stroke-linejoin:round;stroke-miterlimit:4;stroke-dasharray:none;stroke-opacity:1" />
      <path
         style="font-style:normal;font-variant:normal;font-weight:normal;font-stretch:normal;font-size:10px;line-height:100%;font-family:'Fortune Letters';-inkscape-font-specification:'Fortune Letters';text-align:center;writing-mode:lr-tb;text-anchor:middle;fill:#ffffff;fill-opacity:1;fill-rule:nonzero;stroke:#000000;stroke-width:1;stroke-linecap:round;stroke-linejoin:round;stroke-miterlimit:4;stroke-dasharray:none;stroke-opacity:1"
         d="m 12.96875,335.46875 c -1.152537,0 -2.09375,0.90997 -2.09375,2.0625 v 1.875 l 5.1875,3.46875 c -0.393161,0.5818 -0.673101,1.22356 -0.8125,1.9375 l -4.375,-0.84375 V 347.75 l 4.375,-0.84375 c 0.140402,0.70825 0.422089,1.35978 0.8125,1.9375 l -5.1875,3.46875 v 7.90625 l 6.65625,-9.90625 c 0.577211,0.38646 1.231336,0.64337 1.9375,0.78125 L 10.875,394.875 v 1.78125 c 0,1.15254 0.941212,2.09375 2.09375,2.09375 H 30.875 l -9.34375,-47.65625 c 0.706163,-0.13787 1.360288,-0.39478 1.9375,-0.78125 l 32.0625,47.78125 c 0.356738,-0.37313 0.5625,-0.87813 0.5625,-1.4375 v -26.9375 l -31.15625,-20.875 c 0.390409,-0.57773 0.6721,-1.22927 0.8125,-1.9375 L 56.09375,352.875 V 338.84375 L 25.75,344.8125 c -0.139401,-0.71395 -0.419339,-1.3557 -0.8125,-1.9375 L 36,335.46875 H 27.46875 L 23.5,341.4375 c -0.581797,-0.39315 -1.254814,-0.6731 -1.96875,-0.8125 l 1,-5.15625 h -4.0625 l 1,5.15625 c -0.713936,0.13938 -1.386953,0.41934 -1.96875,0.8125 l -3.96875,-5.96875 z"
         id="rect9065"
         inkscape:connector-curvature="0" />
      <path
         style="font-style:normal;font-variant:normal;font-weight:normal;font-stretch:normal;font-size:24.47032738px;line-height:100%;font-family:'Fortune Letters';-inkscape-font-specification:'Fortune Letters';text-align:center;writing-mode:lr-tb;text-anchor:middle;fill:#ffffff;fill-opacity:1;stroke:#000000;stroke-width:2.44703245;stroke-linecap:round;stroke-linejoin:round;stroke-miterlimit:4;stroke-dasharray:none;stroke-opacity:1"
         id="path8279"
         d="m 67.142858,465.53183 a 13.080358,13.080358 0 1 1 -26.160716,0 13.080358,13.080358 0 1 1 26.160716,0 z"
         transform="matrix(0.4086582,0,0,0.4086582,-1.5930914,155.61473)"
         inkscape:connector-curvature="0" />
      <path
         style="font-style:normal;font-variant:normal;font-weight:normal;font-stretch:normal;font-size:10px;line-height:100%;font-family:'Fortune Letters';-inkscape-font-specification:'Fortune Letters';text-align:center;writing-mode:lr-tb;text-anchor:middle;fill:#ffffff;fill-opacity:1;fill-rule:evenodd;stroke:#000000;stroke-width:1px;stroke-linecap:round;stroke-linejoin:round;stroke-opacity:1"
         d="m 12.96875,398.75 h 2.125 C 12.174036,387.85348 23.253614,384.7945 25.857147,394.51102 18.5176,387.17147 17.064827,398.75 22.40625,398.75 h 3.1875"
         id="path9104"
         inkscape:connector-curvature="0" />
      <path
         style="font-style:normal;font-variant:normal;font-weight:normal;font-stretch:normal;font-size:10px;line-height:100%;font-family:'Fortune Letters';-inkscape-font-specification:'Fortune Letters';text-align:center;writing-mode:lr-tb;text-anchor:middle;fill:#ffffff;fill-opacity:1;fill-rule:evenodd;stroke:#000000;stroke-width:1px;stroke-linecap:round;stroke-linejoin:round;stroke-opacity:1"
         d="m 25.594,398.75 h 2.125 c -2.92,-10.897 8.16,-13.955 10.763,-4.239 -7.339,-7.34 -8.792,4.239 -3.451,4.239 h 3.188"
         id="use3570"
         inkscape:connector-curvature="0" />
      <path
         style="font-style:normal;font-variant:normal;font-weight:normal;font-stretch:normal;font-size:10px;line-height:100%;font-family:'Fortune Letters';-inkscape-font-specification:'Fortune Letters';text-align:center;writing-mode:lr-tb;text-anchor:middle;fill:#ffffff;fill-opacity:1;fill-rule:evenodd;stroke:#000000;stroke-width:1px;stroke-linecap:round;stroke-linejoin:round;stroke-opacity:1"
         d="m 38.219,398.75 h 2.125 c -2.92,-10.897 8.16,-13.955 10.763,-4.239 -7.339,-7.34 -8.792,4.239 -3.451,4.239 h 3.188"
         id="use3572"
         inkscape:connector-curvature="0" />
      <g
         id="g9081"
         transform="matrix(0.5338079,0,0,0.5338079,73.580971,136.30146)"
         style="font-style:normal;font-variant:normal;font-weight:normal;font-stretch:normal;font-size:18.73333168px;line-height:100%;font-family:'Fortune Letters';-inkscape-font-specification:'Fortune Letters';text-align:center;writing-mode:lr-tb;text-anchor:middle;stroke:#000000;stroke-width:1.8733331;stroke-linecap:round;stroke-linejoin:round;stroke-miterlimit:4;stroke-dasharray:none;stroke-opacity:1">
        <path
           style="font-style:normal;font-variant:normal;font-weight:normal;font-stretch:normal;font-size:18.73333168px;line-height:100%;font-family:'Fortune Letters';-inkscape-font-specification:'Fortune Letters';text-align:center;writing-mode:lr-tb;text-anchor:middle;fill:#eeeeec;fill-opacity:1;stroke:#ffffff;stroke-width:3.74666619;stroke-linecap:round;stroke-linejoin:round;stroke-miterlimit:4;stroke-dasharray:none;stroke-opacity:1"
           id="path4526"
           d="m -58.09375,390.03125 c -4.507438,0.97573 -7.906248,5.04564 -7.90625,9.84375 3e-6,4.7981 3.398811,8.77427 7.90625,9.75 -1.698482,-1.72569 -2.875,-5.40464 -2.875,-9.75 0,-4.34538 1.176517,-8.11807 2.875,-9.84375 z"
           xlink:href="#path9083"
           inkscape:connector-curvature="0" />
        <path
           id="path9083"
           style="font-style:normal;font-variant:normal;font-weight:normal;font-stretch:normal;font-size:18.73333168px;line-height:100%;font-family:'Fortune Letters';-inkscape-font-specification:'Fortune Letters';text-align:center;writing-mode:lr-tb;text-anchor:middle;fill:#ffffff;fill-opacity:1;stroke:#000000;stroke-width:1.8733331;stroke-linecap:round;stroke-linejoin:round;stroke-miterlimit:4;stroke-dasharray:none;stroke-opacity:1"
           d="m -58.107928,390.02522 c -4.507439,0.97572 -7.903122,5.03689 -7.903124,9.835 0,4.79811 3.395685,8.80073 7.903124,9.77646 -1.698483,-1.72568 -2.868541,-5.4311 -2.868541,-9.77646 2e-6,-4.34537 1.170058,-8.10932 2.868541,-9.835 z"
           inkscape:connector-curvature="0" />
      </g>
      <path
         style="font-style:normal;font-variant:normal;font-weight:normal;font-stretch:normal;font-size:10px;line-height:100%;font-family:'Fortune Letters';-inkscape-font-specification:'Fortune Letters';text-align:center;writing-mode:lr-tb;text-anchor:middle;fill:none;fill-opacity:1;fill-rule:evenodd;stroke:#000000;stroke-width:1px;stroke-linecap:round;stroke-linejoin:round;stroke-opacity:1"
         d="m 31.927884,396.05229 c 0.312678,1.43034 1.33618,2.69771 3.103366,2.69771 h 3.1875"
         id="path2994"
         inkscape:connector-curvature="0" />
      <path
         style="font-style:normal;font-variant:normal;font-weight:normal;font-stretch:normal;font-size:10px;line-height:100%;font-family:'Fortune Letters';-inkscape-font-specification:'Fortune Letters';text-align:center;writing-mode:lr-tb;text-anchor:middle;fill:none;fill-opacity:1;fill-rule:evenodd;stroke:#000000;stroke-width:1px;stroke-linecap:round;stroke-linejoin:round;stroke-opacity:1"
         d="m 32.001335,393.87818 c -0.20737,0.6689 -0.233317,1.4428 -0.07345,2.17411"
         id="path2992"
         inkscape:connector-curvature="0" />
      <path
         style="font-style:normal;font-variant:normal;font-weight:normal;font-stretch:normal;font-size:10px;line-height:100%;font-family:'Fortune Letters';-inkscape-font-specification:'Fortune Letters';text-align:center;writing-mode:lr-tb;text-anchor:middle;fill:none;fill-opacity:1;fill-rule:evenodd;stroke:#000000;stroke-width:1px;stroke-linecap:round;stroke-linejoin:round;stroke-opacity:1"
         d="m 25.59375,398.75 h 2.125 c -1.626362,-6.06967 1.090977,-9.7075 4.2675,-10.06005"
         id="use2982"
         inkscape:connector-curvature="0" />
      <g
         style="font-style:normal;font-variant:normal;font-weight:normal;font-stretch:normal;font-size:10px;line-height:100%;font-family:'Fortune Letters';-inkscape-font-specification:'Fortune Letters';text-align:center;writing-mode:lr-tb;text-anchor:middle"
         id="g3886"
         transform="translate(0,1.149048)">
        <path
           style="font-style:normal;font-variant:normal;font-weight:normal;font-stretch:normal;font-size:10px;line-height:100%;font-family:'Fortune Letters';-inkscape-font-specification:'Fortune Letters';text-align:center;writing-mode:lr-tb;text-anchor:middle;fill:#ffffff;fill-opacity:1;stroke:#ffffff;stroke-width:1;stroke-linecap:round;stroke-linejoin:round;stroke-miterlimit:4;stroke-dasharray:none;stroke-opacity:1"
           id="path3890"
           d="m 24.375,374.34375 c -0.3205,-0.06 -0.87875,0.007 -1.34375,0.0937 -0.465,0.088 -0.845951,0.18749 -1.03125,0.0625 v 1 c 0,0 0.4172,-0.0175 0.8125,0.0625 0.3952,0.081 0.75,0.25001 0.75,0.25 0,0 0.365501,0.14176 0.6875,0.34375 0.3219,0.202 0.593749,0.46875 0.59375,0.46875 0,0 0.0625,0.0312 0.0625,0.0312 0,0 0.329249,0.30001 0.59375,0.625 0.2645,0.325 0.46875,0.65625 0.46875,0.65625 0,0 0.185199,0.33649 0.3125,0.6875 0.1273,0.351 0.187501,0.71874 0.1875,0.71875 0,0 -1e-6,0.0625 0,0.0625 0,0 0.03835,0.27275 0.03125,0.59375 0.0101,0.458 -0.125,1 -0.125,1 0,0 -0.0929,0.37776 -0.25,0.71875 -0.157,0.342 -0.375,0.65625 -0.375,0.65625 0,0 -0.03125,0.0625 -0.03125,0.0625 0,0 -0.23955,0.32301 -0.53125,0.625 -0.2917,0.302 -0.624999,0.5625 -0.625,0.5625 0,0 -0.290701,0.23024 -0.625,0.40625 -0.3343,0.176 -0.6875,0.28125 -0.6875,0.28125 0,0 -0.0625,0.0313 -0.0625,0.0312 0,0 -0.17245,0.0477 -0.40625,0.0937 -0.2337,0.046 -0.543151,0.0685 -0.78125,0.0625 -0.3628,-0.003 -0.624999,0.0625 -0.625,0.0625 0,0 -0.5514,0.0865 -1.0625,0.3125 -0.5111,0.227 -0.96875,0.59376 -0.96875,0.59375 0,0 -0.0625,0.0625 -0.0625,0.0625 0,0 -0.4932,0.43725 -0.8125,1.03125 -0.24,0.525 -0.375001,1.03124 -0.375,1.03125 0,0 -0.123299,0.50999 -0.1875,1 -0.0642,0.49 -0.09375,0.96875 -0.09375,0.96875 0,0 -1e-6,0.0625 0,0.0625 0,0 -0.0094,0.55749 0,1.0625 0.0086,0.564 0.125001,1.09376 0.125,1.09375 0,0 0.09595,0.52201 0.28125,1 0.1853,0.479 0.468749,0.90624 0.46875,0.90625 0,0 0.03125,0.0937 0.03125,0.0937 0,0 0.28965,0.48524 0.65625,0.90625 0.3667,0.421 0.812501,0.75001 0.8125,0.75 0,0 0.371099,0.33576 0.8125,0.59375 0.4415,0.258 0.937499,0.43751 0.9375,0.4375 0,0 0.09375,0.0312 0.09375,0.0312 0,0 0.330599,0.12276 0.75,0.21875 0.4194,0.095 0.917249,0.15225 1.21875,0.15625 0.1647,0.002 0.28125,10e-6 0.28125,0 0,0 0.56525,-0.0397 1.09375,-0.21875 0.5284,-0.179 0.96875,-0.5 0.96875,-0.5 0,0 0.09375,-0.0625 0.09375,-0.0625 0,0 0.2064,-0.11476 0.4375,-0.34375 0.2312,-0.228 0.473749,-0.56725 0.65625,-0.90625 0.1807,-0.396 0.281249,-0.71875 0.28125,-0.71875 0,0 0.166399,-0.508 0.25,-1 0.0837,-0.493 0.09375,-0.96876 0.09375,-0.96875 0,0 1e-6,-0.0937 0,-0.0937 0,0 0.04205,-0.80201 0.03125,-1.375 0.0067,-0.356 1e-6,-0.62501 0,-0.625 0,0 0.0048,-0.458 0.03125,-0.875 0.0265,-0.416 0.09375,-0.78126 0.09375,-0.78125 0,0 0,-0.0625 0,-0.0625 0,0 0.03695,-0.16299 0.09375,-0.375 0.0568,-0.212 0.142901,-0.48251 0.25,-0.6875 0.0802,-0.213 0.21875,-0.34374 0.21875,-0.34375 0,0 0.190449,-0.24525 0.46875,-0.40625 0.2782,-0.16 0.625,-0.25001 0.625,-0.25 0,0 0.0625,10e-6 0.0625,0 0,0 0.30825,-0.0877 0.65625,-0.0937 0.3952,0.006 0.812501,0.12499 0.8125,0.125 0,0 0.324251,0.11224 0.59375,0.28125 0.2695,0.169 0.46875,0.40626 0.46875,0.40625 0,0 0.03125,0.0312 0.03125,0.0312 0,0 0.0658,0.093 0.125,0.25 0.108,0.207 0.218848,0.49701 0.28125,0.75 0.0625,0.252 0.09375,0.46875 0.09375,0.46875 0,0 0.0392,0.39349 0.0625,0.8125 0.0232,0.42 0.03125,0.84375 0.03125,0.84375 0,0 -2e-6,0.0937 0,0.0937 0,0 -0.005,0.17249 0,0.4375 -0.0054,0.291 -0.0095,0.67901 0,1 0.0095,0.322 0.03125,0.59374 0.03125,0.59375 0,0 0.0337,0.47576 0.125,0.96875 0.0914,0.493 0.281249,1.00001 0.28125,1 0,0 10e-7,0.0625 0,0.0625 0,0 0.08275,0.23325 0.21875,0.53125 0.186,0.346 0.501251,0.74099 0.78125,1 0.2799,0.259 0.500001,0.40626 0.5,0.40625 0,0 0.497452,0.2765 1.03125,0.4375 0.5337,0.162 1.09375,0.18751 1.09375,0.1875 0,0 0.09375,0 0.09375,0 0,0 0.0072,0 0.03125,0 0.1526,0.002 0.776601,-0.0155 1.3125,-0.1875 0.5358,-0.171 0.968751,-0.46875 0.96875,-0.46875 0,0 0.254251,-0.17449 0.53125,-0.4375 0.277,-0.263 0.552351,-0.6285 0.71875,-0.9375 0.0991,-0.217 0.156249,-0.37498 0.15625,-0.375 0,0 0.03125,-0.0937 0.03125,-0.0937 0,0 0.208399,-0.52351 0.3125,-1.0625 0.1042,-0.54 0.125001,-1.06249 0.125,-1.0625 0,0 0.02265,-0.27276 0.03125,-0.59375 0.0086,-0.322 0.0049,-0.70976 0,-0.96875 0.0036,-0.19 -10e-7,-0.31251 0,-0.3125 0,0 -2e-6,-0.0625 0,-0.0625 0,0 0.0074,-0.50875 0.03125,-0.96875 0.0237,-0.461 0.09375,-0.875 0.09375,-0.875 0,0 0.02935,-0.21675 0.09375,-0.46875 0.0644,-0.252 0.18575,-0.53576 0.28125,-0.71875 0.0419,-0.111 0.0625,-0.18749 0.0625,-0.1875 0,0 0.03125,-0.0312 0.03125,-0.0312 0,0 0.178852,-0.27875 0.46875,-0.46875 0.2899,-0.189 0.656252,-0.28125 0.65625,-0.28125 0,0 0.40735,-0.11899 0.78125,-0.125 0.3001,0.005 0.593749,0.0625 0.59375,0.0625 0,0 0.03125,-10e-6 0.03125,0 0,0 0.378598,0.11026 0.6875,0.28125 0.3089,0.171 0.531251,0.40625 0.53125,0.40625 0,0 0.1116,0.14274 0.1875,0.34375 0.1946,0.373 0.312502,0.93751 0.3125,0.9375 0,0 0.03125,0.0625 0.03125,0.0625 0,0 0.06285,0.42098 0.09375,0.875 0.0308,0.454 0.03125,0.93749 0.03125,0.9375 0,0 0.02495,0.25774 0.03125,0.59375 -0.0098,0.521 -10e-7,1.21876 0,1.21875 0,0 -10e-7,0.0937 0,0.0937 0,0 0.0376,0.52449 0.125,1.0625 0.0875,0.539 0.250001,1.09376 0.25,1.09375 0,0 0.0789,0.3135 0.25,0.6875 0.1655,0.308 0.393349,0.60251 0.59375,0.8125 0.2004,0.211 0.374999,0.34374 0.375,0.34375 0,0 0.09375,0.0625 0.09375,0.0625 0,0 0.487402,0.35749 1.0625,0.5625 0.575,0.206 1.187499,0.25 1.1875,0.25 0,0 0.07705,0.002 0.21875,0 0.2844,0.003 0.807451,-0.0362 1.21875,-0.15625 0.4114,-0.121 0.718749,-0.31249 0.71875,-0.3125 0,0 0.09375,-0.0312 0.09375,-0.0312 0,0 0.312249,-0.16976 0.65625,-0.46875 0.344,-0.3 0.704302,-0.7455 0.875,-1.0625 0.0783,-0.171 0.09375,-0.28126 0.09375,-0.28125 0,0 0.198801,-0.50601 0.3125,-1 0.1136,-0.494 0.15625,-0.96876 0.15625,-0.96875 0,0 0.03125,-0.0938 0.03125,-0.0937 0,0 0.01725,-0.33176 0.03125,-0.71875 0.0141,-0.387 0.0049,-0.83076 0,-1.09375 10e-4,-0.151 10e-7,-0.25001 0,-0.25 0,0 -0.0021,-0.43701 0,-0.875 0.002,-0.439 0.03125,-0.87501 0.03125,-0.875 0,0 -10e-7,-0.0625 0,-0.0625 0,0 2.49e-4,-0.23526 0.03125,-0.53125 0.031,-0.295 0.09595,-0.66326 0.15625,-0.90625 0.0549,-0.141 0.09375,-0.21874 0.09375,-0.21875 0,0 0.122,-0.32401 0.25,-0.5 0.0639,-0.088 0.141502,-0.11899 0.1875,-0.125 0.046,-0.007 0.0625,0 0.0625,0 0,0 0.03125,0.0313 0.03125,0.0312 0,0 0,-0.99901 0,-1 0,0 -0.09375,0 -0.09375,0 0.0112,-0.03 0.07525,-0.53149 0.03125,-0.6875 -0.2826,0.101 -0.578399,0.33924 -0.8125,0.65625 -0.234,0.316 -0.406252,0.73601 -0.59375,1.25 0,0 -0.380799,-0.34549 -0.5625,-0.4375 -0.0477,0.192 -0.0468,0.45174 0,0.71875 0.1213,0.686 0.41965,1.42749 0.21875,1.6875 0,0 0,0.0938 0,0.0937 -0.0294,-0.014 -0.522301,-0.10874 -0.6875,-0.0937 0.0954,0.356 0.655899,0.866 0.6875,1.875 0,0 -0.487999,-0.12101 -0.6875,-0.125 0.0312,0.109 0.08915,0.22899 0.15625,0.375 0.2604,0.601 0.693749,1.45275 0.46875,1.71875 0,0 2e-6,0.0937 0,0.0937 -0.0289,-0.015 -0.5216,-0.131 -0.6875,-0.125 0.0457,0.156 0.176849,0.36025 0.28125,0.65625 0.1043,0.295 0.173498,0.70425 0,1.15625 0,0 -0.379201,-0.30099 -0.5625,-0.375 -0.0045,0.098 -0.0031,0.22901 0,0.375 0.0411,0.259 0.0026,0.59799 -0.125,0.875 -0.1275,0.276 -0.335299,0.4615 -0.5,0.4375 0,0 -0.0625,0.0312 -0.0625,0.0312 -0.0034,-0.032 -0.191149,-0.45775 -0.28125,-0.59375 -0.0761,0.097 -0.137001,0.26576 -0.3125,0.46875 -0.1755,0.203 -0.484249,0.42674 -0.90625,0.46875 -0.0571,0.006 -0.09495,0.002 -0.15625,0 0,0 0.15025,-0.4885 0.15625,-0.6875 -0.212,0.071 -0.61995,0.28976 -1.03125,0.34375 -0.4112,0.054 -0.814599,-0.053 -0.875,-0.25 0,0 -0.0625,-0.0312 -0.0625,-0.0312 0.0268,-0.016 0.384051,-0.39424 0.46875,-0.53125 -0.0971,-0.017 -0.252901,0.002 -0.4375,-0.0312 -0.1846,-0.033 -0.405751,-0.10251 -0.59375,-0.3125 -0.1229,-0.135 -0.236299,-0.31726 -0.3125,-0.53125 0,0 0.5003,-0.0317 0.6875,-0.0937 -0.1498,-0.188 -0.480849,-0.48076 -0.71875,-0.84375 -0.238,-0.362 -0.398249,-0.75349 -0.28125,-0.9375 0,0 -10e-7,-0.0937 0,-0.0937 0.0308,0.01 0.523002,0.0612 0.6875,0.0312 -0.1004,-0.237 -0.457598,-0.60476 -0.625,-1.21875 -0.0475,-0.182 -0.08485,-0.39199 -0.09375,-0.625 0,0 0.486902,0.15224 0.6875,0.15625 -0.0768,-0.286 -0.312948,-0.74226 -0.53125,-1.15625 -0.2183,-0.415 -0.3972,-0.76476 -0.3125,-0.96875 0,0 -0.03125,-0.0938 -0.03125,-0.0937 0.0317,0.006 0.533299,-0.0357 0.6875,-0.0937 -0.1491,-0.264 -0.571401,-0.56974 -1,-1.09375 -0.1291,-0.154 -0.253749,-0.32601 -0.40625,-0.5 0,0 0.463999,-0.13901 0.625,-0.25 -0.2797,-0.244 -0.831601,-0.48651 -1.3125,-0.5625 -0.4809,-0.076 -0.877749,-0.0215 -1.03125,-0.1875 0,0 -0.09375,-0.0312 -0.09375,-0.0312 0.0185,-0.027 0.20975,-0.49026 0.21875,-0.65625 -0.2428,0.011 -0.5944,0.1415 -1,0.3125 -0.3039,0.124 -0.634501,0.26226 -1.0625,0.40625 0,0 0.01265,-0.4925 -0.03125,-0.6875 -0.3139,0.163 -0.729001,0.59301 -1,1 -0.271,0.406 -0.38605,0.76076 -0.59375,0.84375 0,0 -0.0625,0.0625 -0.0625,0.0625 -0.018,-0.026 -0.38045,-0.34026 -0.53125,-0.40625 -0.0469,0.126 -0.0573,0.27476 -0.0625,0.46875 0.0237,0.427 0.102901,0.97651 0,1.6875 0,0 -0.462952,-0.23826 -0.65625,-0.28125 0.0133,0.319 0.185451,0.81101 0.34375,1.25 0.1582,0.44 0.28225,0.81899 0.15625,1 0,0 -2e-6,0.0938 0,0.0937 -0.0302,-0.012 -0.522602,-0.0845 -0.6875,-0.0625 0.037,0.106 0.126449,0.22799 0.21875,0.375 0.1948,0.323 0.463401,0.77874 0.4375,1.46875 0,0 -0.45595,-0.14024 -0.65625,-0.15625 0.0645,0.265 0.264401,0.67576 0.375,1.09375 0.1106,0.417 0.113801,0.81951 -0.0625,0.9375 0,0 -0.03125,0.0937 -0.03125,0.0937 -0.0235,-0.022 -0.466101,-0.2715 -0.625,-0.3125 0.0028,0.094 0.0373,0.217 0.0625,0.375 0.0436,0.154 0.061,0.37876 0,0.59375 -0.061,0.214 -0.20465,0.44599 -0.46875,0.625 0,0 -0.170948,-0.46399 -0.28125,-0.625 -0.1143,0.167 -0.294749,0.50924 -0.59375,0.78125 -0.2991,0.272 -0.6871,0.43875 -0.875,0.34375 -0.0101,-0.006 -0.02235,-0.0242 -0.03125,-0.0312 0,0 -0.0625,-1e-5 -0.0625,0 0.0123,-0.029 0.0771,-0.5225 0.0625,-0.6875 -0.1266,0.054 -0.312048,0.21351 -0.59375,0.3125 -0.2818,0.099 -0.686649,0.14325 -1.09375,-0.0937 0,0 0.3381,-0.33099 0.4375,-0.5 -0.1533,-0.02 -0.39375,-0.0257 -0.65625,-0.0937 -0.2625,-0.067 -0.520501,-0.22024 -0.6875,-0.40625 -0.1378,-0.151 -0.220199,-0.29026 -0.1875,-0.40625 0,0 -0.03125,-0.0937 -0.03125,-0.0937 0.0318,0.001 0.509349,-0.0842 0.65625,-0.15625 -0.1001,-0.108 -0.295001,-0.23776 -0.5,-0.46875 -0.2049,-0.231 -0.421549,-0.59476 -0.46875,-1.09375 0,0 0.518851,0.10576 0.71875,0.0937 -0.1379,-0.361 -0.6083,-1.08076 -0.75,-1.59375 -0.0529,-0.197 -0.0688,-0.36776 0,-0.46875 0,0 10e-7,-0.0625 0,-0.0625 0.0303,0.012 0.522201,0.0563 0.6875,0.0312 -0.0584,-0.17 -0.207298,-0.38849 -0.375,-0.6875 -0.1676,-0.299 -0.3396,-0.65124 -0.4375,-1.15625 0,0 0.4898,0.0543 0.6875,0.0312 -0.0897,-0.214 -0.276701,-0.50325 -0.5,-0.78125 -0.2232,-0.278 -0.480849,-0.54 -0.65625,-0.75 -0.134,-0.158 -0.212149,-0.28725 -0.21875,-0.40625 0,0 -0.0625,-0.0625 -0.0625,-0.0625 0.0307,-0.008 0.4524,-0.22374 0.5625,-0.34375 -0.1769,-0.136 -0.460098,-0.25076 -0.8125,-0.34375 -0.3525,-0.094 -0.744001,-0.1655 -1.25,-0.3125 0,0 0.3012,-0.40874 0.375,-0.59375 -0.3759,-0.053 -1.0215,0.061 -1.5,0.25 -0.4107,0.159 -0.70985,0.35024 -0.90625,0.28125 0,0 -0.09375,0.0312 -0.09375,0.0312 0.0039,-0.032 -0.0552,-0.5365 -0.125,-0.6875 -0.1826,0.11 -0.36405,0.33901 -0.59375,0.625 -0.2296,0.286 -0.51525,0.62626 -0.84375,1.03125 0,0 -0.239001,-0.45574 -0.375,-0.59375 -0.1379,0.222 -0.24135,0.58874 -0.28125,0.96875 -0.0252,0.645 0.0757,1.26874 -0.125,1.46875 0,0 1e-6,0.0625 0,0.0625 -0.0272,-0.017 -0.49085,-0.15125 -0.65625,-0.15625 0.0208,0.192 0.1296,0.42699 0.25,0.75 0.1205,0.323 0.2429,0.70674 0.25,1.21875 0,0 -0.486601,-0.14625 -0.6875,-0.15625 0.0528,0.215 0.197749,0.50949 0.34375,0.8125 0.2416,0.524 0.483499,1.09449 0.3125,1.3125 0,0 0,0.0938 0,0.0937 -0.0295,-0.014 -0.5212,-0.10574 -0.6875,-0.0937 0.0508,0.158 0.223449,0.36224 0.34375,0.65625 0.1202,0.295 0.196701,0.69126 0.0625,1.15625 0,0 -0.40545,-0.25349 -0.59375,-0.3125 0.0071,0.182 0.0546,0.44301 0.0625,0.75 0.0285,0.243 -0.032,0.51576 -0.125,0.71875 -0.0929,0.204 -0.21385,0.34574 -0.34375,0.34375 0,0 -0.0625,0.0312 -0.0625,0.0312 -0.0073,-0.031 -0.23795,-0.43949 -0.34375,-0.5625 -0.0636,0.112 -0.10815,0.3275 -0.28125,0.5625 -0.173,0.236 -0.48715,0.48825 -0.96875,0.53125 0,0 0.0793,-0.4885 0.0625,-0.6875 -0.0754,0.037 -0.171251,0.0942 -0.28125,0.15625 -0.2566,0.139 -0.6132,0.28176 -0.9375,0.34375 -0.3242,0.061 -0.590801,0.0483 -0.6875,-0.0937 0,0 -0.09375,-0.0313 -0.09375,-0.0312 0.0213,-0.024 0.24195,-0.46701 0.28125,-0.625 -0.1485,0.004 -0.34995,0.0827 -0.65625,0.0937 -0.3063,0.01 -0.707349,-0.0438 -1.09375,-0.34375 0,0 0.40605,-0.28349 0.53125,-0.4375 -0.2331,-0.086 -0.70095,-0.17074 -1.09375,-0.34375 -0.3928,-0.172 -0.7026,-0.44425 -0.6875,-0.65625 0,0 -0.03125,-0.0625 -0.03125,-0.0625 0.0314,-0.005 0.464449,-0.2115 0.59375,-0.3125 -0.122,-0.089 -0.34585,-0.16376 -0.59375,-0.34375 -0.2478,-0.18 -0.5176,-0.4665 -0.625,-0.9375 0,0 0.495,0.04 0.6875,0 -0.1206,-0.199 -0.3856,-0.53626 -0.5625,-0.90625 -0.1883,-0.428 -0.35445,-0.819 -0.21875,-1 0,0 -1e-6,-0.0937 0,-0.0937 0.0298,0.013 0.521199,0.0785 0.6875,0.0625 -0.0533,-0.16 -0.1827,-0.36224 -0.3125,-0.65625 -0.1299,-0.294 -0.233101,-0.68223 -0.125,-1.15625 0,0 0.4335,0.23224 0.625,0.28125 -0.0223,-0.244 -0.159251,-0.64951 -0.15625,-1.0625 -0.0225,-0.41 0.1666,-0.79349 0.375,-0.8125 0,0 0.0625,-0.0625 0.0625,-0.0625 0.0104,0.03 0.28935,0.45251 0.40625,0.5625 0.049,-0.115 0.07045,-0.34676 0.21875,-0.59375 0.1484,-0.248 0.429251,-0.54199 0.90625,-0.625 0,0 -0.0333,0.52174 0,0.71875 0.1213,-0.071 0.287799,-0.22274 0.5,-0.34375 0.3135,-0.135 0.6257,-0.3015 0.875,-0.4375 0.2493,-0.136 0.44885,-0.2315 0.59375,-0.1875 0,0 0.0625,-0.0313 0.0625,-0.0312 -0.0024,0.032 0.08265,0.51024 0.15625,0.65625 0.1634,-0.111 0.3389,-0.32575 0.5625,-0.59375 0.2236,-0.269 0.500051,-0.58926 0.90625,-0.90625 0,0 0.172349,0.49125 0.28125,0.65625 0.2156,-0.243 0.421949,-0.71524 0.59375,-1.15625 0.1718,-0.441 0.2945,-0.85549 0.5,-0.9375 0,0 0.0625,-0.0625 0.0625,-0.0625 0.0182,0.027 0.38155,0.36749 0.53125,0.4375 0.0569,-0.188 0.0533,-0.49374 0.0625,-0.84375 0.0093,-0.35 0.03905,-0.751 0.15625,-1.25 0,0 0.40675,0.28276 0.59375,0.34375 0.0207,-0.397 -0.161349,-1.09075 -0.34375,-1.59375 -0.1219,-0.328 -0.23015,-0.59301 -0.15625,-0.75 0,0 -1e-6,-0.0625 0,-0.0625 0.0313,0.007 0.500449,-0.0105 0.65625,-0.0625 -0.0879,-0.179 -0.295549,-0.39726 -0.53125,-0.65625 -0.2358,-0.259 -0.4877,-0.55799 -0.75,-1 0,0 0.510201,-0.10149 0.6875,-0.1875 -0.2132,-0.246 -0.677849,-0.52499 -1.09375,-0.75 -0.4159,-0.225 -0.788549,-0.41101 -0.84375,-0.625 0,0 -0.0625,-0.0313 -0.0625,-0.0312 0.0287,-0.015 0.4121,-0.35999 0.5,-0.5 -0.1794,-0.08 -0.4665,-0.10325 -0.8125,-0.15625 -0.3461,-0.054 -0.7713,-0.12751 -1.25,-0.3125 0,0 0.351499,-0.38551 0.4375,-0.5625 z"
           xlink:href="#path3851"
           inkscape:connector-curvature="0" />
        <path
           d="m 53.9814,388.566 c 0.2009,-0.26 -0.1215,-1.017 -0.2428,-1.703 0,0 0,0 0,0 -0.0468,-0.267 -0.0413,-0.53 0.0064,-0.722 0.1817,0.092 0.571,0.444 0.571,0.444 0.1875,-0.514 0.3648,-0.91 0.5988,-1.226 0.2341,-0.317 0.5302,-0.557 0.8128,-0.658 0.044,0.156 -0.0239,0.652 -0.0351,0.682 0,0 0.0878,-0.006 0.0878,-0.006 0,10e-4 0,0.992 0,0.992 0,0 -0.0203,-0.016 -0.0203,-0.016 0,0 -0.0291,-0.025 -0.0751,-0.018 -0.046,0.006 -0.1094,0.052 -0.1733,0.14 -0.128,0.176 -0.251,0.485 -0.251,0.485 0,0 -0.042,0.099 -0.0969,0.24 -0.0603,0.243 -0.1198,0.592 -0.1508,0.887 -0.031,0.296 -0.041,0.535 -0.041,0.535 m -1.0686,3.792 c 0.225,-0.266 -0.2194,-1.117 -0.4798,-1.718 -0.0671,-0.146 -0.1231,-0.28 -0.1543,-0.389 0.1995,0.004 0.6864,0.146 0.6864,0.146 -0.0316,-1.009 -0.5637,-1.538 -0.6591,-1.894 0.1652,-0.015 0.6512,0.072 0.6806,0.086 0,0 0.0043,-0.079 0.0043,-0.079 10e-4,0 0.9905,0.056 0.9905,0.056 0,0 -0.0037,0.074 -0.0037,0.074 0,0 -0.0169,0.422 -0.0189,0.861 -0.0021,0.438 0,0.892 0,0.892 0,0 10e-5,0.096 -9e-4,0.247 0,0 0,0 0,0 0.0049,0.263 0.0092,0.707 -0.0049,1.094 -0.014,0.387 -0.0468,0.712 -0.0468,0.712 m -2.5817,3.007 c 0.1647,0.024 0.3737,-0.175 0.5012,-0.451 0.1276,-0.277 0.1569,-0.62 0.1158,-0.879 -0.0031,-0.146 -0.0108,-0.272 -0.0063,-0.37 0.1833,0.074 0.5825,0.372 0.5825,0.372 0.1735,-0.452 0.1095,-0.847 0.0052,-1.142 -0.1044,-0.296 -0.2517,-0.503 -0.2974,-0.659 0.1659,-0.006 0.6513,0.096 0.6802,0.111 0,0 0.0071,-0.077 0.0071,-0.077 10e-4,0 0.9934,0.088 0.9934,0.088 0,0 -0.0087,0.085 -0.0087,0.085 0,0 -0.049,0.49 -0.1626,0.984 -0.1137,0.494 -0.3058,0.986 -0.3058,0.986 0,0 -0.0426,0.112 -0.1209,0.283 0,0 0,0 0,0 -0.1707,0.317 -0.5066,0.766 -0.8506,1.066 -0.344,0.299 -0.6713,0.468 -0.6713,0.468 m -3.9264,-1.094 c 0.0604,0.197 0.4679,0.298 0.8791,0.244 0.4113,-0.054 0.7954,-0.25 1.0074,-0.321 -0.006,0.199 -0.1496,0.679 -0.1496,0.679 0.0613,0.002 0.1206,0 0.1777,-0.006 0,0 0,0 0,0 0.422,-0.042 0.7128,-0.256 0.8883,-0.459 0.1755,-0.203 0.2474,-0.397 0.3235,-0.494 0.0901,0.136 0.2694,0.588 0.2728,0.62 0,0 0.0654,-0.034 0.0654,-0.034 5e-4,10e-4 0.4618,0.865 0.4618,0.865 0,0 -0.0861,0.047 -0.0861,0.047 0,0 -0.3184,0.172 -0.7298,0.293 -0.4113,0.12 -0.9115,0.168 -1.1959,0.165 0,0 0,0 0,0 -0.1417,0.002 -0.2302,-0.004 -0.2302,-0.004 0,0 -0.6163,-0.029 -1.1913,-0.235 -0.5751,-0.205 -1.0752,-0.582 -1.0752,-0.582 m -0.6721,-4.102 c -0.117,0.184 0.0409,0.575 0.2789,0.937 0.2379,0.363 0.5581,0.672 0.7079,0.86 -0.1872,0.062 -0.6846,0.093 -0.6846,0.093 0.0762,0.214 0.1857,0.387 0.3086,0.522 0.188,0.21 0.4115,0.293 0.5961,0.326 0.1846,0.033 0.3345,0.02 0.4316,0.037 -0.0847,0.137 -0.415,0.489 -0.4418,0.505 0,0 0.0575,0.044 0.0575,0.044 -6e-4,0.001 -0.5821,0.778 -0.5821,0.778 0,0 -0.0777,-0.061 -0.0777,-0.061 0,0 -0.1629,-0.124 -0.3633,-0.335 -0.2004,-0.21 -0.4305,-0.514 -0.596,-0.822 0,0 0,0 0,0 -0.1711,-0.374 -0.2675,-0.69 -0.2675,-0.69 0,0 -0.1696,-0.541 -0.2571,-1.08 -0.0874,-0.538 -0.1107,-1.066 -0.1107,-1.066 m 0.8005,-3.92 c -0.0847,0.204 0.1088,0.563 0.3271,0.978 0.2183,0.414 0.4624,0.873 0.5392,1.159 -0.2006,-0.004 -0.6906,-0.145 -0.6906,-0.145 0.0089,0.233 0.0414,0.438 0.0889,0.62 0.1674,0.614 0.5232,0.96 0.6236,1.197 -0.1645,0.03 -0.6612,-0.005 -0.692,-0.015 0,0 0.0035,0.078 0.0035,0.078 -0.001,0 -1.0002,0.048 -1.0002,0.048 0,0 -0.0042,-0.083 -0.0042,-0.083 0,0 -0.02,-0.704 -0.0102,-1.225 0,0 0,0 0,0 -0.0063,-0.336 -0.0104,-0.608 -0.0104,-0.608 0,0 -0.0046,-0.481 -0.0354,-0.935 -0.0309,-0.454 -0.106,-0.873 -0.106,-0.873 m -1.4964,-2.983 c 0.1535,0.166 0.5604,0.141 1.0413,0.217 0.4809,0.076 1.0305,0.291 1.3102,0.535 -0.161,0.111 -0.635,0.276 -0.635,0.276 0.1525,0.174 0.2881,0.334 0.4172,0.488 0.4286,0.524 0.8397,0.839 0.9888,1.103 -0.1542,0.058 -0.6441,0.096 -0.6758,0.09 0,0 0.0164,0.078 0.0164,0.078 -0.001,10e-4 -0.9667,0.196 -0.9667,0.196 0,0 -0.0131,-0.066 -0.0131,-0.066 0,0 -0.1232,-0.56 -0.3178,-0.933 0,0 0,0 0,0 -0.0759,-0.201 -0.1944,-0.337 -0.1944,-0.337 0,0 -0.211,-0.253 -0.5199,-0.424 -0.3089,-0.171 -0.6823,-0.255 -0.6823,-0.255 m -3.3399,0.238 c 0.2077,-0.083 0.3431,-0.456 0.6141,-0.862 0.271,-0.407 0.6849,-0.827 0.9988,-0.99 0.0439,0.195 0.0223,0.706 0.0223,0.706 0.428,-0.144 0.7727,-0.28 1.0766,-0.404 0.4056,-0.171 0.739,-0.32 0.9818,-0.331 -0.009,0.166 -0.1839,0.63 -0.2024,0.657 0,0 0.0798,0.018 0.0798,0.018 -2e-4,10e-4 -0.2311,0.968 -0.2311,0.968 0,0 -0.0583,-0.013 -0.0583,-0.013 0,0 -0.2697,-0.059 -0.5698,-0.064 -0.3739,0.006 -0.7867,0.118 -0.7867,0.118 0,0 -0.3654,0.104 -0.6553,0.293 -0.2899,0.19 -0.4707,0.46 -0.4707,0.46 m -1.5869,3.235 c 0.126,-0.181 -0.0072,-0.571 -0.1654,-1.011 -0.1583,-0.439 -0.3257,-0.941 -0.339,-1.26 0.1933,0.043 0.6412,0.277 0.6412,0.277 0.1029,-0.711 0.0275,-1.237 0.0038,-1.664 0,0 0,0 0,0 0.0052,-0.194 0.0261,-0.358 0.073,-0.484 0.1508,0.066 0.5104,0.392 0.5284,0.418 0,0 0.0458,-0.067 0.0458,-0.067 8e-4,0.001 0.7991,0.556 0.7991,0.556 0,0 -0.0265,0.043 -0.0265,0.043 0,0 -0.0436,0.068 -0.0855,0.179 -0.0955,0.183 -0.2042,0.467 -0.2686,0.719 -0.0644,0.252 -0.0944,0.465 -0.0944,0.465 0,0 -0.0621,0.428 -0.0858,0.889 -0.0238,0.46 -0.0272,0.946 -0.0272,0.946 m -1.3919,3.742 c 0.1763,-0.118 0.1698,-0.531 0.0592,-0.948 -0.1106,-0.418 -0.3167,-0.844 -0.3812,-1.109 0.2003,0.016 0.6806,0.185 0.6806,0.185 0.0259,-0.69 -0.2508,-1.151 -0.4456,-1.474 0,0 0,0 0,0 -0.0923,-0.147 -0.1716,-0.269 -0.2086,-0.375 0.1649,-0.022 0.6582,0.04 0.6884,0.052 0,0 2e-4,-0.079 2e-4,-0.079 0.001,0 0.9989,0.006 0.9989,0.006 0,0 -0.0013,0.077 -0.0013,0.077 0,0 -0.0018,0.129 -0.0054,0.319 0.0049,0.259 0.008,0.638 -6e-4,0.96 -0.0086,0.321 -0.0283,0.58 -0.0283,0.58 0,0 -0.0341,0.531 -0.1383,1.071 -0.1041,0.539 -0.2964,1.079 -0.2964,1.079 m -3.7483,1.501 c 0.0089,0.007 0.0184,0.012 0.0285,0.018 0.1879,0.095 0.5765,-0.075 0.8756,-0.347 0.299,-0.272 0.4851,-0.621 0.5994,-0.788 0.1103,0.161 0.2745,0.624 0.2745,0.624 0.2641,-0.179 0.4106,-0.414 0.4716,-0.628 0.061,-0.215 0.0394,-0.409 -0.0042,-0.563 -0.0252,-0.158 -0.0603,-0.282 -0.0631,-0.376 0.1589,0.041 0.5939,0.263 0.6174,0.285 0,0 0.027,-0.07 0.027,-0.07 10e-4,0 0.9216,0.344 0.9216,0.344 0,0 -0.032,0.086 -0.032,0.086 0,0 -0.055,0.151 -0.1541,0.368 -0.1664,0.309 -0.4529,0.693 -0.7299,0.956 -0.277,0.263 -0.528,0.419 -0.528,0.419 0,0 -0.446,0.297 -0.9818,0.468 -0.5359,0.172 -1.1414,0.198 -1.294,0.196 -0.024,0 -0.037,0 -0.037,0 m -2.781,-2.891 c -0.0327,0.116 0.0387,0.269 0.1765,0.42 0.167,0.186 0.4406,0.33 0.7031,0.397 0.2625,0.068 0.5104,0.066 0.6637,0.086 -0.0994,0.169 -0.4505,0.518 -0.4505,0.518 0.4071,0.237 0.8144,0.202 1.0962,0.103 0.2817,-0.099 0.4566,-0.256 0.5832,-0.31 0.0146,0.165 -0.0452,0.654 -0.0575,0.683 0,0 0.0748,0.002 0.0748,0.002 0,10e-4 -0.0085,0.992 -0.0085,0.992 0,0 -0.0969,-0.001 -0.0969,-0.001 0,0 -0.5626,-0.013 -1.0963,-0.175 -0.5338,-0.161 -1.0132,-0.467 -1.0132,-0.467 0,0 -0.2448,-0.148 -0.5247,-0.407 -0.28,-0.259 -0.5796,-0.643 -0.7656,-0.989 0,0 0,0 0,0 -0.136,-0.298 -0.2096,-0.519 -0.2096,-0.519 m 0.5518,-4.087 c -0.0688,0.101 -0.0582,0.265 -0.0053,0.462 0.1417,0.513 0.601,1.234 0.7389,1.595 -0.1999,0.012 -0.6968,-0.091 -0.6968,-0.091 0.0472,0.499 0.2472,0.846 0.4521,1.077 0.205,0.231 0.414,0.35 0.5141,0.458 -0.1469,0.072 -0.6226,0.183 -0.6544,0.182 0,0 0.0249,0.071 0.0249,0.071 -9e-4,0 -0.9253,0.333 -0.9253,0.333 0,0 -0.0297,-0.086 -0.0297,-0.086 0,0 -0.163,-0.494 -0.2544,-0.987 -0.0913,-0.493 -0.1246,-0.979 -0.1246,-0.979 0,0 -0.0201,-0.25 -0.0296,-0.572 -0.0095,-0.321 -0.0072,-0.71 -0.0018,-1.001 0,0 0,0 0,0 -0.005,-0.265 -0.0076,-0.455 -0.0076,-0.455 m 0.1757,-3.788 c 0.0066,0.119 0.0997,0.243 0.2337,0.401 0.1754,0.21 0.4263,0.467 0.6495,0.745 0.2233,0.278 0.4197,0.57 0.5094,0.784 -0.1977,0.023 -0.7001,-0.052 -0.7001,-0.052 0.0979,0.505 0.2599,0.882 0.4275,1.181 0.1677,0.299 0.3347,0.515 0.3931,0.685 -0.1653,0.025 -0.6595,-0.031 -0.6898,-0.043 0,0 5e-4,0.08 5e-4,0.08 -10e-4,0 -0.9995,0.007 -0.9995,0.007 0,0 -0.0014,-0.077 -0.0014,-0.077 0,0 -0.0043,-0.441 -0.0275,-0.861 -0.0233,-0.419 -0.0791,-0.811 -0.0791,-0.811 0,0 -0.0277,-0.207 -0.0902,-0.459 -0.0624,-0.253 -0.1689,-0.545 -0.2769,-0.752 0,0 0,0 0,0 -0.0592,-0.157 -0.1335,-0.255 -0.1335,-0.255 m -2.8109,-1.714 c 0.1964,0.069 0.509,-0.107 0.9197,-0.266 0.4785,-0.189 1.1115,-0.324 1.4874,-0.271 -0.0738,0.185 -0.3802,0.591 -0.3802,0.591 0.506,0.147 0.9076,0.24 1.2601,0.334 0.3524,0.093 0.648,0.189 0.8249,0.325 -0.1101,0.12 -0.5351,0.355 -0.5658,0.363 0,0 0.0491,0.065 0.0491,0.065 -8e-4,0 -0.7843,0.573 -0.7843,0.573 0,0 -0.0297,-0.041 -0.0297,-0.041 0,0 -0.1819,-0.237 -0.4514,-0.406 -0.2695,-0.169 -0.601,-0.267 -0.601,-0.267 0,0 -0.4139,-0.118 -0.8091,-0.124 -0.348,0.006 -0.6723,0.087 -0.6723,0.087 m -2.6619,1.869 c 0.2007,-0.2 0.0733,-0.803 0.0985,-1.448 0.0399,-0.38 0.1626,-0.747 0.3005,-0.969 0.136,0.138 0.38,0.574 0.38,0.574 0.3285,-0.405 0.5906,-0.724 0.8202,-1.01 0.2297,-0.286 0.4256,-0.522 0.6082,-0.632 0.0698,0.151 0.132,0.643 0.1281,0.675 0,0 0.079,-0.022 0.079,-0.022 2e-4,10e-4 0.2474,0.963 0.2474,0.963 0,0 -0.0576,0.015 -0.0576,0.015 0,0 -0.3357,0.089 -0.6139,0.249 -0.2783,0.161 -0.4736,0.39 -0.4736,0.39 0,0 -0.127,0.139 -0.2072,0.352 0,0 0,0 0,0 -0.1071,0.205 -0.2002,0.462 -0.257,0.674 -0.0568,0.212 -0.0834,0.376 -0.0834,0.376 m -1.16,3.684 c 0.171,-0.218 -0.0784,-0.795 -0.32,-1.319 -0.146,-0.303 -0.2881,-0.602 -0.3409,-0.817 0.2009,0.01 0.6883,0.165 0.6883,0.165 -0.0071,-0.512 -0.127,-0.905 -0.2475,-1.228 -0.1204,-0.323 -0.2432,-0.576 -0.264,-0.768 0.1654,0.005 0.6329,0.157 0.6601,0.174 0,0 0.0148,-0.078 0.0148,-0.078 0.001,0 0.9692,0.187 0.9692,0.187 0,0 -0.0117,0.067 -0.0117,0.067 0,0 -0.0616,0.388 -0.0881,0.804 -0.0265,0.417 -0.0316,0.856 -0.0316,0.856 0,0 -0.0043,0.282 -0.011,0.638 0,0 0,0 0,0 0.0108,0.573 -0.0179,1.372 -0.0179,1.372 m -2.2956,3.244 c 0.1299,0.002 0.2697,-0.135 0.3626,-0.339 0.093,-0.203 0.1321,-0.469 0.1036,-0.712 -0.0079,-0.307 -0.0633,-0.585 -0.0704,-0.767 0.1883,0.059 0.6099,0.324 0.6099,0.324 0.1342,-0.465 0.0461,-0.858 -0.0741,-1.153 -0.1203,-0.294 -0.2756,-0.5 -0.3264,-0.658 0.1663,-0.012 0.6569,0.072 0.6864,0.086 0,0 0.0043,-0.078 0.0043,-0.078 0.001,0 0.9997,0.053 0.9997,0.053 0,0 -0.0052,0.084 -0.0052,0.084 0,0 -0.0281,0.484 -0.1118,0.977 -0.0836,0.492 -0.2365,0.987 -0.2365,0.987 0,0 -0.0975,0.328 -0.2782,0.724 0,0 0,0 0,0 -0.1825,0.339 -0.4446,0.675 -0.6758,0.903 -0.2311,0.229 -0.4214,0.36 -0.4214,0.36 m -4.077,-0.514 c 0.0967,0.142 0.3907,0.169 0.7149,0.108 0.3243,-0.062 0.6689,-0.216 0.9255,-0.355 0.11,-0.062 0.203,-0.119 0.2784,-0.156 0.0168,0.199 -0.0713,0.694 -0.0713,0.694 0.4816,-0.043 0.7988,-0.299 0.9718,-0.535 0.1731,-0.235 0.2189,-0.454 0.2825,-0.566 0.1058,0.123 0.3414,0.544 0.3487,0.575 0,0 0.0598,-0.042 0.0598,-0.042 6e-4,10e-4 0.5667,0.791 0.5667,0.791 0,0 -0.08,0.057 -0.08,0.057 0,0 -0.4695,0.323 -0.9979,0.502 -0.5285,0.179 -1.0904,0.211 -1.0904,0.211 0,0 -0.1036,0.008 -0.2683,0.006 0,0 0,0 0,0 -0.3015,-0.004 -0.8108,-0.053 -1.2302,-0.148 -0.4194,-0.096 -0.7505,-0.223 -0.7505,-0.223 m -2.4623,-3.249 c -0.0151,0.212 0.3138,0.468 0.7066,0.64 0.3928,0.173 0.8369,0.255 1.07,0.341 -0.1252,0.154 -0.5312,0.447 -0.5312,0.447 0.3864,0.3 0.7811,0.368 1.0874,0.358 0.3063,-0.011 0.5322,-0.095 0.6807,-0.099 -0.0393,0.158 -0.2598,0.592 -0.2811,0.616 0,0 0.0702,0.027 0.0702,0.027 -4e-4,0 -0.3403,0.919 -0.3403,0.919 0,0 -0.0837,-0.031 -0.0837,-0.031 0,0 -0.4806,-0.186 -0.9221,-0.444 -0.4414,-0.258 -0.838,-0.582 -0.838,-0.582 0,0 -0.4342,-0.356 -0.8009,-0.777 -0.3666,-0.421 -0.6583,-0.901 -0.6583,-0.901 m 0.1056,-4.101 c -0.1357,0.181 0.0071,0.596 0.1954,1.024 0.1769,0.37 0.4473,0.687 0.5679,0.886 -0.1925,0.04 -0.6884,0.013 -0.6884,0.013 0.1074,0.471 0.3764,0.765 0.6242,0.945 0.2479,0.18 0.4801,0.254 0.6021,0.343 -0.1293,0.101 -0.5737,0.306 -0.6051,0.311 0,0 0.039,0.065 0.039,0.065 -9e-4,10e-4 -0.8407,0.514 -0.8407,0.514 0,0 -0.0456,-0.077 -0.0456,-0.077 0,0 -0.2604,-0.442 -0.4457,-0.921 -0.1853,-0.478 -0.2899,-0.988 -0.2899,-0.988 0,0 -0.1099,-0.527 -0.1185,-1.091 -0.0094,-0.505 0.0036,-1.056 0.0036,-1.056 m 2.0955,-3.391 c -0.2084,0.019 -0.3972,0.412 -0.3747,0.822 -0.003,0.413 0.1101,0.825 0.1324,1.069 -0.1915,-0.049 -0.6275,-0.293 -0.6275,-0.293 -0.1081,0.474 -0.005,0.866 0.1249,1.16 0.1298,0.294 0.2894,0.499 0.3427,0.659 -0.1663,0.016 -0.6591,-0.059 -0.6889,-0.072 0,0 -0.0027,0.078 -0.0027,0.078 -10e-4,0 -1.0017,-0.032 -1.0017,-0.032 0,0 0.003,-0.084 0.003,-0.084 0,0 0.0155,-0.479 0.0797,-0.969 0.0642,-0.49 0.1908,-0.986 0.1908,-0.986 0,0 0.1326,-0.524 0.3726,-1.049 0.3193,-0.594 0.8066,-1.027 0.8066,-1.027 m 4.188,-0.245 c -0.1449,-0.044 -0.3452,0.05 -0.5945,0.186 -0.2493,0.136 -0.5529,0.312 -0.8664,0.447 -0.2122,0.121 -0.3815,0.255 -0.5028,0.326 -0.0333,-0.197 0.0132,-0.698 0.0132,-0.698 -0.477,0.083 -0.7692,0.363 -0.9176,0.611 -0.1483,0.247 -0.1692,0.468 -0.2182,0.583 -0.1169,-0.11 -0.3938,-0.503 -0.4042,-0.533 0,0 -0.0547,0.047 -0.0547,0.047 -7e-4,0 -0.6428,-0.724 -0.6428,-0.724 0,0 0.0747,-0.065 0.0747,-0.065 0,0 0.4394,-0.37 0.9505,-0.597 0.5111,-0.226 1.0684,-0.308 1.0684,-0.308 0,0 0.2707,-0.046 0.6335,-0.043 0,0 0,0 0,0 0.2381,0.006 0.5343,-0.021 0.768,-0.067 0.2338,-0.046 0.4053,-0.102 0.4053,-0.102 m 3.3669,-1.362 c -0.2055,0.082 -0.3246,0.469 -0.4964,0.91 -0.1718,0.441 -0.4075,0.931 -0.6231,1.174 -0.1089,-0.165 -0.2671,-0.646 -0.2671,-0.646 -0.4062,0.317 -0.6797,0.618 -0.9033,0.887 -0.2236,0.268 -0.3944,0.498 -0.5578,0.609 -0.0736,-0.146 -0.1582,-0.627 -0.1558,-0.659 0,0 -0.0758,0.024 -0.0758,0.024 -3e-4,-10e-4 -0.2876,-0.937 -0.2876,-0.937 0,0 0.0618,-0.02 0.0618,-0.02 0,0 0.355,-0.116 0.6893,-0.292 0.3343,-0.176 0.6422,-0.406 0.6422,-0.406 0,0 0.3372,-0.251 0.6289,-0.553 0.2917,-0.302 0.5306,-0.648 0.5306,-0.648 m 1.7145,-3.16 c -0.0739,0.157 0.0209,0.413 0.1428,0.741 0,0 0,0 0,0 0.1824,0.503 0.3791,1.192 0.3584,1.589 -0.187,-0.061 -0.6079,-0.336 -0.6079,-0.336 -0.1172,0.499 -0.1485,0.904 -0.1578,1.254 -0.0092,0.35 0.0017,0.637 -0.0552,0.825 -0.1497,-0.07 -0.518,-0.395 -0.5362,-0.422 0,0 -0.0445,0.066 -0.0445,0.066 -9e-4,0 -0.8141,-0.557 -0.8141,-0.557 0,0 0.0373,-0.054 0.0373,-0.054 0,0 0.2137,-0.318 0.3707,-0.66 0.1571,-0.341 0.2519,-0.701 0.2519,-0.701 0,0 0.1315,-0.546 0.1214,-1.004 0,0 0,0 0,0 0.0071,-0.321 -0.0373,-0.592 -0.0373,-0.592 m -0.9093,-3.493 c 0.0552,0.214 0.426,0.38 0.8419,0.605 0.4159,0.225 0.8719,0.52 1.0851,0.766 -0.1773,0.086 -0.6724,0.182 -0.6724,0.182 0.2623,0.442 0.5238,0.752 0.7596,1.011 0.2357,0.259 0.4411,0.462 0.529,0.641 -0.1558,0.052 -0.645,0.067 -0.6763,0.06 0,0 0.0129,0.079 0.0129,0.079 -10e-4,0 -0.9705,0.149 -0.9705,0.149 0,0 -0.0098,-0.063 -0.0098,-0.063 0,0 -0.0611,-0.364 -0.1884,-0.715 -0.1273,-0.351 -0.3152,-0.682 -0.3152,-0.682 0,0 -0.206,-0.362 -0.4705,-0.687 -0.2645,-0.325 -0.5803,-0.605 -0.5803,-0.605 m -2.9059,-2.155 c 0.1853,0.125 0.5729,0.008 1.0379,-0.08 0.465,-0.087 1.0091,-0.136 1.3296,-0.076 -0.086,0.177 -0.4164,0.557 -0.4164,0.557 0.4787,0.185 0.8776,0.268 1.2237,0.322 0.346,0.053 0.6321,0.078 0.8115,0.158 -0.0879,0.14 -0.4571,0.466 -0.4858,0.481 0,0 0.0603,0.052 0.0603,0.052 -7e-4,10e-4 -0.6549,0.741 -0.6549,0.741 0,0 -0.0503,-0.044 -0.0503,-0.044 0,0 -0.2915,-0.253 -0.6134,-0.455 -0.322,-0.202 -0.6687,-0.349 -0.6687,-0.349 0,0 -0.3795,-0.161 -0.7747,-0.242 -0.3953,-0.08 -0.7988,-0.073 -0.7988,-0.073"
           style="font-style:normal;font-variant:normal;font-weight:normal;font-stretch:normal;font-size:10px;line-height:100%;font-family:'Fortune Letters';-inkscape-font-specification:'Fortune Letters';text-align:center;writing-mode:lr-tb;text-anchor:middle;fill:#000000;fill-opacity:1;stroke:none;stroke-width:1;stroke-linecap:round;stroke-linejoin:round;stroke-miterlimit:4;stroke-dasharray:none;stroke-opacity:1"
           id="path3851"
           inkscape:connector-curvature="0" />
        <path
           style="font-style:normal;font-variant:normal;font-weight:normal;font-stretch:normal;font-size:10px;line-height:100%;font-family:'Fortune Letters';-inkscape-font-specification:'Fortune Letters';text-align:center;writing-mode:lr-tb;text-anchor:middle;fill:#4e9a06;fill-opacity:1;stroke:#ffffff;stroke-linecap:round;stroke-linejoin:round;stroke-opacity:1"
           id="path3972"
           d="m 22.21875,373.46875 c 0,0 0.3125,0.31249 0.3125,0.3125 5.002409,-0.0831 7.016458,1.19631 10.03125,2.21875 -2.743964,-1.19668 -5.00251,-2.55276 -10.34375,-2.53125 z m -5.71875,0.125 c 0.174635,0.42509 0.296232,1.21788 0.25,1.6875 1.298528,-0.0126 2.564493,0.0509 3.71875,0.5 0.900323,0.55034 1.336239,0.25587 2.0625,-0.4375 l 0.1875,-0.46875 -0.1875,-0.5 -0.75,-0.75 -1.28125,0.28125 c -0.830944,0.18149 -1.161177,0.27543 -1.25,0.40625 -0.993561,0.28481 -1.797034,-0.23841 -2.75,-0.71875 z m 4.5,0.625 c 0,0 -0.5,0.40625 -0.5,0.40625 -0.160947,-0.0894 -0.488523,-0.11161 -0.875,-0.1875 0.08343,-0.0834 1.313826,-0.27993 1.375,-0.21875 z"
           xlink:href="#path3797"
           inkscape:connector-curvature="0" />
        <path
           d="m 22.521452,374.36408 0.1875,0.49548 -0.1875,0.49548 c -0.726261,0.69337 -1.162349,0.98288 -2.062672,0.43254 -1.154257,-0.44911 -2.409855,-0.52079 -3.708383,-0.50822 0.04623,-0.46962 -0.07864,-1.26202 -0.253275,-1.68711 0.952966,0.48034 1.767048,1.01839 2.760609,0.73358 0.08882,-0.13081 0.419682,-0.24315 1.250626,-0.42464 l 1.265464,-0.28476 z m -1.523534,-0.14126 c -0.06117,-0.0612 -1.280326,0.12727 -1.363757,0.2107 0.386477,0.0759 0.693387,0.0865 0.854334,0.17595 0,0 0.509423,-0.38665 0.509423,-0.38665 z m 1.209428,-0.76355 c 5.34124,-0.0215 7.613453,1.35538 10.357417,2.55206 -3.014793,-1.02245 -5.030986,-2.32831 -10.033395,-2.24526 0,0 -0.324022,-0.3068 -0.324022,-0.3068 z"
           style="font-style:normal;font-variant:normal;font-weight:normal;font-stretch:normal;font-size:10px;line-height:100%;font-family:'Fortune Letters';-inkscape-font-specification:'Fortune Letters';text-align:center;writing-mode:lr-tb;text-anchor:middle;fill:#000000;fill-opacity:1"
           id="path3797"
           inkscape:connector-curvature="0" />
      </g>
      <path
         style="font-style:normal;font-variant:normal;font-weight:normal;font-stretch:normal;font-size:10px;line-height:100%;font-family:'Fortune Letters';-inkscape-font-specification:'Fortune Letters';text-align:center;writing-mode:lr-tb;text-anchor:middle;fill:#ffffff;fill-opacity:1;fill-rule:evenodd;stroke:#000000;stroke-width:1px;stroke-linecap:round;stroke-linejoin:round;stroke-opacity:1"
         d="m 31.98625,388.68995 c 2.526106,-0.28036 5.342604,1.51692 6.495897,5.82107 -3.669774,-3.66977 -5.867854,-2.61003 -6.480812,-0.63284"
         id="path2990"
         inkscape:connector-curvature="0" />
      <path
         id="path3767"
         d="m 44.61125,388.68995 c 2.526106,-0.28036 5.342604,1.51692 6.495897,5.82107 -3.669774,-3.66977 -5.867854,-2.61003 -6.480812,-0.63284"
         style="font-style:normal;font-variant:normal;font-weight:normal;font-stretch:normal;font-size:10px;line-height:100%;font-family:'Fortune Letters';-inkscape-font-specification:'Fortune Letters';text-align:center;writing-mode:lr-tb;text-anchor:middle;fill:#ffffff;fill-opacity:1;fill-rule:evenodd;stroke:#000000;stroke-width:1px;stroke-linecap:round;stroke-linejoin:round;stroke-opacity:1"
         inkscape:connector-curvature="0" />
      <rect
         style="font-style:normal;font-variant:normal;font-weight:normal;font-stretch:normal;font-size:10px;line-height:100%;font-family:'Fortune Letters';-inkscape-font-specification:'Fortune Letters';text-align:center;writing-mode:lr-tb;text-anchor:middle;fill:none;fill-opacity:1;fill-rule:nonzero;stroke:#000000;stroke-width:1;stroke-linecap:round;stroke-linejoin:round;stroke-miterlimit:4;stroke-dasharray:none;stroke-opacity:1"
         id="rect12258"
         width="45.208172"
         height="63.291439"
         x="10.888397"
         y="335.45676"
         ry="2.0803924" />
      <g
         transform="matrix(0.473414,0,0,0.473414,28.88526,179.27637)"
         style="font-style:normal;font-variant:normal;font-weight:normal;font-stretch:normal;font-size:21.12316132px;line-height:100%;font-family:'Fortune Letters';-inkscape-font-specification:'Fortune Letters';text-align:center;writing-mode:lr-tb;text-anchor:middle;stroke:#000000;stroke-width:0.5;stroke-linecap:round;stroke-linejoin:round;stroke-miterlimit:4;stroke-dasharray:none;stroke-opacity:1"
         id="g3957">
        <path
           id="path3959"
           style="font-style:normal;font-variant:normal;font-weight:normal;font-stretch:normal;font-size:21.12316132px;line-height:100%;font-family:'Fortune Letters';-inkscape-font-specification:'Fortune Letters';text-align:center;writing-mode:lr-tb;text-anchor:middle;fill:#ffffff;fill-opacity:1;fill-rule:evenodd;stroke:#000000;stroke-width:0.5;stroke-linecap:round;stroke-linejoin:round;stroke-miterlimit:4;stroke-dasharray:none;stroke-opacity:1"
           d="m -20.932982,434.70083 c 3.111811,-0.2951 4.791662,-1.9004 7.45482,-6.98822 0,0 -3.522459,7.13217 -7.071611,6.61618 z m 8.754127,-11.41731 c -0.876316,2.3573 -2.607628,4.07951 -3.90283,5.35977 -0.647601,0.64014 -1.217435,1.25517 -1.548454,2.00363 -0.331022,0.74847 -0.41591,1.62709 -0.1079,2.76536 1.006089,0.11751 1.810747,-0.15186 2.971864,-0.96752 1.161117,-0.81566 2.751456,-3.77259 2.582426,-9.1614 z"
           inkscape:connector-curvature="0" />
      </g>
      <g
         style="font-style:normal;font-variant:normal;font-weight:normal;font-stretch:normal;font-size:22.85176849px;line-height:100%;font-family:'Fortune Letters';-inkscape-font-specification:'Fortune Letters';text-align:center;writing-mode:lr-tb;text-anchor:middle"
         id="g4163"
         transform="matrix(0.4376029,0,0,0.4376029,82.226502,202.02491)">
        <path
           id="path4165"
           style="font-style:normal;font-variant:normal;font-weight:normal;font-stretch:normal;font-size:22.85176849px;line-height:100%;font-family:'Fortune Letters';-inkscape-font-specification:'Fortune Letters';text-align:center;writing-mode:lr-tb;text-anchor:middle;fill:#ffffff;fill-opacity:1;stroke:#000000;stroke-width:0.82603854;stroke-linecap:round;stroke-linejoin:round;stroke-miterlimit:4;stroke-dasharray:none;stroke-opacity:1"
           d="m -85.361842,328.44303 c 2.693854,-1.19423 6.170277,-1.19422 8.864132,0 -1.477427,2.54956 -4.289912,4.59295 -7.171235,5.2102 -0.303331,-2.93103 0.770943,-6.23731 2.739165,-8.43028 1.968221,2.19297 -2e-6,0 -2e-6,0 1.968223,2.19297 3.042496,5.49925 2.739171,8.43028 -2.88132,-0.61725 2e-6,0 2e-6,0 -2.881322,-0.61725 -5.693807,-2.66064 -7.171233,-5.2102 z"
           inkscape:connector-curvature="0" />
      </g>
      <g
         style="font-style:normal;font-variant:normal;font-weight:normal;font-stretch:normal;font-size:22.85176849px;line-height:100%;font-family:'Fortune Letters';-inkscape-font-specification:'Fortune Letters';text-align:center;writing-mode:lr-tb;text-anchor:middle"
         transform="matrix(0.4376029,0,0,0.4376029,84.226502,212.02491)"
         id="g4181">
        <path
           d="m -85.361842,328.44303 c 2.693854,-1.19423 6.170277,-1.19422 8.864132,0 -1.477427,2.54956 -4.289912,4.59295 -7.171235,5.2102 -0.303331,-2.93103 0.770943,-6.23731 2.739165,-8.43028 1.968221,2.19297 -2e-6,0 -2e-6,0 1.968223,2.19297 3.042496,5.49925 2.739171,8.43028 -2.88132,-0.61725 2e-6,0 2e-6,0 -2.881322,-0.61725 -5.693807,-2.66064 -7.171233,-5.2102 z"
           style="font-style:normal;font-variant:normal;font-weight:normal;font-stretch:normal;font-size:22.85176849px;line-height:100%;font-family:'Fortune Letters';-inkscape-font-specification:'Fortune Letters';text-align:center;writing-mode:lr-tb;text-anchor:middle;fill:#ffffff;fill-opacity:1;stroke:#000000;stroke-width:0.82603854;stroke-linecap:round;stroke-linejoin:round;stroke-miterlimit:4;stroke-dasharray:none;stroke-opacity:1"
           id="path4183"
           inkscape:connector-curvature="0" />
      </g>
    </g>
  </g>
</svg>
