<?xml version="1.0" encoding="utf-8"?>
<svg viewBox="389.312 25.655 70.868 85.468" width="70.868" height="85.468" xmlns="http://www.w3.org/2000/svg">
  <g id="g3687" transform="matrix(1, 0, 0, 1, 174.554367, -189.802246)">
    <g transform="translate(-120.00002,-120)" id="g3613">
      <rect ry="2.0803924" y="335.45676" x="334.8884" height="63.291439" width="45.208172" id="rect3615" style="fill:#ffffff;fill-opacity:1;fill-rule:nonzero;stroke:#000000;stroke-width:1;stroke-linecap:round;stroke-linejoin:round;stroke-miterlimit:4;stroke-dasharray:none;stroke-opacity:1" rx="2.0803924"/>
      <rect transform="scale(-1,-1)" style="fill:#ffffff;fill-opacity:0;fill-rule:nonzero;stroke:#000000;stroke-width:1;stroke-linecap:round;stroke-linejoin:round;stroke-miterlimit:4;stroke-dasharray:none;stroke-opacity:1" id="rect3617" width="30.138792" height="46.715092" x="-372.56192" y="-390.45999"/>
      <path style="fill:#ffffff;fill-opacity:0.33116886;stroke:#000000;stroke-width:1.07142854;stroke-linecap:round;stroke-linejoin:round;stroke-miterlimit:4;stroke-dasharray:none;stroke-opacity:1" id="path3619" d="M 36.875002,453.88004 A 2.6785715,2.6785715 0 1 1 31.517859,453.88004 A 2.6785715,2.6785715 0 1 1 36.875002,453.88004 z" transform="matrix(0.9333333,0,0,0.9333333,306.7312,-71.008165)"/>
      <path transform="matrix(0.9333333,0,0,0.9333333,306.7312,-77.008194)" d="M 36.875002,453.88004 A 2.6785715,2.6785715 0 1 1 31.517859,453.88004 A 2.6785715,2.6785715 0 1 1 36.875002,453.88004 z" id="path3621" style="fill:#ffffff;fill-opacity:0.33116886;stroke:#000000;stroke-width:1.07142854;stroke-linecap:round;stroke-linejoin:round;stroke-miterlimit:4;stroke-dasharray:none;stroke-opacity:1"/>
      <path d="M 342.42312,372.41495 L 348.16214,367.95067 L 348.16214,381.16495 L 351.82285,376.25424 C 351.82285,376.25424 349.9148,384.41772 352.18,385.09352 C 354.4452,385.76932 356.19785,379.46852 356.19785,379.46852 L 359.85857,384.0221 C 361.44552,381.72619 363.36101,380.30638 365.66214,379.91495 C 366.09587,382.12368 365.86565,384.66438 368.07285,385.98638 L 372.56192,383.57567 M 372.56192,351.16495 L 367.62642,355.71852 C 368.0517,352.91651 368.37238,350.24003 367.62642,348.84352 C 366.02334,350.36817 364.36138,351.36287 362.98357,354.91495 C 362.77697,349.85428 358.23782,346.84024 356.46571,354.73638 C 354.66348,353.19072 353.24177,351.18844 352.62642,348.21852 C 352.22691,350.45924 352.07852,352.82552 352.62642,355.53995 C 350.75442,355.81275 349.01292,356.86851 347.37897,358.56957 C 348.23638,356.1136 349.24223,353.90504 350.80819,352.63 C 349.61004,351.25099 347.53132,352.80721 345.66214,353.66495 L 348.87642,349.55781 L 342.42312,349.55781" style="fill:none;fill-rule:evenodd;stroke:#000000;stroke-width:1px;stroke-linecap:round;stroke-linejoin:round;stroke-opacity:1" id="path3623"/>
      <path transform="matrix(-0.9333333,0,0,-0.9333333,408.25377,805.21312)" d="M 36.875002,453.88004 A 2.6785715,2.6785715 0 1 1 31.517859,453.88004 A 2.6785715,2.6785715 0 1 1 36.875002,453.88004 z" id="path3625" style="fill:#ffffff;fill-opacity:0.33116886;stroke:#000000;stroke-width:1.07142854;stroke-linecap:round;stroke-linejoin:round;stroke-miterlimit:4;stroke-dasharray:none;stroke-opacity:1"/>
      <path style="fill:#ffffff;fill-opacity:0.33116886;stroke:#000000;stroke-width:1.07142854;stroke-linecap:round;stroke-linejoin:round;stroke-miterlimit:4;stroke-dasharray:none;stroke-opacity:1" id="path3627" d="M 36.875002,453.88004 A 2.6785715,2.6785715 0 1 1 31.517859,453.88004 A 2.6785715,2.6785715 0 1 1 36.875002,453.88004 z" transform="matrix(-0.9333333,0,0,-0.9333333,408.25377,811.21315)"/>
      <path style="font-size:8px;font-style:normal;font-variant:normal;font-weight:normal;font-stretch:normal;text-align:center;line-height:100%;writing-mode:lr-tb;text-anchor:middle;fill:#000000;fill-opacity:1;stroke:none;stroke-width:1px;stroke-linecap:butt;stroke-linejoin:miter;stroke-opacity:1;font-family:Fortune Widgets;-inkscape-font-specification:Fortune Widgets" d="M 337.16019,338.31009 C 337.18688,338.22481 337.23091,338.15283 337.29227,338.09415 C 337.35363,338.03548 337.41763,337.99548 337.48428,337.97415 C 337.55093,337.95283 337.6136,337.95414 337.67227,337.97806 C 337.73095,338.00199 337.76826,338.05399 337.78421,338.13406 C 337.91214,338.04341 338.05211,337.97676 338.20413,337.93411 C 338.35615,337.89147 338.5135,337.86612 338.67618,337.85806 C 338.83885,337.85001 339.00153,337.85933 339.16422,337.88602 C 339.32689,337.91271 339.47757,337.95536 339.61624,338.01395 C 339.79218,338.08866 339.92418,338.20601 340.01224,338.366 C 340.10029,338.52599 340.17898,338.68599 340.24832,338.84598 C 340.30154,338.98465 340.31485,339.11934 340.28824,339.25003 C 340.26162,339.38073 340.20962,339.50475 340.13223,339.6221 C 340.05484,339.73945 339.95881,339.84745 339.84415,339.94608 C 339.72948,340.04471 339.61347,340.13138 339.49612,340.20609 C 339.72545,340.32344 339.91612,340.47944 340.06815,340.6741 C 340.22016,340.86877 340.30154,341.08605 340.31229,341.32596 C 340.31749,341.5714 340.27745,341.7821 340.19217,341.95804 C 340.10688,342.13398 339.98693,342.3153 339.83231,342.50198 C 339.7576,342.59264 339.66022,342.67532 339.54019,342.75003 C 339.42015,342.82474 339.30415,342.87544 339.19217,342.90213 C 339.09614,342.92345 339.01614,342.93944 338.95218,342.9501 C 338.88821,342.96076 338.82425,342.96609 338.76028,342.96609 C 338.70153,342.96609 338.64017,342.96076 338.5762,342.9501 C 338.51224,342.93944 338.43224,342.92345 338.33621,342.90213 C 338.18159,342.8647 338.05093,342.798 337.94424,342.70206 C 337.83755,342.60611 337.73091,342.50744 337.6243,342.40604 C 337.48563,342.27274 337.39627,342.12475 337.35623,341.96207 C 337.31619,341.79939 337.28283,341.63008 337.25613,341.45413 C 337.25093,341.37406 337.27099,341.2967 337.31631,341.22208 C 337.36164,341.14745 337.41763,341.09012 337.48428,341.05008 C 337.55093,341.01004 337.62157,340.99535 337.6962,341.00601 C 337.77082,341.01667 337.83483,341.06473 337.88821,341.15018 C 337.89896,341.23009 337.90831,341.30073 337.91629,341.36209 C 337.92426,341.42345 337.93493,341.48213 337.94827,341.53812 C 337.96162,341.59411 337.98029,341.64875 338.0043,341.70206 C 338.02831,341.75536 338.06424,341.814 338.11209,341.87796 C 338.17622,341.96862 338.25361,342.04731 338.34427,342.11404 C 338.43492,342.18078 338.53356,342.23278 338.64017,342.27005 C 338.76826,342.31269 338.89761,342.32335 339.02823,342.30203 C 339.15884,342.28071 339.27753,342.22472 339.38431,342.13406 C 339.50686,342.02209 339.58413,341.90343 339.61612,341.77811 C 339.6481,341.65278 339.6481,341.5301 339.61612,341.41006 C 339.58413,341.29003 339.5255,341.17537 339.44022,341.06607 C 339.35493,340.95678 339.25495,340.86612 339.14029,340.7941 C 339.02562,340.72208 338.90294,340.67142 338.77225,340.64212 C 338.64155,340.61283 338.51484,340.61413 338.39212,340.64603 C 338.30146,340.69941 338.21349,340.72342 338.1282,340.71805 C 338.11746,340.71805 338.10944,340.71671 338.10416,340.71402 C 338.09887,340.71134 338.09354,340.70999 338.08817,340.70999 C 338.01346,340.67809 337.96146,340.63948 337.93216,340.59415 C 337.90286,340.54882 337.8909,340.49816 337.89627,340.44217 C 337.90164,340.38618 337.92166,340.33149 337.95633,340.27811 C 337.991,340.22472 338.03226,340.17402 338.08011,340.12601 C 338.09085,340.12064 338.10155,340.11531 338.11221,340.11002 C 338.12287,340.10473 338.13357,340.0994 338.14432,340.09402 L 338.21609,340.022 C 338.28543,339.97399 338.35611,339.94734 338.42813,339.94205 C 338.50015,339.93676 338.5762,339.94478 338.65628,339.96609 C 338.7095,339.94478 338.79613,339.90877 338.91617,339.85806 C 339.0362,339.80737 339.15355,339.74601 339.26822,339.67398 C 339.38288,339.60196 339.47887,339.52197 339.55618,339.43399 C 339.63349,339.34602 339.6562,339.25939 339.6243,339.1741 C 339.59223,339.10477 339.56688,339.04345 339.54825,338.99014 C 339.52961,338.93684 339.50695,338.88883 339.48026,338.8461 C 339.45356,338.80338 339.42154,338.76334 339.38419,338.72598 C 339.34683,338.68863 339.29617,338.65132 339.23221,338.61404 C 339.1575,338.57141 339.05614,338.53808 338.92813,338.51407 C 338.80012,338.49007 338.6708,338.48205 338.54019,338.49002 C 338.40957,338.498 338.28958,338.52599 338.18021,338.57401 C 338.07083,338.62202 337.99751,338.69404 337.96024,338.79007 C 337.92296,338.85941 337.87226,338.92337 337.80814,338.98196 C 337.81351,339.0461 337.81753,339.11014 337.82022,339.1741 C 337.82291,339.23807 337.82693,339.29943 337.83231,339.35818 C 337.82156,339.4381 337.78954,339.51273 337.73624,339.58206 C 337.68293,339.6514 337.62161,339.70206 337.55228,339.73404 C 337.48294,339.76602 337.41495,339.77136 337.3483,339.75003 C 337.28165,339.72871 337.22692,339.66735 337.18411,339.56595 C 337.17353,339.36332 337.15758,339.15401 337.13626,338.93802 C 337.11494,338.72204 337.12291,338.51273 337.16019,338.31009 L 337.16019,338.31009 z" id="text3629"/>
      <path transform="scale(-1,-1)" style="font-size:8px;font-style:normal;font-variant:normal;font-weight:normal;font-stretch:normal;text-align:center;line-height:100%;writing-mode:lr-tb;text-anchor:middle;fill:#000000;fill-opacity:1;stroke:none;stroke-width:1px;stroke-linecap:butt;stroke-linejoin:miter;stroke-opacity:1;font-family:Fortune Widgets;-inkscape-font-specification:Fortune Widgets" d="M -377.82477,-395.89487 C -377.79808,-395.98015 -377.75405,-396.05213 -377.69269,-396.11081 C -377.63133,-396.16948 -377.56732,-396.20948 -377.50067,-396.2308 C -377.43402,-396.25212 -377.37136,-396.25082 -377.31268,-396.2269 C -377.25401,-396.20297 -377.2167,-396.15097 -377.20074,-396.07089 C -377.07282,-396.16155 -376.93284,-396.2282 -376.78082,-396.27084 C -376.62881,-396.31348 -376.47146,-396.33883 -376.30878,-396.34689 C -376.1461,-396.35495 -375.98342,-396.34563 -375.82074,-396.31894 C -375.65806,-396.29224 -375.50739,-396.2496 -375.36871,-396.19101 C -375.19277,-396.1163 -375.06077,-395.99895 -374.97272,-395.83896 C -374.88467,-395.67896 -374.80597,-395.51897 -374.73663,-395.35898 C -374.68341,-395.2203 -374.67011,-395.08562 -374.69672,-394.95493 C -374.72333,-394.82423 -374.77533,-394.7002 -374.85272,-394.58286 C -374.93012,-394.4655 -375.02615,-394.35751 -375.14081,-394.25888 C -375.25548,-394.16025 -375.37148,-394.07358 -375.48883,-393.99887 C -375.2595,-393.88152 -375.06883,-393.72551 -374.91681,-393.53085 C -374.76479,-393.33619 -374.68341,-393.11891 -374.67267,-392.879 C -374.66746,-392.63355 -374.7075,-392.42286 -374.79279,-392.24692 C -374.87808,-392.07097 -374.99803,-391.88966 -375.15265,-391.70297 C -375.22736,-391.61231 -375.32473,-391.52963 -375.44476,-391.45493 C -375.5648,-391.38022 -375.68081,-391.32952 -375.79279,-391.30283 C -375.88882,-391.2815 -375.96881,-391.26551 -376.03278,-391.25485 C -376.09674,-391.24419 -376.16071,-391.23886 -376.22467,-391.23886 C -376.28343,-391.23886 -376.34479,-391.24419 -376.40875,-391.25485 C -376.47272,-391.26551 -376.55272,-391.2815 -376.64874,-391.30283 C -376.80337,-391.34026 -376.93402,-391.40695 -377.04071,-391.5029 C -377.1474,-391.59885 -377.25405,-391.69752 -377.36066,-391.79892 C -377.49933,-391.93222 -377.58868,-392.08021 -377.62872,-392.24289 C -377.66876,-392.40557 -377.70213,-392.57488 -377.72882,-392.75082 C -377.73403,-392.8309 -377.71397,-392.90825 -377.66864,-392.98288 C -377.62331,-393.0575 -377.56732,-393.11484 -377.50067,-393.15488 C -377.43402,-393.19491 -377.36338,-393.2096 -377.28876,-393.19894 C -377.21413,-393.18828 -377.15013,-393.14023 -377.09674,-393.05478 C -377.086,-392.97486 -377.07664,-392.90422 -377.06866,-392.84286 C -377.06069,-392.7815 -377.05003,-392.72283 -377.03668,-392.66684 C -377.02334,-392.61085 -377.00466,-392.5562 -376.98065,-392.5029 C -376.95665,-392.44959 -376.92072,-392.39096 -376.87286,-392.327 C -376.80874,-392.23634 -376.73135,-392.15764 -376.64069,-392.09091 C -376.55003,-392.02418 -376.4514,-391.97218 -376.34479,-391.93491 C -376.2167,-391.89226 -376.08734,-391.8816 -375.95673,-391.90292 C -375.82611,-391.92424 -375.70742,-391.98023 -375.60065,-392.07089 C -375.47809,-392.18287 -375.40082,-392.30152 -375.36884,-392.42685 C -375.33686,-392.55217 -375.33686,-392.67485 -375.36884,-392.79489 C -375.40082,-392.91493 -375.45946,-393.02959 -375.54474,-393.13889 C -375.63003,-393.24818 -375.73,-393.33883 -375.84467,-393.41086 C -375.95933,-393.48288 -376.08201,-393.53354 -376.21271,-393.56284 C -376.34341,-393.59213 -376.47011,-393.59083 -376.59283,-393.55893 C -376.68349,-393.50554 -376.77147,-393.48153 -376.85675,-393.48691 C -376.86749,-393.48691 -376.87551,-393.48825 -376.8808,-393.49094 C -376.88609,-393.49362 -376.89142,-393.49496 -376.89679,-393.49496 C -376.9715,-393.52686 -377.0235,-393.56548 -377.0528,-393.61081 C -377.08209,-393.65614 -377.09406,-393.7068 -377.08868,-393.76279 C -377.08331,-393.81877 -377.06329,-393.87346 -377.02863,-393.92685 C -376.99396,-393.98023 -376.9527,-394.03093 -376.90485,-394.07895 C -376.89411,-394.08432 -376.8834,-394.08965 -376.87274,-394.09494 C -376.86208,-394.10023 -376.85138,-394.10556 -376.84064,-394.11093 L -376.76886,-394.18295 C -376.69953,-394.23096 -376.62885,-394.25762 -376.55682,-394.26291 C -376.4848,-394.2682 -376.40875,-394.26018 -376.32867,-394.23886 C -376.27545,-394.26018 -376.18882,-394.29619 -376.06879,-394.34689 C -375.94875,-394.39759 -375.8314,-394.45895 -375.71674,-394.53098 C -375.60207,-394.60299 -375.50609,-394.68299 -375.42877,-394.77097 C -375.35146,-394.85893 -375.32876,-394.94556 -375.36066,-395.03085 C -375.39272,-395.10019 -375.41807,-395.16151 -375.43671,-395.21481 C -375.45535,-395.26811 -375.47801,-395.31613 -375.5047,-395.35886 C -375.5314,-395.40158 -375.56342,-395.44162 -375.60077,-395.47897 C -375.63813,-395.51632 -375.68878,-395.55364 -375.75275,-395.59091 C -375.82746,-395.63355 -375.92881,-395.66688 -376.05682,-395.69089 C -376.18484,-395.71489 -376.31415,-395.72291 -376.44476,-395.71494 C -376.57538,-395.70696 -376.69538,-395.67896 -376.80475,-395.63095 C -376.91412,-395.58293 -376.98745,-395.51091 -377.02472,-395.41489 C -377.06199,-395.34555 -377.11269,-395.28158 -377.17682,-395.22299 C -377.17145,-395.15886 -377.16742,-395.09481 -377.16473,-395.03085 C -377.16205,-394.96688 -377.15802,-394.90552 -377.15265,-394.84677 C -377.16339,-394.76685 -377.19542,-394.69223 -377.24872,-394.62289 C -377.30202,-394.55356 -377.36334,-394.5029 -377.43268,-394.47092 C -377.50201,-394.43893 -377.57001,-394.4336 -377.63666,-394.45493 C -377.70331,-394.47624 -377.75804,-394.5376 -377.80084,-394.63901 C -377.81142,-394.84164 -377.82737,-395.05095 -377.84869,-395.26694 C -377.87002,-395.48292 -377.86204,-395.69223 -377.82477,-395.89487 L -377.82477,-395.89487 z" id="text3633"/>
    </g>
    <g transform="matrix(0.9659258,0.258819,-0.258819,0.9659258,52.439687,-178.15782)" id="g3637">
      <rect style="fill:#ffffff;fill-opacity:1;fill-rule:nonzero;stroke:#000000;stroke-width:1;stroke-linecap:round;stroke-linejoin:round;stroke-miterlimit:4;stroke-dasharray:none;stroke-opacity:1" id="rect3639" width="45.208172" height="63.291439" x="274.8884" y="335.45676" ry="2.0803924" rx="2.0803924"/>
      <rect y="-390.45999" x="-312.56192" height="46.715092" width="30.138792" id="rect3641" style="fill:#ffffff;fill-opacity:0;fill-rule:nonzero;stroke:#000000;stroke-width:1;stroke-linecap:round;stroke-linejoin:round;stroke-miterlimit:4;stroke-dasharray:none;stroke-opacity:1" transform="scale(-1,-1)"/>
      <path style="fill:#ffffff;fill-opacity:0.33116886;stroke:#000000;stroke-width:1.07142854;stroke-linecap:round;stroke-linejoin:round;stroke-miterlimit:4;stroke-dasharray:none;stroke-opacity:1" id="path3643" d="M 36.875002,453.88004 A 2.6785715,2.6785715 0 1 1 31.517859,453.88004 A 2.6785715,2.6785715 0 1 1 36.875002,453.88004 z" transform="matrix(0.9333333,0,0,0.9333333,246.7312,-77.008194)"/>
      <path style="font-size:8px;font-style:normal;font-variant:normal;font-weight:normal;font-stretch:normal;text-align:center;line-height:100%;writing-mode:lr-tb;text-anchor:middle;fill:#000000;fill-opacity:1;stroke:none;stroke-width:1px;stroke-linecap:butt;stroke-linejoin:miter;stroke-opacity:1;font-family:Fortune Widgets;-inkscape-font-specification:Fortune Widgets" d="M 277.69583,340.04617 C 277.74921,339.91271 277.81591,339.75268 277.8959,339.56607 C 277.9759,339.37947 278.04519,339.18745 278.10379,338.99002 C 278.0771,338.97407 278.05443,338.95275 278.0358,338.92606 C 278.01716,338.89937 278.00247,338.87805 277.99173,338.86209 C 277.9385,338.77144 277.89989,338.67809 277.87589,338.58206 C 277.85188,338.48604 277.84785,338.39005 277.8638,338.2941 C 277.87975,338.19816 277.91442,338.10884 277.9678,338.02615 C 278.02119,337.94348 278.0985,337.87276 278.19974,337.814 C 278.3332,337.73946 278.4759,337.70084 278.62784,337.69815 C 278.77977,337.69547 278.92247,337.72611 279.05594,337.79007 C 279.17312,337.84867 279.27306,337.93131 279.35574,338.03799 C 279.43842,338.14469 279.48513,338.27274 279.49588,338.42215 C 279.50125,338.48612 279.49592,338.55008 279.47989,338.61404 C 279.46385,338.67801 279.44383,338.74068 279.41983,338.80203 C 279.39582,338.8634 279.36917,338.91808 279.33987,338.96609 C 279.31057,339.01411 279.28258,339.05147 279.25589,339.07816 C 279.3039,339.2541 279.35191,339.42341 279.39993,339.58609 C 279.44794,339.74877 279.49327,339.89408 279.53592,340.022 C 279.60525,339.84069 279.68525,339.65669 279.77591,339.47 C 279.86656,339.28332 279.93053,339.10737 279.9678,338.94217 C 279.90921,338.8354 279.88524,338.72603 279.8959,338.61404 C 279.90656,338.50207 279.94786,338.40209 280.01981,338.31412 C 280.09174,338.22615 280.19042,338.15547 280.31583,338.10208 C 280.44123,338.0487 280.58653,338.02738 280.75174,338.03812 C 280.8852,338.04349 281.00523,338.10884 281.11185,338.23416 C 281.21845,338.35949 281.29312,338.49812 281.33585,338.65005 C 281.37856,338.802 281.38125,338.94864 281.3439,339.09 C 281.30654,339.23136 281.20787,339.32604 281.04788,339.37405 C 281.01581,339.43265 280.98912,339.49796 280.9678,339.56998 C 280.94648,339.642 280.92784,339.70739 280.9119,339.76614 C 280.87983,339.87275 280.85313,339.98205 280.83182,340.09402 C 280.81049,340.20601 280.78917,340.31538 280.76785,340.42215 C 280.7519,340.4967 280.73322,340.59 280.71182,340.70206 C 280.69041,340.81412 280.66641,340.93147 280.6398,341.05411 C 280.61318,341.17675 280.58519,341.29406 280.55582,341.40604 C 280.52643,341.51802 280.49579,341.61136 280.4639,341.68607 C 280.44257,341.68607 280.38121,341.68607 280.27982,341.68607 C 280.17841,341.68607 280.06908,341.68472 279.95181,341.68204 C 279.83454,341.67935 279.7239,341.67667 279.6199,341.67398 C 279.5159,341.6713 279.45055,341.66995 279.42386,341.66995 C 279.22122,341.66475 279.01854,341.65946 278.81583,341.65408 C 278.61311,341.64871 278.41043,341.64603 278.20779,341.64603 C 278.20779,341.64603 278.14781,341.64871 278.02786,341.65408 C 277.90791,341.65946 277.77054,341.66214 277.61575,341.66214 C 277.4665,341.66214 277.31855,341.65811 277.17191,341.65005 C 277.02526,341.642 276.92524,341.62471 276.87186,341.59818 C 276.8131,341.60876 276.77046,341.57938 276.74393,341.51004 C 276.66922,341.29666 276.60786,341.09533 276.55984,340.90604 C 276.51183,340.71675 276.45315,340.51012 276.38382,340.28616 C 276.37845,340.27542 276.3651,340.23807 276.34378,340.1741 C 276.32246,340.11014 276.29715,340.03149 276.26785,339.93814 C 276.23856,339.8448 276.20922,339.7421 276.17984,339.63004 C 276.15046,339.51798 276.1278,339.41133 276.11185,339.31009 C 276.1011,339.26208 276.08243,339.21675 276.05582,339.1741 C 276.02921,339.13146 276.0039,339.08878 275.97989,339.04605 C 275.95588,339.00333 275.93586,338.9593 275.91983,338.91397 C 275.9038,338.86865 275.89578,338.81668 275.89578,338.75809 C 275.90115,338.63537 275.94249,338.51802 276.01981,338.40604 C 276.09712,338.29406 276.1918,338.20072 276.30386,338.12601 C 276.41592,338.0513 276.5386,338.00199 276.67191,337.97806 C 276.80521,337.95414 276.92785,337.96879 277.03983,338.022 C 277.22651,338.11267 277.35318,338.23136 277.41983,338.37808 C 277.48648,338.52481 277.5198,338.69144 277.51981,338.87796 C 277.5198,338.93672 277.50516,338.99544 277.47586,339.05411 C 277.44656,339.11279 277.41059,339.15807 277.36795,339.18997 C 277.35184,339.20072 277.33446,339.21276 277.31583,339.2261 C 277.29719,339.23945 277.2825,339.25142 277.27176,339.26199 C 277.34646,339.41141 277.41714,339.54744 277.4838,339.67007 C 277.55044,339.79272 277.62112,339.91808 277.69583,340.04617 L 277.69583,340.04617 z M 278.59988,337.96609 C 278.5198,337.96073 278.45047,337.97668 278.39188,338.01395 C 278.33849,338.04601 278.29047,338.10205 278.24783,338.18204 C 278.20519,338.26204 278.18916,338.38472 278.19974,338.55008 C 278.19974,338.60347 278.21308,338.65681 278.23978,338.71011 C 278.26647,338.76342 278.2945,338.81673 278.32388,338.87003 C 278.35326,338.92333 278.38125,338.97265 278.40787,339.01797 C 278.43448,339.06331 278.44778,339.102 278.44778,339.13406 C 278.43183,339.15539 278.40384,339.21537 278.3638,339.314 C 278.32376,339.41263 278.27843,339.5273 278.22781,339.65799 C 278.17719,339.78869 278.12389,339.92606 278.0679,340.0701 C 278.01191,340.21414 277.95454,340.34216 277.89578,340.45413 L 277.63187,340.45413 C 277.56253,340.36869 277.49584,340.27396 277.43179,340.16995 C 277.36775,340.06595 277.32246,339.98465 277.29593,339.92606 C 277.23717,339.81408 277.19046,339.71541 277.15579,339.63004 C 277.12112,339.54467 277.06644,339.43802 276.99173,339.31009 C 277.08239,339.20348 277.15306,339.13016 277.20377,339.09012 C 277.25446,339.05008 277.27981,338.99271 277.27982,338.918 C 277.27981,338.84346 277.2705,338.76615 277.25186,338.68607 C 277.23322,338.60599 277.20389,338.53263 277.16385,338.46597 C 277.12381,338.39933 277.07181,338.34334 277.00784,338.298 C 276.94388,338.25268 276.86917,338.22733 276.78372,338.22195 C 276.61315,338.21138 276.4772,338.25008 276.37589,338.33804 C 276.27457,338.42602 276.2119,338.52868 276.1879,338.64603 C 276.16389,338.76338 276.17719,338.88338 276.22781,339.00601 C 276.27843,339.12866 276.36779,339.22204 276.49588,339.28616 C 276.53852,339.45137 276.58784,339.62731 276.64383,339.814 C 276.69982,340.00068 276.75581,340.18204 276.8118,340.35806 C 276.86779,340.53409 276.91979,340.69941 276.9678,340.85403 C 277.01582,341.00866 277.05586,341.14204 277.08792,341.25418 C 277.29056,341.25939 277.51989,341.26468 277.77591,341.27005 C 278.03193,341.27542 278.29857,341.27945 278.57584,341.28214 C 278.8531,341.28482 279.12775,341.28482 279.39981,341.28214 C 279.67186,341.27945 279.92524,341.27542 280.15994,341.27005 C 280.19184,341.13138 280.22647,340.99271 280.26382,340.85403 C 280.30117,340.71536 280.34386,340.56737 280.39188,340.41006 C 280.43989,340.25276 280.49055,340.08211 280.54385,339.8981 C 280.59715,339.7141 280.65318,339.51012 280.71194,339.28616 C 280.82913,339.2541 280.9184,339.18473 280.97977,339.07803 C 281.04112,338.97135 281.0718,338.86201 281.07181,338.75003 C 281.0718,338.63268 281.04247,338.52868 280.9838,338.43802 C 280.92511,338.34737 280.8345,338.29935 280.71194,338.29398 C 280.49856,338.29935 280.35586,338.3367 280.28384,338.40604 C 280.21182,338.47538 280.17052,338.56872 280.15994,338.68607 C 280.1492,338.76078 280.15717,338.8328 280.18387,338.90213 C 280.21056,338.97147 280.21853,339.01948 280.20779,339.04617 C 280.10655,339.28071 280.01325,339.51668 279.92789,339.75406 C 279.84252,339.99145 279.75719,340.21414 279.67191,340.42215 C 279.64521,340.42215 279.60118,340.42748 279.53983,340.43814 C 279.47846,340.4488 279.4158,340.44876 279.35184,340.43802 C 279.30919,340.40075 279.2652,340.31676 279.21988,340.18607 C 279.17455,340.05537 279.13321,339.91401 279.09586,339.76199 C 279.0585,339.60998 279.0305,339.46866 279.01187,339.33804 C 278.99323,339.20743 278.9892,339.12609 278.99979,339.09402 C 279.07449,339.01932 279.13052,338.93131 279.16788,338.82999 C 279.20523,338.72867 279.21857,338.62601 279.20792,338.522 C 279.19725,338.418 279.16124,338.31669 279.09988,338.21805 C 279.03852,338.11942 278.94648,338.03544 278.82376,337.96609 L 278.59988,337.96609 z M 276.79178,341.97415 C 276.82384,341.95283 276.92251,341.93684 277.0878,341.92618 C 277.25308,341.91552 277.45307,341.9075 277.68777,341.90213 C 277.92247,341.89676 278.17715,341.89273 278.45181,341.89005 C 278.72647,341.88736 278.98912,341.88602 279.23978,341.88602 C 279.49042,341.88602 279.71715,341.88602 279.91995,341.88602 C 280.12258,341.88602 280.26655,341.88602 280.35184,341.88602 C 280.4158,341.88602 280.4558,341.92069 280.47183,341.99002 C 280.48786,342.05936 280.49055,342.13402 280.47989,342.21402 C 280.46922,342.29402 280.44656,342.36604 280.4119,342.43008 C 280.37722,342.49413 280.33857,342.52347 280.29593,342.5181 C 280.24254,342.51273 280.18517,342.5074 280.12381,342.50211 C 280.06244,342.49682 279.98245,342.49283 279.88382,342.49014 C 279.78518,342.48746 279.65851,342.48477 279.50381,342.48209 C 279.34911,342.4794 279.15445,342.4794 278.91983,342.48209 C 278.68521,342.48477 278.39985,342.48611 278.06375,342.48611 C 277.73318,342.48611 277.33857,342.4888 276.87991,342.49417 C 276.84785,342.4888 276.81981,342.46345 276.79581,342.41812 C 276.7718,342.37279 276.75446,342.32079 276.7438,342.26212 C 276.73314,342.20344 276.7318,342.14611 276.73978,342.09012 C 276.74775,342.03413 276.76508,341.99547 276.79178,341.97415 L 276.79178,341.97415 z" id="text3645"/>
      <path transform="matrix(-0.9333333,0,0,-0.9333333,348.25377,811.21315)" d="M 36.875002,453.88004 A 2.6785715,2.6785715 0 1 1 31.517859,453.88004 A 2.6785715,2.6785715 0 1 1 36.875002,453.88004 z" id="path3649" style="fill:#ffffff;fill-opacity:0.33116886;stroke:#000000;stroke-width:1.07142854;stroke-linecap:round;stroke-linejoin:round;stroke-miterlimit:4;stroke-dasharray:none;stroke-opacity:1"/>
      <path d="M 282.42313,365.77703 L 290.95393,360.25467 L 290.79244,351.30951 L 301.29707,349.47105 L 302.25915,357.97773 L 312.56192,363.65908 M 293.69949,363.99538 L 300.32111,361.88107 L 299.19059,352.93589 C 299.19059,352.93589 293.86099,354.39966 293.86099,354.39966 C 293.86099,354.39966 293.53798,363.99538 293.69949,363.99538 z" style="fill:none;fill-rule:evenodd;stroke:#000000;stroke-width:1px;stroke-linecap:round;stroke-linejoin:round;stroke-opacity:1" id="path3651"/>
      <path id="path3653" style="fill:none;fill-rule:evenodd;stroke:#000000;stroke-width:1px;stroke-linecap:round;stroke-linejoin:round;stroke-opacity:1" d="M 312.56192,368.42786 L 304.03112,373.95022 L 304.19261,382.89538 L 293.68798,384.73384 L 292.7259,376.22716 L 282.42313,370.54581 M 301.28556,370.20951 L 294.66394,372.32382 L 295.79446,381.269 C 295.79446,381.269 301.12406,379.80523 301.12406,379.80523 C 301.12406,379.80523 301.44707,370.20951 301.28556,370.20951 z"/>
      <path transform="scale(-1,-1)" style="font-size:8px;font-style:normal;font-variant:normal;font-weight:normal;font-stretch:normal;text-align:center;line-height:100%;writing-mode:lr-tb;text-anchor:middle;fill:#000000;fill-opacity:1;stroke:none;stroke-width:1px;stroke-linecap:butt;stroke-linejoin:miter;stroke-opacity:1;font-family:Fortune Widgets;-inkscape-font-specification:Fortune Widgets" d="M -317.28912,-394.15878 C -317.23574,-394.29224 -317.16905,-394.45228 -317.08905,-394.63889 C -317.00906,-394.82549 -316.93976,-395.0175 -316.88116,-395.21494 C -316.90786,-395.23088 -316.93052,-395.2522 -316.94916,-395.2789 C -316.9678,-395.30559 -316.98249,-395.32691 -316.99323,-395.34286 C -317.04645,-395.43352 -317.08506,-395.52686 -317.10907,-395.62289 C -317.13308,-395.71892 -317.13711,-395.81491 -317.12115,-395.91086 C -317.10521,-396.0068 -317.07054,-396.09612 -317.01715,-396.1788 C -316.96377,-396.26148 -316.88646,-396.3322 -316.78522,-396.39096 C -316.65176,-396.4655 -316.50906,-396.50411 -316.35712,-396.50681 C -316.20518,-396.50949 -316.06248,-396.47885 -315.92902,-396.41489 C -315.81183,-396.35629 -315.7119,-396.27365 -315.62921,-396.16696 C -315.54653,-396.06027 -315.49982,-395.93222 -315.48907,-395.78281 C -315.48371,-395.71884 -315.48904,-395.65487 -315.50507,-395.59091 C -315.5211,-395.52694 -315.54112,-395.46428 -315.56512,-395.40292 C -315.58914,-395.34156 -315.61579,-395.28687 -315.64508,-395.23886 C -315.67438,-395.19084 -315.70238,-395.15349 -315.72906,-395.1268 C -315.68105,-394.95085 -315.63304,-394.78154 -315.58502,-394.61887 C -315.53701,-394.45618 -315.49168,-394.31088 -315.44904,-394.18295 C -315.3797,-394.36427 -315.29971,-394.54827 -315.20905,-394.73495 C -315.11839,-394.92164 -315.05443,-395.09758 -315.01715,-395.26279 C -315.07575,-395.36955 -315.09972,-395.47893 -315.08905,-395.59091 C -315.07839,-395.70289 -315.03709,-395.80286 -314.96515,-395.89084 C -314.89321,-395.97881 -314.79454,-396.04948 -314.66913,-396.10287 C -314.54373,-396.15626 -314.39842,-396.17758 -314.23322,-396.16684 C -314.09976,-396.16146 -313.97972,-396.09612 -313.87311,-395.97079 C -313.76651,-395.84546 -313.69184,-395.70683 -313.64911,-395.5549 C -313.60639,-395.40296 -313.6037,-395.25631 -313.64105,-395.11496 C -313.67841,-394.9736 -313.77708,-394.87891 -313.93707,-394.8309 C -313.96914,-394.77231 -313.99583,-394.707 -314.01715,-394.63498 C -314.03848,-394.56295 -314.05711,-394.49757 -314.07306,-394.43881 C -314.10513,-394.3322 -314.13182,-394.22291 -314.15314,-394.11093 C -314.17446,-393.99895 -314.19579,-393.88957 -314.2171,-393.78281 C -314.23306,-393.70826 -314.25173,-393.61496 -314.27313,-393.5029 C -314.29454,-393.39084 -314.31855,-393.27349 -314.34515,-393.15085 C -314.37177,-393.02821 -314.39976,-392.9109 -314.42914,-392.79892 C -314.45852,-392.68694 -314.48916,-392.5936 -314.52106,-392.51889 C -314.54238,-392.51889 -314.60374,-392.51889 -314.70514,-392.51889 C -314.80654,-392.51889 -314.91588,-392.52023 -315.03314,-392.52292 C -315.15042,-392.5256 -315.26105,-392.52829 -315.36505,-392.53098 C -315.46906,-392.53366 -315.53441,-392.535 -315.5611,-392.535 C -315.76374,-392.54021 -315.96641,-392.5455 -316.16913,-392.55087 C -316.37185,-392.55624 -316.57453,-392.55893 -316.77716,-392.55893 C -316.77716,-392.55893 -316.83714,-392.55624 -316.95709,-392.55087 C -317.07705,-392.5455 -317.21442,-392.54282 -317.3692,-392.54282 C -317.51845,-392.54282 -317.6664,-392.54684 -317.81305,-392.5549 C -317.9597,-392.56296 -318.05971,-392.58025 -318.1131,-392.60678 C -318.17186,-392.5962 -318.2145,-392.62558 -318.24103,-392.69492 C -318.31574,-392.90829 -318.3771,-393.10963 -318.42511,-393.29892 C -318.47312,-393.48821 -318.5318,-393.69483 -318.60114,-393.91879 C -318.60651,-393.92953 -318.61985,-393.96689 -318.64117,-394.03085 C -318.6625,-394.09482 -318.68781,-394.17347 -318.7171,-394.26682 C -318.7464,-394.36016 -318.77574,-394.46286 -318.80511,-394.57492 C -318.83449,-394.68698 -318.85716,-394.79363 -318.87311,-394.89487 C -318.88385,-394.94288 -318.90253,-394.98821 -318.92914,-395.03085 C -318.95575,-395.07349 -318.98106,-395.11618 -319.00507,-395.15891 C -319.02907,-395.20163 -319.04909,-395.24565 -319.06512,-395.29099 C -319.08116,-395.33631 -319.08917,-395.38827 -319.08917,-395.44687 C -319.0838,-395.56959 -319.04246,-395.68694 -318.96515,-395.79892 C -318.88784,-395.91089 -318.79315,-396.00424 -318.68109,-396.07895 C -318.56903,-396.15365 -318.44635,-396.20297 -318.31305,-396.2269 C -318.17975,-396.25082 -318.05711,-396.23617 -317.94513,-396.18295 C -317.75844,-396.09229 -317.63178,-395.9736 -317.56512,-395.82687 C -317.49848,-395.68014 -317.46515,-395.51352 -317.46515,-395.327 C -317.46515,-395.26824 -317.4798,-395.20952 -317.50909,-395.15085 C -317.53839,-395.09217 -317.57436,-395.04688 -317.617,-395.01498 C -317.63312,-395.00424 -317.65049,-394.99219 -317.66913,-394.97885 C -317.68777,-394.9655 -317.70246,-394.95354 -317.7132,-394.94296 C -317.63849,-394.79355 -317.56781,-394.65752 -317.50116,-394.53488 C -317.43451,-394.41224 -317.36383,-394.28687 -317.28912,-394.15878 L -317.28912,-394.15878 z M -316.38507,-396.23886 C -316.46515,-396.24423 -316.53449,-396.22828 -316.59308,-396.19101 C -316.64647,-396.15894 -316.69448,-396.10291 -316.73712,-396.02292 C -316.77977,-395.94292 -316.7958,-395.82024 -316.78522,-395.65488 C -316.78522,-395.60149 -316.77187,-395.54814 -316.74518,-395.49484 C -316.71849,-395.44153 -316.69045,-395.38823 -316.66107,-395.33493 C -316.6317,-395.28162 -316.6037,-395.23231 -316.57709,-395.18698 C -316.55048,-395.14165 -316.53717,-395.10295 -316.53717,-395.07089 C -316.55312,-395.04957 -316.58112,-394.98959 -316.62115,-394.89096 C -316.6612,-394.79232 -316.70653,-394.67766 -316.75714,-394.54697 C -316.80776,-394.41627 -316.86107,-394.2789 -316.91705,-394.13486 C -316.97305,-393.99081 -317.03042,-393.8628 -317.08917,-393.75082 L -317.35309,-393.75082 C -317.42243,-393.83627 -317.48912,-393.931 -317.55316,-394.035 C -317.61721,-394.139 -317.6625,-394.2203 -317.68903,-394.2789 C -317.74778,-394.39088 -317.7945,-394.48955 -317.82916,-394.57492 C -317.86383,-394.66029 -317.91852,-394.76693 -317.99323,-394.89487 C -317.90257,-395.00147 -317.83189,-395.0748 -317.78119,-395.11484 C -317.73049,-395.15487 -317.70514,-395.21225 -317.70514,-395.28696 C -317.70514,-395.3615 -317.71446,-395.43881 -317.73309,-395.51889 C -317.75173,-395.59896 -317.78107,-395.67233 -317.82111,-395.73898 C -317.86115,-395.80563 -317.91315,-395.86162 -317.97711,-395.90695 C -318.04108,-395.95228 -318.11578,-395.97763 -318.20123,-395.983 C -318.37181,-395.99358 -318.50775,-395.95488 -318.60907,-395.86691 C -318.71039,-395.77894 -318.77305,-395.67628 -318.79706,-395.55893 C -318.82107,-395.44158 -318.80776,-395.32158 -318.75714,-395.19894 C -318.70652,-395.0763 -318.61717,-394.98292 -318.48907,-394.91879 C -318.44643,-394.75359 -318.39712,-394.57764 -318.34113,-394.39096 C -318.28514,-394.20427 -318.22915,-394.02292 -318.17316,-393.84689 C -318.11717,-393.67087 -318.06517,-393.50554 -318.01715,-393.35092 C -317.96914,-393.1963 -317.9291,-393.06292 -317.89703,-392.95078 C -317.6944,-392.94557 -317.46507,-392.94028 -317.20905,-392.93491 C -316.95303,-392.92953 -316.68638,-392.92551 -316.40912,-392.92282 C -316.13186,-392.92013 -315.8572,-392.92013 -315.58514,-392.92282 C -315.31309,-392.92551 -315.05972,-392.92953 -314.82501,-392.93491 C -314.79312,-393.07358 -314.75849,-393.21225 -314.72113,-393.35092 C -314.68378,-393.48959 -314.6411,-393.63758 -314.59308,-393.79489 C -314.54507,-393.9522 -314.49441,-394.12285 -314.4411,-394.30685 C -314.3878,-394.49085 -314.33177,-394.69483 -314.27301,-394.91879 C -314.15583,-394.95085 -314.06655,-395.02023 -314.00519,-395.12692 C -313.94383,-395.23361 -313.91315,-395.34294 -313.91315,-395.45493 C -313.91315,-395.57227 -313.94249,-395.67628 -314.00116,-395.76694 C -314.05984,-395.85759 -314.15046,-395.9056 -314.27301,-395.91098 C -314.48639,-395.9056 -314.62909,-395.86825 -314.70111,-395.79892 C -314.77314,-395.72958 -314.81444,-395.63624 -314.82501,-395.51889 C -314.83576,-395.44418 -314.82778,-395.37216 -314.80109,-395.30283 C -314.7744,-395.23349 -314.76642,-395.18547 -314.77716,-395.15878 C -314.8784,-394.92424 -314.9717,-394.68828 -315.05707,-394.4509 C -315.14244,-394.21351 -315.22777,-393.99081 -315.31305,-393.78281 C -315.33975,-393.7828 -315.38377,-393.77747 -315.44513,-393.76682 C -315.50649,-393.75615 -315.56916,-393.75619 -315.63312,-393.76694 C -315.67576,-393.80421 -315.71975,-393.88819 -315.76508,-394.01889 C -315.81041,-394.14958 -315.85175,-394.29094 -315.8891,-394.44296 C -315.92646,-394.59498 -315.95445,-394.73629 -315.97308,-394.86691 C -315.99172,-394.99752 -315.99575,-395.07886 -315.98517,-395.11093 C -315.91046,-395.18563 -315.85443,-395.27365 -315.81708,-395.37497 C -315.77973,-395.47628 -315.76638,-395.57894 -315.77704,-395.68295 C -315.7877,-395.78695 -315.82371,-395.88827 -315.88507,-395.98691 C -315.94643,-396.08554 -316.03848,-396.16952 -316.16119,-396.23886 L -316.38507,-396.23886 z M -318.19318,-392.2308 C -318.16111,-392.25213 -318.06244,-392.26812 -317.89716,-392.27878 C -317.73187,-392.28944 -317.53188,-392.29745 -317.29718,-392.30283 C -317.06248,-392.3082 -316.8078,-392.31222 -316.53314,-392.31491 C -316.25849,-392.3176 -315.99583,-392.31894 -315.74518,-392.31894 C -315.49453,-392.31894 -315.26781,-392.31894 -315.065,-392.31894 C -314.86237,-392.31894 -314.71841,-392.31894 -314.63312,-392.31894 C -314.56916,-392.31894 -314.52916,-392.28427 -314.51312,-392.21494 C -314.4971,-392.1456 -314.49441,-392.07093 -314.50507,-391.99094 C -314.51573,-391.91094 -314.5384,-391.83892 -314.57306,-391.77487 C -314.60773,-391.71083 -314.64639,-391.68149 -314.68903,-391.68686 C -314.74242,-391.69223 -314.79979,-391.69756 -314.86115,-391.70285 C -314.92251,-391.70814 -315.00251,-391.71213 -315.10114,-391.71481 C -315.19977,-391.7175 -315.32644,-391.72018 -315.48114,-391.72287 C -315.63585,-391.72556 -315.83051,-391.72556 -316.06512,-391.72287 C -316.29975,-391.72018 -316.58511,-391.71884 -316.9212,-391.71884 C -317.25177,-391.71884 -317.64638,-391.71616 -318.10504,-391.71078 C -318.13711,-391.71616 -318.16514,-391.74151 -318.18915,-391.78683 C -318.21316,-391.83216 -318.23049,-391.88417 -318.24115,-391.94284 C -318.25181,-392.00152 -318.25315,-392.05885 -318.24518,-392.11484 C -318.2372,-392.17083 -318.21987,-392.20948 -318.19318,-392.2308 L -318.19318,-392.2308 z" id="text3655"/>
    </g>
    <g transform="matrix(0.8660254,0.4999999,-0.4999999,0.8660254,228.10379,-174.45001)" id="g3659">
      <rect style="fill:#ffffff;fill-opacity:1;fill-rule:nonzero;stroke:#000000;stroke-width:1;stroke-linecap:round;stroke-linejoin:round;stroke-miterlimit:4;stroke-dasharray:none;stroke-opacity:1" id="rect3661" width="45.208172" height="63.291439" x="214.88838" y="335.45676" ry="2.0803924" rx="2.0803924"/>
      <rect y="-390.45999" x="-252.56192" height="46.715092" width="30.138792" id="rect3663" style="fill:#ffffff;fill-opacity:0;fill-rule:nonzero;stroke:#000000;stroke-width:1;stroke-linecap:round;stroke-linejoin:round;stroke-miterlimit:4;stroke-dasharray:none;stroke-opacity:1" transform="scale(-1,-1)"/>
      <path style="fill:#ffffff;fill-opacity:0.33116886;stroke:#000000;stroke-width:1.07142854;stroke-linecap:round;stroke-linejoin:round;stroke-miterlimit:4;stroke-dasharray:none;stroke-opacity:1" id="path3665" d="M 36.875002,453.88004 A 2.6785715,2.6785715 0 1 1 31.517859,453.88004 A 2.6785715,2.6785715 0 1 1 36.875002,453.88004 z" transform="matrix(0.9333333,0,0,0.9333333,186.7312,-65.008137)"/>
      <path transform="matrix(0.9333333,0,0,0.9333333,186.7312,-71.008165)" d="M 36.875002,453.88004 A 2.6785715,2.6785715 0 1 1 31.517859,453.88004 A 2.6785715,2.6785715 0 1 1 36.875002,453.88004 z" id="path3667" style="fill:#ffffff;fill-opacity:0.33116886;stroke:#000000;stroke-width:1.07142854;stroke-linecap:round;stroke-linejoin:round;stroke-miterlimit:4;stroke-dasharray:none;stroke-opacity:1"/>
      <path style="fill:#ffffff;fill-opacity:0.33116886;stroke:#000000;stroke-width:1.07142854;stroke-linecap:round;stroke-linejoin:round;stroke-miterlimit:4;stroke-dasharray:none;stroke-opacity:1" id="path3669" d="M 36.875002,453.88004 A 2.6785715,2.6785715 0 1 1 31.517859,453.88004 A 2.6785715,2.6785715 0 1 1 36.875002,453.88004 z" transform="matrix(0.9333333,0,0,0.9333333,186.7312,-77.008194)"/>
      <path transform="matrix(-0.9333333,0,0,-0.9333333,288.25377,799.21309)" d="M 36.875002,453.88004 A 2.6785715,2.6785715 0 1 1 31.517859,453.88004 A 2.6785715,2.6785715 0 1 1 36.875002,453.88004 z" id="path3671" style="fill:#ffffff;fill-opacity:0.33116886;stroke:#000000;stroke-width:1.07142854;stroke-linecap:round;stroke-linejoin:round;stroke-miterlimit:4;stroke-dasharray:none;stroke-opacity:1"/>
      <path style="fill:#ffffff;fill-opacity:0.33116886;stroke:#000000;stroke-width:1.07142854;stroke-linecap:round;stroke-linejoin:round;stroke-miterlimit:4;stroke-dasharray:none;stroke-opacity:1" id="path3673" d="M 36.875002,453.88004 A 2.6785715,2.6785715 0 1 1 31.517859,453.88004 A 2.6785715,2.6785715 0 1 1 36.875002,453.88004 z" transform="matrix(-0.9333333,0,0,-0.9333333,288.25377,805.21312)"/>
      <path transform="matrix(-0.9333333,0,0,-0.9333333,288.25377,811.21315)" d="M 36.875002,453.88004 A 2.6785715,2.6785715 0 1 1 31.517859,453.88004 A 2.6785715,2.6785715 0 1 1 36.875002,453.88004 z" id="path3675" style="fill:#ffffff;fill-opacity:0.33116886;stroke:#000000;stroke-width:1.07142854;stroke-linecap:round;stroke-linejoin:round;stroke-miterlimit:4;stroke-dasharray:none;stroke-opacity:1"/>
      <path id="path3677" d="M 237.3071,346.40961 C 235.78855,346.52458 234.58745,347.74196 234.49295,349.26192 C 234.39844,350.78188 235.43949,352.13867 236.9321,352.44086 C 236.9321,352.44086 237.82882,352.64518 238.58835,353.06586 C 238.76051,353.16122 238.80974,353.22217 238.9321,353.31586 C 238.88276,353.34447 238.89217,353.34901 238.83835,353.37836 C 237.89416,353.8933 236.31178,354.49323 234.6821,355.15961 C 233.05242,355.82599 231.34322,356.53809 229.8071,357.56586 C 229.03904,358.07975 228.31475,358.67882 227.6821,359.56586 C 227.04945,360.4529 226.56001,361.72781 226.6821,363.03461 C 226.70815,363.34612 226.78193,363.65177 226.90085,363.94086 C 227.94244,366.41577 230.11916,367.83706 232.1196,368.65961 C 234.12004,369.48216 236.16252,369.87845 237.9321,370.28461 C 239.70168,370.69077 241.18992,371.16024 241.8071,371.53461 C 242.42428,371.90898 242.26009,371.53016 242.21335,372.19086 C 242.15383,373.03217 242.17835,372.84836 241.7446,373.09711 C 241.31085,373.34586 240.1817,373.64313 238.71335,373.81586 C 235.77664,374.16132 231.41039,373.73084 228.21335,377.09711 C 227.89284,377.4446 227.65748,377.86182 227.52585,378.31586 C 227.00957,380.05897 227.60338,381.69752 228.27585,382.75336 C 228.94832,383.8092 229.75505,384.5472 230.52585,385.19086 C 232.06745,386.47818 233.6196,387.31586 233.6196,387.31586 C 234.58117,387.93802 235.81022,387.96912 236.80202,387.39638 C 237.79383,386.82364 238.38122,385.74359 238.32298,384.59977 C 238.26475,383.45596 237.57069,382.44116 236.52585,381.97211 C 236.52585,381.97211 235.49587,381.37542 234.58835,380.65961 C 235.83742,380.37784 237.45735,380.11066 239.4321,379.87836 C 241.14593,379.67675 242.96665,379.41592 244.77585,378.37836 C 246.58505,377.3408 248.13082,375.12024 248.3071,372.62836 C 248.49615,369.95588 246.82333,367.44408 244.96335,366.31586 C 243.10337,365.18764 241.16713,364.77403 239.3071,364.34711 C 237.44707,363.92019 235.65324,363.53672 234.4321,363.03461 C 233.9813,362.84925 233.73371,362.6779 233.46335,362.50336 C 234.26704,362.00352 235.53614,361.41223 236.9946,360.81586 C 238.55721,360.17691 240.23236,359.54685 241.7446,358.72211 C 242.50072,358.30974 243.23574,357.84572 243.9321,357.15961 C 244.62846,356.4735 245.37747,355.4254 245.46335,354.03461 C 245.56244,352.42982 244.9528,350.90179 244.15085,349.87836 C 243.3489,348.85493 242.40813,348.22472 241.5571,347.75336 C 239.85503,346.81063 238.21335,346.47211 238.21335,346.47211 C 237.91608,346.40616 237.61061,346.38509 237.3071,346.40961 z" style="fill:#ffffff;fill-opacity:1;fill-rule:evenodd;stroke:#000000;stroke-width:1;stroke-linecap:round;stroke-linejoin:round;stroke-miterlimit:4;stroke-dasharray:none;stroke-opacity:1"/>
      <path style="font-size:8px;font-style:normal;font-variant:normal;font-weight:normal;font-stretch:normal;text-align:center;line-height:100%;writing-mode:lr-tb;text-anchor:middle;fill:#000000;fill-opacity:1;stroke:none;stroke-width:1px;stroke-linecap:butt;stroke-linejoin:miter;stroke-opacity:1;font-family:Fortune Widgets;-inkscape-font-specification:Fortune Widgets" d="M 219.21487,339.10208 C 219.2414,339.21944 219.26801,339.33943 219.29471,339.46207 C 219.3214,339.58471 219.36412,339.73937 219.42288,339.92606 C 219.47073,339.97944 219.52269,340.01944 219.57877,340.04605 C 219.63483,340.07266 219.68419,340.102 219.72684,340.13406 C 219.94542,340.28869 220.12141,340.48335 220.25479,340.71805 C 220.38817,340.95275 220.45486,341.21146 220.45486,341.49417 C 220.45486,341.5207 220.46149,341.56465 220.47476,341.62601 C 220.48802,341.68737 220.48668,341.7554 220.47073,341.83011 L 220.46268,341.83817 C 220.44135,341.83817 220.38007,341.83817 220.27884,341.83817 C 220.17744,341.83817 220.06806,341.83682 219.95071,341.83414 C 219.83336,341.83145 219.72268,341.82877 219.61868,341.82608 C 219.51468,341.8234 219.44941,341.82205 219.42288,341.82205 C 219.22008,341.81668 219.01736,341.81135 218.81473,341.80606 C 218.61209,341.80077 218.40945,341.79813 218.20682,341.79813 C 218.20682,341.79813 218.14017,341.79813 218.00687,341.79813 C 217.8734,341.79813 217.72138,341.79813 217.55081,341.79813 C 217.38545,341.79813 217.22277,341.79678 217.06277,341.7941 C 216.90278,341.79141 216.79349,341.78738 216.73489,341.78201 C 216.69746,341.77664 216.68273,341.74466 216.6907,341.68607 C 216.69868,341.62747 216.70804,341.53682 216.71878,341.41409 C 216.72952,341.29137 216.76155,341.15937 216.81485,341.0181 C 216.86815,340.87682 216.93879,340.74348 217.02676,340.61807 C 217.11474,340.49267 217.21471,340.37931 217.32669,340.27798 C 217.43867,340.17667 217.55602,340.10469 217.67874,340.06204 C 217.67874,340.06204 217.68411,340.05676 217.69485,340.04617 C 217.74808,339.91271 217.81469,339.75268 217.89468,339.56607 C 217.97468,339.37947 218.04406,339.18745 218.10281,338.99002 C 218.07612,338.97407 218.05346,338.95275 218.03482,338.92606 C 218.01618,338.89937 218.00149,338.87805 217.99075,338.86209 C 217.93737,338.77144 217.89867,338.67809 217.87466,338.58206 C 217.85066,338.48604 217.84667,338.39005 217.8627,338.2941 C 217.87873,338.19816 217.9134,338.10884 217.96671,338.02615 C 218.02001,337.94348 218.09736,337.87276 218.19876,337.814 C 218.33206,337.73946 218.47472,337.6995 218.62674,337.69412 C 218.77876,337.68876 218.92141,337.72074 219.05472,337.79007 C 219.20413,337.86478 219.31216,337.95145 219.37881,338.05008 C 219.44546,338.14872 219.48408,338.27274 219.49466,338.42215 C 219.50003,338.48612 219.49604,338.55143 219.4827,338.61807 C 219.46935,338.68473 219.44803,338.75008 219.41873,338.81412 C 219.38943,338.87817 219.35745,338.9355 219.32278,338.98611 C 219.28811,339.03674 219.25214,339.07539 219.21487,339.10208 L 219.21487,339.10208 z M 220.1907,341.43802 C 220.1907,341.33678 220.17605,341.2408 220.14676,341.15005 C 220.11746,341.05932 220.08149,340.97395 220.03885,340.89395 C 219.9962,340.81396 219.95087,340.74198 219.90286,340.67801 C 219.85484,340.61405 219.81212,340.55806 219.77469,340.51004 C 219.73741,340.46203 219.68012,340.41401 219.60281,340.366 C 219.5255,340.31799 219.44949,340.27664 219.37479,340.24197 C 219.30008,340.20731 219.23339,340.17667 219.17471,340.15005 C 219.11604,340.12345 219.08409,340.10745 219.07889,340.10208 C 219.06277,340.04333 219.04141,339.96065 219.0148,339.85403 C 218.98819,339.74743 218.96418,339.63679 218.94278,339.52213 C 218.92137,339.40746 218.90534,339.30212 218.89468,339.20609 C 218.88402,339.11006 218.88935,339.0487 218.91068,339.022 C 218.98538,338.94746 219.04808,338.86751 219.09879,338.78214 C 219.14948,338.69677 219.17882,338.6101 219.1868,338.52213 C 219.19477,338.43416 219.17744,338.34614 219.1348,338.25809 C 219.09215,338.17004 219.01744,338.08605 218.91068,338.00613 C 218.83076,337.94738 218.74144,337.92203 218.64273,337.93008 C 218.54401,337.93815 218.45739,337.9635 218.38284,338.00613 C 218.26012,338.10738 218.19074,338.20735 218.17471,338.30606 C 218.15868,338.40478 218.16401,338.53145 218.1907,338.68607 C 218.1907,338.73408 218.20136,338.77408 218.22269,338.80606 C 218.24401,338.83805 218.26936,338.86604 218.29874,338.89005 C 218.32811,338.91406 218.35615,338.93672 218.38284,338.95804 C 218.40953,338.97936 218.42817,339.00606 218.43875,339.03812 C 218.42817,339.07002 218.41352,339.12597 218.39481,339.20596 C 218.37609,339.28596 218.35208,339.37931 218.32278,339.48599 C 218.29349,339.59268 218.2615,339.7047 218.22684,339.82205 C 218.19217,339.93941 218.15351,340.05138 218.11087,340.15799 C 218.03079,340.20601 217.95608,340.246 217.88675,340.27798 C 217.81741,340.30997 217.75076,340.34199 217.6868,340.37405 C 217.62283,340.40612 217.56017,340.44079 217.49881,340.47806 C 217.43745,340.51533 217.37479,340.56603 217.31082,340.63016 C 217.29471,340.64611 217.272,340.68342 217.24271,340.7421 C 217.21341,340.80077 217.18541,340.87011 217.15872,340.9501 C 217.13203,341.0301 217.11071,341.11274 217.09476,341.19803 C 217.07881,341.28332 217.07352,341.36063 217.07889,341.42996 C 217.1588,341.42996 217.28677,341.43265 217.4628,341.43802 C 217.63882,341.44339 217.83483,341.44872 218.05081,341.45401 C 218.26679,341.4593 218.49344,341.46329 218.73074,341.46597 C 218.96805,341.46866 219.18802,341.47 219.39066,341.47 C 219.59345,341.47 219.76818,341.46736 219.91483,341.46207 C 220.06147,341.45678 220.15343,341.44876 220.1907,341.43802 L 220.1907,341.43802 z M 216.7908,342.12601 C 216.8227,342.11006 216.92134,342.09541 217.0867,342.08206 C 217.25206,342.06872 217.4521,342.0594 217.6868,342.05411 C 217.9215,342.04882 218.17618,342.04483 218.45084,342.04214 C 218.72549,342.03946 218.98815,342.03812 219.2388,342.03812 C 219.48945,342.03812 219.71609,342.03812 219.91873,342.03812 C 220.12136,342.03812 220.26541,342.03812 220.35086,342.03812 C 220.41482,342.03812 220.45478,342.06477 220.47073,342.11807 C 220.48668,342.17138 220.48933,342.22871 220.47867,342.29007 C 220.468,342.35143 220.44534,342.40612 220.41068,342.45413 C 220.376,342.50215 220.33735,342.52347 220.29471,342.5181 C 220.24148,342.51273 220.18419,342.5074 220.12283,342.50211 C 220.06147,342.49682 219.98147,342.49283 219.88284,342.49014 C 219.78421,342.48746 219.65754,342.48477 219.50284,342.48209 C 219.34813,342.4794 219.15343,342.4794 218.91873,342.48209 C 218.68403,342.48477 218.39871,342.48611 218.06277,342.48611 C 217.73204,342.48611 217.33735,342.4888 216.87869,342.49417 C 216.84679,342.4888 216.81884,342.47143 216.79483,342.44205 C 216.77082,342.41267 216.75349,342.378 216.74283,342.33804 C 216.73217,342.29809 216.73082,342.25809 216.7388,342.21805 C 216.74678,342.17801 216.76411,342.14733 216.7908,342.12601 L 216.7908,342.12601 z" id="text3679"/>
      <path transform="scale(-1,-1)" style="font-size:8px;font-style:normal;font-variant:normal;font-weight:normal;font-stretch:normal;text-align:center;line-height:100%;writing-mode:lr-tb;text-anchor:middle;fill:#000000;fill-opacity:1;stroke:none;stroke-width:1px;stroke-linecap:butt;stroke-linejoin:miter;stroke-opacity:1;font-family:Fortune Widgets;-inkscape-font-specification:Fortune Widgets" d="M -255.77008,-395.10287 C -255.74355,-394.98552 -255.71694,-394.86553 -255.69025,-394.74289 C -255.66356,-394.62025 -255.62083,-394.46558 -255.56207,-394.2789 C -255.51422,-394.22551 -255.46226,-394.18551 -255.40619,-394.15891 C -255.35012,-394.13229 -255.30076,-394.10295 -255.25812,-394.07089 C -255.03953,-393.91627 -254.86355,-393.72161 -254.73016,-393.48691 C -254.59679,-393.25221 -254.53009,-392.9935 -254.53009,-392.71078 C -254.53009,-392.68425 -254.52346,-392.64031 -254.51019,-392.57895 C -254.49693,-392.51759 -254.49827,-392.44955 -254.51422,-392.37485 L -254.52228,-392.36679 C -254.5436,-392.36679 -254.60488,-392.36679 -254.70612,-392.36679 C -254.80752,-392.36679 -254.91689,-392.36813 -255.03424,-392.37082 C -255.15159,-392.3735 -255.26227,-392.37619 -255.36627,-392.37888 C -255.47028,-392.38156 -255.53555,-392.3829 -255.56207,-392.3829 C -255.76487,-392.38827 -255.96759,-392.3936 -256.17023,-392.3989 C -256.37287,-392.40418 -256.5755,-392.40683 -256.77814,-392.40683 C -256.77814,-392.40683 -256.84479,-392.40683 -256.97809,-392.40683 C -257.11155,-392.40683 -257.26357,-392.40683 -257.43414,-392.40683 C -257.59951,-392.40683 -257.76219,-392.40817 -257.92218,-392.41086 C -258.08217,-392.41354 -258.19147,-392.41757 -258.25006,-392.42294 C -258.2875,-392.42831 -258.30223,-392.4603 -258.29425,-392.51889 C -258.28628,-392.57748 -258.27692,-392.66814 -258.26617,-392.79086 C -258.25543,-392.91358 -258.22341,-393.04558 -258.1701,-393.18686 C -258.1168,-393.32813 -258.04616,-393.46147 -257.95819,-393.58688 C -257.87022,-393.71229 -257.77024,-393.82565 -257.65826,-393.92697 C -257.54629,-394.02829 -257.42894,-394.10027 -257.30621,-394.14291 C -257.30621,-394.14291 -257.30084,-394.1482 -257.2901,-394.15878 C -257.23688,-394.29224 -257.17027,-394.45228 -257.09027,-394.63889 C -257.01028,-394.82549 -256.9409,-395.0175 -256.88214,-395.21494 C -256.90884,-395.23088 -256.9315,-395.2522 -256.95013,-395.2789 C -256.96877,-395.30559 -256.98346,-395.32691 -256.9942,-395.34286 C -257.04759,-395.43352 -257.08628,-395.52686 -257.11029,-395.62289 C -257.1343,-395.71892 -257.13829,-395.81491 -257.12225,-395.91086 C -257.10622,-396.0068 -257.07155,-396.09612 -257.01825,-396.1788 C -256.96495,-396.26148 -256.8876,-396.3322 -256.78619,-396.39096 C -256.65289,-396.4655 -256.51024,-396.50546 -256.35822,-396.51083 C -256.2062,-396.5162 -256.06354,-396.48422 -255.93024,-396.41489 C -255.78083,-396.34017 -255.67279,-396.2535 -255.60614,-396.15488 C -255.53949,-396.05624 -255.50088,-395.93222 -255.4903,-395.78281 C -255.48493,-395.71884 -255.48891,-395.65353 -255.50226,-395.58688 C -255.51561,-395.52023 -255.53693,-395.45488 -255.56622,-395.39084 C -255.59552,-395.32679 -255.62751,-395.26946 -255.66217,-395.21884 C -255.69684,-395.16822 -255.73281,-395.12956 -255.77008,-395.10287 L -255.77008,-395.10287 z M -254.79425,-392.76694 C -254.79425,-392.86817 -254.8089,-392.96416 -254.8382,-393.0549 C -254.8675,-393.14564 -254.90347,-393.23101 -254.94611,-393.311 C -254.98875,-393.391 -255.03408,-393.46298 -255.08209,-393.52695 C -255.13011,-393.59091 -255.17283,-393.6469 -255.21027,-393.69492 C -255.24754,-393.74293 -255.30483,-393.79094 -255.38214,-393.83896 C -255.45946,-393.88697 -255.53546,-393.92831 -255.61017,-393.96298 C -255.68488,-393.99765 -255.75157,-394.02829 -255.81024,-394.0549 C -255.86892,-394.08151 -255.90086,-394.0975 -255.90607,-394.10287 C -255.92218,-394.16163 -255.94355,-394.24431 -255.97015,-394.35092 C -255.99677,-394.45753 -256.02077,-394.56816 -256.04218,-394.68283 C -256.06358,-394.79749 -256.07961,-394.90284 -256.09027,-394.99887 C -256.10093,-395.0949 -256.0956,-395.15626 -256.07428,-395.18295 C -255.99958,-395.25749 -255.93687,-395.33745 -255.88617,-395.42282 C -255.83547,-395.50818 -255.80613,-395.59485 -255.79816,-395.68283 C -255.79018,-395.7708 -255.80752,-395.85881 -255.85016,-395.94687 C -255.8928,-396.03492 -255.96751,-396.1189 -256.07428,-396.19882 C -256.1542,-396.25757 -256.24351,-396.28292 -256.34222,-396.27487 C -256.44094,-396.26681 -256.52757,-396.24146 -256.60211,-396.19882 C -256.72483,-396.09758 -256.79421,-395.9976 -256.81024,-395.8989 C -256.82628,-395.80018 -256.82094,-395.67351 -256.79425,-395.51889 C -256.79425,-395.47087 -256.78359,-395.43087 -256.76227,-395.3989 C -256.74095,-395.36691 -256.7156,-395.33891 -256.68622,-395.31491 C -256.65684,-395.2909 -256.62881,-395.26824 -256.60211,-395.24692 C -256.57542,-395.22559 -256.55678,-395.1989 -256.5462,-395.16684 C -256.55678,-395.13493 -256.57143,-395.07899 -256.59015,-394.99899 C -256.60887,-394.91899 -256.63288,-394.82565 -256.66217,-394.71896 C -256.69147,-394.61227 -256.72345,-394.50025 -256.75812,-394.3829 C -256.79279,-394.26555 -256.83144,-394.15357 -256.87408,-394.04697 C -256.95416,-393.99895 -257.02887,-393.95895 -257.09821,-393.92697 C -257.16754,-393.89499 -257.23419,-393.86296 -257.29816,-393.8309 C -257.36212,-393.79884 -257.42479,-393.76417 -257.48615,-393.7269 C -257.54751,-393.68962 -257.61017,-393.63892 -257.67413,-393.5748 C -257.69025,-393.55885 -257.71295,-393.52153 -257.74225,-393.46286 C -257.77155,-393.40418 -257.79954,-393.33485 -257.82623,-393.25485 C -257.85293,-393.17485 -257.87425,-393.09221 -257.8902,-393.00693 C -257.90615,-392.92164 -257.91144,-392.84433 -257.90607,-392.77499 C -257.82615,-392.77499 -257.69818,-392.77231 -257.52216,-392.76694 C -257.34613,-392.76156 -257.15013,-392.75623 -256.93414,-392.75095 C -256.71816,-392.74566 -256.49152,-392.74167 -256.25421,-392.73898 C -256.01691,-392.7363 -255.79694,-392.73495 -255.5943,-392.73495 C -255.3915,-392.73495 -255.21678,-392.7376 -255.07013,-392.74289 C -254.92349,-392.74818 -254.83153,-392.75619 -254.79425,-392.76694 L -254.79425,-392.76694 z M -258.19415,-392.07895 C -258.16225,-392.0949 -258.06362,-392.10955 -257.89825,-392.12289 C -257.73289,-392.13624 -257.53286,-392.14556 -257.29816,-392.15085 C -257.06346,-392.15614 -256.80878,-392.16013 -256.53412,-392.16281 C -256.25946,-392.1655 -255.99681,-392.16684 -255.74615,-392.16684 C -255.49551,-392.16684 -255.26886,-392.16684 -255.06622,-392.16684 C -254.86359,-392.16684 -254.71955,-392.16684 -254.63409,-392.16684 C -254.57013,-392.16684 -254.53018,-392.14019 -254.51422,-392.08688 C -254.49827,-392.03358 -254.49563,-391.97625 -254.50629,-391.91489 C -254.51695,-391.85353 -254.53962,-391.79884 -254.57428,-391.75082 C -254.60895,-391.70281 -254.64761,-391.68149 -254.69025,-391.68686 C -254.74347,-391.69223 -254.80076,-391.69756 -254.86212,-391.70285 C -254.92349,-391.70814 -255.00348,-391.71213 -255.10211,-391.71481 C -255.20075,-391.7175 -255.32742,-391.72018 -255.48212,-391.72287 C -255.63682,-391.72556 -255.83153,-391.72556 -256.06622,-391.72287 C -256.30093,-391.72018 -256.58624,-391.71884 -256.92218,-391.71884 C -257.25291,-391.71884 -257.6476,-391.71616 -258.10626,-391.71078 C -258.13816,-391.71616 -258.16612,-391.73353 -258.19012,-391.76291 C -258.21413,-391.79229 -258.23147,-391.82695 -258.24213,-391.86691 C -258.25279,-391.90687 -258.25413,-391.94687 -258.24615,-391.98691 C -258.23818,-392.02695 -258.22085,-392.05763 -258.19415,-392.07895 L -258.19415,-392.07895 z" id="text3683"/>
    </g>
  </g>
</svg>