<?xml version="1.0" encoding="UTF-8" standalone="no"?>
<svg
   xmlns:dc="http://purl.org/dc/elements/1.1/"
   xmlns:cc="http://creativecommons.org/ns#"
   xmlns:rdf="http://www.w3.org/1999/02/22-rdf-syntax-ns#"
   xmlns:svg="http://www.w3.org/2000/svg"
   xmlns="http://www.w3.org/2000/svg"
   xmlns:sodipodi="http://sodipodi.sourceforge.net/DTD/sodipodi-0.dtd"
   xmlns:inkscape="http://www.inkscape.org/namespaces/inkscape"
   viewBox="147.4 25.36 110 63.339"
   width="111"
   height="66"
   version="1.1"
   id="svg16"
   sodipodi:docname="move_to_wasteland.svg"
   inkscape:version="0.92.2 5c3e80d, 2017-08-06">
  <metadata
     id="metadata22">
    <rdf:RDF>
      <cc:Work
         rdf:about="">
        <dc:format>image/svg+xml</dc:format>
        <dc:type
           rdf:resource="http://purl.org/dc/dcmitype/StillImage" />
        <dc:title></dc:title>
      </cc:Work>
    </rdf:RDF>
  </metadata>
  <defs
     id="defs20" />
  <sodipodi:namedview
     pagecolor="#ffffff"
     bordercolor="#666666"
     borderopacity="1"
     objecttolerance="10"
     gridtolerance="10"
     guidetolerance="10"
     inkscape:pageopacity="0"
     inkscape:pageshadow="2"
     inkscape:window-width="1232"
     inkscape:window-height="505"
     id="namedview18"
     showgrid="false"
     viewbox-x="147.4"
     viewbox-y="25.36"
     inkscape:zoom="2.9189189"
     inkscape:cx="55.5"
     inkscape:cy="33"
     inkscape:window-x="0"
     inkscape:window-y="0"
     inkscape:window-maximized="0"
     inkscape:current-layer="svg16" />
  <g
     id="g3387"
     transform="translate(-186.3817,-309.80225)">
    <rect
       ry="2.0803924"
       y="335.45676"
       x="334.8884"
       height="63.291439"
       width="45.208172"
       id="rect3251"
       style="fill:#ffffff;fill-opacity:1;fill-rule:nonzero;stroke:#000000;stroke-width:1;stroke-linecap:round;stroke-linejoin:round;stroke-miterlimit:4;stroke-dasharray:none;stroke-opacity:1"
       rx="2.0803924" />
    <rect
       transform="scale(-1)"
       style="fill:#ffffff;fill-opacity:0;fill-rule:nonzero;stroke:#000000;stroke-width:1;stroke-linecap:round;stroke-linejoin:round;stroke-miterlimit:4;stroke-dasharray:none;stroke-opacity:1"
       id="rect3253"
       width="30.138792"
       height="46.715092"
       x="-372.56192"
       y="-390.45999" />
    <path
       style="fill:#ffffff;fill-opacity:0.33116886;stroke:#000000;stroke-width:1.07142854;stroke-linecap:round;stroke-linejoin:round;stroke-miterlimit:4;stroke-dasharray:none;stroke-opacity:1"
       id="path3257"
       d="m 36.875002,453.88004 a 2.6785715,2.6785715 0 1 1 -5.357143,0 2.6785715,2.6785715 0 1 1 5.357143,0 z"
       transform="matrix(0.9333333,0,0,0.9333333,306.7312,-71.008165)"
       inkscape:connector-curvature="0" />
    <path
       transform="matrix(0.9333333,0,0,0.9333333,306.7312,-77.008194)"
       d="m 36.875002,453.88004 a 2.6785715,2.6785715 0 1 1 -5.357143,0 2.6785715,2.6785715 0 1 1 5.357143,0 z"
       id="path3259"
       style="fill:#ffffff;fill-opacity:0.33116886;stroke:#000000;stroke-width:1.07142854;stroke-linecap:round;stroke-linejoin:round;stroke-miterlimit:4;stroke-dasharray:none;stroke-opacity:1"
       inkscape:connector-curvature="0" />
    <path
       d="m 342.42312,372.41495 5.73902,-4.46428 v 13.21428 l 3.66071,-4.91071 c 0,0 -1.90805,8.16348 0.35715,8.83928 2.2652,0.6758 4.01785,-5.625 4.01785,-5.625 l 3.66072,4.55358 c 1.58695,-2.29591 3.50244,-3.71572 5.80357,-4.10715 0.43373,2.20873 0.20351,4.74943 2.41071,6.07143 l 4.48907,-2.41071 m 0,-32.41072 -4.9355,4.55357 c 0.42528,-2.80201 0.74596,-5.47849 0,-6.875 -1.60308,1.52465 -3.26504,2.51935 -4.64285,6.07143 -0.2066,-5.06067 -4.74575,-8.07471 -6.51786,-0.17857 -1.80223,-1.54566 -3.22394,-3.54794 -3.83929,-6.51786 -0.39951,2.24072 -0.5479,4.607 0,7.32143 -1.872,0.2728 -3.6135,1.32856 -5.24745,3.02962 0.85741,-2.45597 1.86326,-4.66453 3.42922,-5.93957 -1.19815,-1.37901 -3.27687,0.17721 -5.14605,1.03495 l 3.21428,-4.10714 h -6.4533"
       style="fill:none;fill-rule:evenodd;stroke:#000000;stroke-width:1px;stroke-linecap:round;stroke-linejoin:round;stroke-opacity:1"
       id="path16049"
       inkscape:connector-curvature="0" />
    <path
       transform="matrix(-0.9333333,0,0,-0.9333333,408.25377,805.21312)"
       d="m 36.875002,453.88004 a 2.6785715,2.6785715 0 1 1 -5.357143,0 2.6785715,2.6785715 0 1 1 5.357143,0 z"
       id="path3269"
       style="fill:#ffffff;fill-opacity:0.33116886;stroke:#000000;stroke-width:1.07142854;stroke-linecap:round;stroke-linejoin:round;stroke-miterlimit:4;stroke-dasharray:none;stroke-opacity:1"
       inkscape:connector-curvature="0" />
    <path
       style="fill:#ffffff;fill-opacity:0.33116886;stroke:#000000;stroke-width:1.07142854;stroke-linecap:round;stroke-linejoin:round;stroke-miterlimit:4;stroke-dasharray:none;stroke-opacity:1"
       id="path3271"
       d="m 36.875002,453.88004 a 2.6785715,2.6785715 0 1 1 -5.357143,0 2.6785715,2.6785715 0 1 1 5.357143,0 z"
       transform="matrix(-0.9333333,0,0,-0.9333333,408.25377,811.21315)"
       inkscape:connector-curvature="0" />
    <path
       style="font-style:normal;font-variant:normal;font-weight:normal;font-stretch:normal;font-size:8px;line-height:100%;font-family:'Fortune Widgets';-inkscape-font-specification:'Fortune Widgets';text-align:center;writing-mode:lr-tb;text-anchor:middle;fill:#000000;fill-opacity:1;stroke:none;stroke-width:1px;stroke-linecap:butt;stroke-linejoin:miter;stroke-opacity:1"
       d="m 337.16019,338.31009 c 0.0267,-0.0853 0.0707,-0.15726 0.13208,-0.21594 0.0614,-0.0587 0.12536,-0.0987 0.19201,-0.12 0.0666,-0.0213 0.12932,-0.02 0.18799,0.004 0.0587,0.0239 0.096,0.0759 0.11194,0.156 0.12793,-0.0906 0.2679,-0.1573 0.41992,-0.19995 0.15202,-0.0426 0.30937,-0.068 0.47205,-0.076 0.16267,-0.008 0.32535,10e-4 0.48804,0.028 0.16267,0.0267 0.31335,0.0693 0.45202,0.12793 0.17594,0.0747 0.30794,0.19206 0.396,0.35205 0.088,0.15999 0.16674,0.31999 0.23608,0.47998 0.0532,0.13867 0.0665,0.27336 0.0399,0.40405 -0.0266,0.1307 -0.0786,0.25472 -0.15601,0.37207 -0.0774,0.11735 -0.17342,0.22535 -0.28808,0.32398 -0.11467,0.0986 -0.23068,0.1853 -0.34803,0.26001 0.22933,0.11735 0.42,0.27335 0.57203,0.46801 0.15201,0.19467 0.23339,0.41195 0.24414,0.65186 0.005,0.24544 -0.0348,0.45614 -0.12012,0.63208 -0.0853,0.17594 -0.20524,0.35726 -0.35986,0.54394 -0.0747,0.0907 -0.17209,0.17334 -0.29212,0.24805 -0.12004,0.0747 -0.23604,0.12541 -0.34802,0.1521 -0.096,0.0213 -0.17603,0.0373 -0.23999,0.048 -0.064,0.0107 -0.12793,0.016 -0.1919,0.016 -0.0588,0 -0.12011,-0.005 -0.18408,-0.016 -0.064,-0.0107 -0.14396,-0.0267 -0.23999,-0.048 -0.15462,-0.0374 -0.28528,-0.10413 -0.39197,-0.20007 -0.10669,-0.096 -0.21333,-0.19462 -0.31994,-0.29602 -0.13867,-0.1333 -0.22803,-0.28129 -0.26807,-0.44397 -0.04,-0.16268 -0.0734,-0.33199 -0.1001,-0.50794 -0.005,-0.0801 0.0149,-0.15743 0.0602,-0.23205 0.0453,-0.0746 0.10132,-0.13196 0.16797,-0.172 0.0666,-0.04 0.13729,-0.0547 0.21192,-0.0441 0.0746,0.0107 0.13863,0.0587 0.19201,0.14417 0.0107,0.0799 0.0201,0.15055 0.0281,0.21191 0.008,0.0614 0.0186,0.12004 0.032,0.17603 0.0134,0.056 0.032,0.11063 0.056,0.16394 0.024,0.0533 0.0599,0.11194 0.10779,0.1759 0.0641,0.0907 0.14152,0.16935 0.23218,0.23608 0.0906,0.0667 0.18929,0.11874 0.2959,0.15601 0.12809,0.0426 0.25744,0.0533 0.38806,0.032 0.13061,-0.0213 0.2493,-0.0773 0.35608,-0.16797 0.12255,-0.11197 0.19982,-0.23063 0.23181,-0.35595 0.032,-0.12533 0.032,-0.24801 0,-0.36805 -0.032,-0.12003 -0.0906,-0.23469 -0.1759,-0.34399 -0.0853,-0.10929 -0.18527,-0.19995 -0.29993,-0.27197 -0.11467,-0.072 -0.23735,-0.12268 -0.36804,-0.15198 -0.1307,-0.0293 -0.25741,-0.028 -0.38013,0.004 -0.0907,0.0534 -0.17863,0.0774 -0.26392,0.072 -0.0107,0 -0.0188,-0.001 -0.024,-0.004 -0.005,-0.003 -0.0106,-0.004 -0.016,-0.004 -0.0747,-0.0319 -0.12671,-0.0705 -0.15601,-0.11584 -0.0293,-0.0453 -0.0413,-0.096 -0.0359,-0.15198 0.005,-0.056 0.0254,-0.11068 0.0601,-0.16406 0.0347,-0.0534 0.0759,-0.10409 0.12378,-0.1521 0.0107,-0.005 0.0214,-0.0107 0.0321,-0.016 0.0107,-0.005 0.0214,-0.0106 0.0321,-0.016 l 0.0718,-0.072 c 0.0693,-0.048 0.14002,-0.0747 0.21204,-0.0799 0.072,-0.005 0.14807,0.003 0.22815,0.024 0.0532,-0.0213 0.13985,-0.0573 0.25989,-0.10803 0.12003,-0.0507 0.23738,-0.11205 0.35205,-0.18408 0.11466,-0.072 0.21065,-0.15201 0.28796,-0.23999 0.0773,-0.088 0.10002,-0.1746 0.0681,-0.25989 -0.0321,-0.0693 -0.0574,-0.13065 -0.0761,-0.18396 -0.0186,-0.0533 -0.0413,-0.10131 -0.068,-0.14404 -0.0267,-0.0427 -0.0587,-0.0828 -0.0961,-0.12012 -0.0374,-0.0374 -0.088,-0.0747 -0.15198,-0.11194 -0.0747,-0.0426 -0.17607,-0.076 -0.30408,-0.1 -0.12801,-0.024 -0.25733,-0.032 -0.38794,-0.024 -0.13062,0.008 -0.25061,0.036 -0.35998,0.084 -0.10938,0.048 -0.1827,0.12003 -0.21997,0.21606 -0.0373,0.0693 -0.088,0.1333 -0.1521,0.19189 0.005,0.0641 0.009,0.12818 0.0121,0.19214 0.003,0.064 0.007,0.12533 0.0121,0.18408 -0.0108,0.0799 -0.0428,0.15455 -0.0961,0.22388 -0.0533,0.0693 -0.11463,0.12 -0.18396,0.15198 -0.0693,0.032 -0.13733,0.0373 -0.20398,0.016 -0.0666,-0.0213 -0.12138,-0.0827 -0.16419,-0.18408 -0.0106,-0.20263 -0.0265,-0.41194 -0.0478,-0.62793 -0.0213,-0.21598 -0.0134,-0.42529 0.0239,-0.62793 z"
       id="text3343"
       inkscape:connector-curvature="0" />
    <path
       transform="scale(-1)"
       style="font-style:normal;font-variant:normal;font-weight:normal;font-stretch:normal;font-size:8px;line-height:100%;font-family:'Fortune Widgets';-inkscape-font-specification:'Fortune Widgets';text-align:center;writing-mode:lr-tb;text-anchor:middle;fill:#000000;fill-opacity:1;stroke:none;stroke-width:1px;stroke-linecap:butt;stroke-linejoin:miter;stroke-opacity:1"
       d="m -377.82477,-395.89487 c 0.0267,-0.0853 0.0707,-0.15726 0.13208,-0.21594 0.0614,-0.0587 0.12537,-0.0987 0.19202,-0.11999 0.0667,-0.0213 0.12931,-0.02 0.18799,0.004 0.0587,0.0239 0.096,0.0759 0.11194,0.15601 0.12792,-0.0907 0.2679,-0.15731 0.41992,-0.19995 0.15201,-0.0426 0.30936,-0.068 0.47204,-0.076 0.16268,-0.008 0.32536,0.001 0.48804,0.0279 0.16268,0.0267 0.31335,0.0693 0.45203,0.12793 0.17594,0.0747 0.30794,0.19206 0.39599,0.35205 0.088,0.16 0.16675,0.31999 0.23609,0.47998 0.0532,0.13868 0.0665,0.27336 0.0399,0.40405 -0.0266,0.1307 -0.0786,0.25473 -0.156,0.37207 -0.0774,0.11736 -0.17343,0.22535 -0.28809,0.32398 -0.11467,0.0986 -0.23067,0.1853 -0.34802,0.26001 0.22933,0.11735 0.42,0.27336 0.57202,0.46802 0.15202,0.19466 0.2334,0.41194 0.24414,0.65185 0.005,0.24545 -0.0348,0.45614 -0.12012,0.63208 -0.0853,0.17595 -0.20524,0.35726 -0.35986,0.54395 -0.0747,0.0907 -0.17208,0.17334 -0.29211,0.24804 -0.12004,0.0747 -0.23605,0.12541 -0.34803,0.1521 -0.096,0.0213 -0.17602,0.0373 -0.23999,0.048 -0.064,0.0107 -0.12793,0.016 -0.19189,0.016 -0.0588,0 -0.12012,-0.005 -0.18408,-0.016 -0.064,-0.0107 -0.14397,-0.0267 -0.23999,-0.048 -0.15463,-0.0374 -0.28528,-0.10412 -0.39197,-0.20007 -0.10669,-0.096 -0.21334,-0.19462 -0.31995,-0.29602 -0.13867,-0.1333 -0.22802,-0.28129 -0.26806,-0.44397 -0.04,-0.16268 -0.0734,-0.33199 -0.1001,-0.50793 -0.005,-0.0801 0.0148,-0.15743 0.0602,-0.23206 0.0453,-0.0746 0.10132,-0.13196 0.16797,-0.172 0.0667,-0.04 0.13729,-0.0547 0.21191,-0.0441 0.0746,0.0107 0.13863,0.0587 0.19202,0.14416 0.0107,0.0799 0.0201,0.15056 0.0281,0.21192 0.008,0.0614 0.0186,0.12003 0.032,0.17602 0.0133,0.056 0.032,0.11064 0.056,0.16394 0.024,0.0533 0.0599,0.11194 0.10779,0.1759 0.0641,0.0907 0.14151,0.16936 0.23217,0.23609 0.0907,0.0667 0.18929,0.11873 0.2959,0.156 0.12809,0.0426 0.25745,0.0533 0.38806,0.032 0.13062,-0.0213 0.24931,-0.0773 0.35608,-0.16797 0.12256,-0.11198 0.19983,-0.23063 0.23181,-0.35596 0.032,-0.12532 0.032,-0.248 0,-0.36804 -0.032,-0.12004 -0.0906,-0.2347 -0.1759,-0.344 -0.0853,-0.10929 -0.18526,-0.19994 -0.29993,-0.27197 -0.11466,-0.072 -0.23734,-0.12268 -0.36804,-0.15198 -0.1307,-0.0293 -0.2574,-0.028 -0.38012,0.004 -0.0907,0.0534 -0.17864,0.0774 -0.26392,0.072 -0.0107,0 -0.0188,-0.001 -0.0241,-0.004 -0.005,-0.003 -0.0106,-0.004 -0.016,-0.004 -0.0747,-0.0319 -0.12671,-0.0705 -0.15601,-0.11585 -0.0293,-0.0453 -0.0413,-0.096 -0.0359,-0.15198 0.005,-0.056 0.0254,-0.11067 0.06,-0.16406 0.0347,-0.0534 0.0759,-0.10408 0.12378,-0.1521 0.0107,-0.005 0.0215,-0.0107 0.0321,-0.016 0.0107,-0.005 0.0214,-0.0106 0.0321,-0.016 l 0.0718,-0.072 c 0.0693,-0.048 0.14001,-0.0747 0.21204,-0.08 0.072,-0.005 0.14807,0.003 0.22815,0.024 0.0532,-0.0213 0.13985,-0.0573 0.25988,-0.10803 0.12004,-0.0507 0.23739,-0.11206 0.35205,-0.18409 0.11467,-0.072 0.21065,-0.15201 0.28797,-0.23999 0.0773,-0.088 0.10001,-0.17459 0.0681,-0.25988 -0.0321,-0.0693 -0.0574,-0.13066 -0.0761,-0.18396 -0.0186,-0.0533 -0.0413,-0.10132 -0.068,-0.14405 -0.0267,-0.0427 -0.0587,-0.0828 -0.0961,-0.12011 -0.0374,-0.0374 -0.088,-0.0747 -0.15198,-0.11194 -0.0747,-0.0426 -0.17606,-0.076 -0.30407,-0.1 -0.12802,-0.024 -0.25733,-0.032 -0.38794,-0.024 -0.13062,0.008 -0.25062,0.036 -0.35999,0.084 -0.10937,0.048 -0.1827,0.12004 -0.21997,0.21606 -0.0373,0.0693 -0.088,0.13331 -0.1521,0.1919 0.005,0.0641 0.009,0.12818 0.0121,0.19214 0.003,0.064 0.007,0.12533 0.0121,0.18408 -0.0107,0.0799 -0.0428,0.15454 -0.0961,0.22388 -0.0533,0.0693 -0.11462,0.11999 -0.18396,0.15197 -0.0693,0.032 -0.13733,0.0373 -0.20398,0.016 -0.0666,-0.0213 -0.12138,-0.0827 -0.16418,-0.18408 -0.0106,-0.20263 -0.0265,-0.41194 -0.0478,-0.62793 -0.0213,-0.21598 -0.0134,-0.42529 0.0239,-0.62793 z"
       id="text3347"
       inkscape:connector-curvature="0" />
  </g>
  <g
     id="g2636"
     transform="rotate(180,176.69701,190.27081)">
    <rect
       style="fill:#ffffff;fill-opacity:1;fill-rule:nonzero;stroke:#000000;stroke-width:1;stroke-miterlimit:4;stroke-dasharray:8, 1;stroke-dashoffset:7.26000023;stroke-opacity:1"
       id="rect2638"
       width="45.208172"
       height="63.291439"
       x="96.665039"
       y="291.5481"
       ry="2.0803924"
       rx="2.0803924" />
  </g>
  <text
     x="193.918"
     y="64.158997"
     style="font-size:24px;white-space:pre;fill:#333333"
     id="text14">↝</text>
</svg>
